M48
; DRILL file {KiCad 8.0.8} date 2025-02-10T09:22:13+0100
; FORMAT={-:-/ absolute / metric / decimal}
; #@! TF.CreationDate,2025-02-10T09:22:13+01:00
; #@! TF.GenerationSoftware,Kicad,Pcbnew,8.0.8
; #@! TF.FileFunction,Plated,1,2,PTH
FMAT,2
METRIC
; #@! TA.AperFunction,Plated,PTH,ViaDrill
T1C0.300
; #@! TA.AperFunction,Plated,PTH,ComponentDrill
T2C0.800
; #@! TA.AperFunction,Plated,PTH,ComponentDrill
T3C1.000
; #@! TA.AperFunction,Plated,PTH,ComponentDrill
T4C1.092
; #@! TA.AperFunction,Plated,PTH,ComponentDrill
T5C1.500
%
G90
G05
T1
X174.716Y-51.356
X175.907Y-51.356
T2
X153.285Y-55.88
X153.285Y-63.5
X153.285Y-74.93
X153.285Y-82.55
X153.285Y-93.98
X153.285Y-101.6
X172.335Y-55.88
X172.335Y-63.5
X172.335Y-74.93
X172.335Y-82.55
X172.335Y-93.98
X172.335Y-101.6
X191.385Y-55.88
X191.385Y-63.5
X191.385Y-74.93
X191.385Y-82.55
X191.385Y-93.98
X191.385Y-101.6
X210.435Y-55.88
X210.435Y-63.5
X210.435Y-74.93
X210.435Y-82.55
X210.435Y-93.98
X210.435Y-101.6
T3
X136.26Y-38.14
X136.26Y-40.64
X136.26Y-43.14
X150.76Y-38.14
X150.76Y-43.14
T4
X178.685Y-33.655
X178.685Y-48.895
X181.225Y-33.655
X181.225Y-48.895
X183.765Y-33.655
X183.765Y-48.895
X186.305Y-33.655
X186.305Y-48.895
X188.845Y-33.655
X188.845Y-48.895
X191.385Y-33.655
X191.385Y-48.895
X193.925Y-33.655
X193.925Y-48.895
X196.465Y-33.655
X196.465Y-48.895
X199.005Y-33.655
X199.005Y-48.895
X201.545Y-33.655
X201.545Y-48.895
X204.085Y-33.655
X204.085Y-48.895
X206.625Y-33.655
X206.625Y-48.895
T5
X139.95Y-57.15
X139.95Y-76.2
X139.95Y-95.25
X146.3Y-54.61
X146.3Y-73.66
X146.3Y-92.71
X159.0Y-57.15
X159.0Y-76.2
X159.0Y-95.25
X165.35Y-54.61
X165.35Y-73.66
X165.35Y-92.71
X178.05Y-57.15
X178.05Y-76.2
X178.05Y-95.25
X184.4Y-54.61
X184.4Y-73.66
X184.4Y-92.71
X197.1Y-57.15
X197.1Y-76.2
X197.1Y-95.25
X203.45Y-54.61
X203.45Y-73.66
X203.45Y-92.71
T5
G00X143.11Y-35.04
M15
G01X144.41Y-35.04
M16
G05
G00X143.11Y-46.24
M15
G01X144.41Y-46.24
M16
G05
M30
