G04 #@! TF.GenerationSoftware,KiCad,Pcbnew,8.0.8*
G04 #@! TF.CreationDate,2025-02-10T09:22:13+01:00*
G04 #@! TF.ProjectId,better,62657474-6572-42e6-9b69-6361645f7063,rev?*
G04 #@! TF.SameCoordinates,Original*
G04 #@! TF.FileFunction,Legend,Bot*
G04 #@! TF.FilePolarity,Positive*
%FSLAX46Y46*%
G04 Gerber Fmt 4.6, Leading zero omitted, Abs format (unit mm)*
G04 Created by KiCad (PCBNEW 8.0.8) date 2025-02-10 09:22:13*
%MOMM*%
%LPD*%
G01*
G04 APERTURE LIST*
%ADD10C,0.150000*%
%ADD11C,0.200000*%
%ADD12R,1.752600X1.752600*%
%ADD13C,1.752600*%
%ADD14R,1.600000X1.600000*%
%ADD15O,1.600000X1.600000*%
%ADD16C,1.750000*%
%ADD17C,4.000000*%
%ADD18C,2.500000*%
%ADD19R,2.000000X2.000000*%
%ADD20C,2.000000*%
%ADD21R,3.200000X2.000000*%
G04 APERTURE END LIST*
D10*
X178628247Y-35490190D02*
X178666342Y-35604476D01*
X178666342Y-35604476D02*
X178704438Y-35642571D01*
X178704438Y-35642571D02*
X178780628Y-35680667D01*
X178780628Y-35680667D02*
X178894914Y-35680667D01*
X178894914Y-35680667D02*
X178971104Y-35642571D01*
X178971104Y-35642571D02*
X179009200Y-35604476D01*
X179009200Y-35604476D02*
X179047295Y-35528286D01*
X179047295Y-35528286D02*
X179047295Y-35223524D01*
X179047295Y-35223524D02*
X178247295Y-35223524D01*
X178247295Y-35223524D02*
X178247295Y-35490190D01*
X178247295Y-35490190D02*
X178285390Y-35566381D01*
X178285390Y-35566381D02*
X178323485Y-35604476D01*
X178323485Y-35604476D02*
X178399676Y-35642571D01*
X178399676Y-35642571D02*
X178475866Y-35642571D01*
X178475866Y-35642571D02*
X178552057Y-35604476D01*
X178552057Y-35604476D02*
X178590152Y-35566381D01*
X178590152Y-35566381D02*
X178628247Y-35490190D01*
X178628247Y-35490190D02*
X178628247Y-35223524D01*
X178247295Y-36404476D02*
X178247295Y-36023524D01*
X178247295Y-36023524D02*
X178628247Y-35985428D01*
X178628247Y-35985428D02*
X178590152Y-36023524D01*
X178590152Y-36023524D02*
X178552057Y-36099714D01*
X178552057Y-36099714D02*
X178552057Y-36290190D01*
X178552057Y-36290190D02*
X178590152Y-36366381D01*
X178590152Y-36366381D02*
X178628247Y-36404476D01*
X178628247Y-36404476D02*
X178704438Y-36442571D01*
X178704438Y-36442571D02*
X178894914Y-36442571D01*
X178894914Y-36442571D02*
X178971104Y-36404476D01*
X178971104Y-36404476D02*
X179009200Y-36366381D01*
X179009200Y-36366381D02*
X179047295Y-36290190D01*
X179047295Y-36290190D02*
X179047295Y-36099714D01*
X179047295Y-36099714D02*
X179009200Y-36023524D01*
X179009200Y-36023524D02*
X178971104Y-35985428D01*
X193868247Y-46469333D02*
X193868247Y-46202667D01*
X194287295Y-46202667D02*
X193487295Y-46202667D01*
X193487295Y-46202667D02*
X193487295Y-46583619D01*
X193487295Y-47269333D02*
X193487295Y-46888381D01*
X193487295Y-46888381D02*
X193868247Y-46850285D01*
X193868247Y-46850285D02*
X193830152Y-46888381D01*
X193830152Y-46888381D02*
X193792057Y-46964571D01*
X193792057Y-46964571D02*
X193792057Y-47155047D01*
X193792057Y-47155047D02*
X193830152Y-47231238D01*
X193830152Y-47231238D02*
X193868247Y-47269333D01*
X193868247Y-47269333D02*
X193944438Y-47307428D01*
X193944438Y-47307428D02*
X194134914Y-47307428D01*
X194134914Y-47307428D02*
X194211104Y-47269333D01*
X194211104Y-47269333D02*
X194249200Y-47231238D01*
X194249200Y-47231238D02*
X194287295Y-47155047D01*
X194287295Y-47155047D02*
X194287295Y-46964571D01*
X194287295Y-46964571D02*
X194249200Y-46888381D01*
X194249200Y-46888381D02*
X194211104Y-46850285D01*
X194287295Y-35223524D02*
X193487295Y-35223524D01*
X193487295Y-35223524D02*
X193487295Y-35414000D01*
X193487295Y-35414000D02*
X193525390Y-35528286D01*
X193525390Y-35528286D02*
X193601580Y-35604476D01*
X193601580Y-35604476D02*
X193677771Y-35642571D01*
X193677771Y-35642571D02*
X193830152Y-35680667D01*
X193830152Y-35680667D02*
X193944438Y-35680667D01*
X193944438Y-35680667D02*
X194096819Y-35642571D01*
X194096819Y-35642571D02*
X194173009Y-35604476D01*
X194173009Y-35604476D02*
X194249200Y-35528286D01*
X194249200Y-35528286D02*
X194287295Y-35414000D01*
X194287295Y-35414000D02*
X194287295Y-35223524D01*
X193487295Y-36175905D02*
X193487295Y-36252095D01*
X193487295Y-36252095D02*
X193525390Y-36328286D01*
X193525390Y-36328286D02*
X193563485Y-36366381D01*
X193563485Y-36366381D02*
X193639676Y-36404476D01*
X193639676Y-36404476D02*
X193792057Y-36442571D01*
X193792057Y-36442571D02*
X193982533Y-36442571D01*
X193982533Y-36442571D02*
X194134914Y-36404476D01*
X194134914Y-36404476D02*
X194211104Y-36366381D01*
X194211104Y-36366381D02*
X194249200Y-36328286D01*
X194249200Y-36328286D02*
X194287295Y-36252095D01*
X194287295Y-36252095D02*
X194287295Y-36175905D01*
X194287295Y-36175905D02*
X194249200Y-36099714D01*
X194249200Y-36099714D02*
X194211104Y-36061619D01*
X194211104Y-36061619D02*
X194134914Y-36023524D01*
X194134914Y-36023524D02*
X193982533Y-35985428D01*
X193982533Y-35985428D02*
X193792057Y-35985428D01*
X193792057Y-35985428D02*
X193639676Y-36023524D01*
X193639676Y-36023524D02*
X193563485Y-36061619D01*
X193563485Y-36061619D02*
X193525390Y-36099714D01*
X193525390Y-36099714D02*
X193487295Y-36175905D01*
X181168247Y-35490190D02*
X181206342Y-35604476D01*
X181206342Y-35604476D02*
X181244438Y-35642571D01*
X181244438Y-35642571D02*
X181320628Y-35680667D01*
X181320628Y-35680667D02*
X181434914Y-35680667D01*
X181434914Y-35680667D02*
X181511104Y-35642571D01*
X181511104Y-35642571D02*
X181549200Y-35604476D01*
X181549200Y-35604476D02*
X181587295Y-35528286D01*
X181587295Y-35528286D02*
X181587295Y-35223524D01*
X181587295Y-35223524D02*
X180787295Y-35223524D01*
X180787295Y-35223524D02*
X180787295Y-35490190D01*
X180787295Y-35490190D02*
X180825390Y-35566381D01*
X180825390Y-35566381D02*
X180863485Y-35604476D01*
X180863485Y-35604476D02*
X180939676Y-35642571D01*
X180939676Y-35642571D02*
X181015866Y-35642571D01*
X181015866Y-35642571D02*
X181092057Y-35604476D01*
X181092057Y-35604476D02*
X181130152Y-35566381D01*
X181130152Y-35566381D02*
X181168247Y-35490190D01*
X181168247Y-35490190D02*
X181168247Y-35223524D01*
X181053961Y-36366381D02*
X181587295Y-36366381D01*
X180749200Y-36175905D02*
X181320628Y-35985428D01*
X181320628Y-35985428D02*
X181320628Y-36480667D01*
X196827295Y-35223524D02*
X196027295Y-35223524D01*
X196027295Y-35223524D02*
X196027295Y-35414000D01*
X196027295Y-35414000D02*
X196065390Y-35528286D01*
X196065390Y-35528286D02*
X196141580Y-35604476D01*
X196141580Y-35604476D02*
X196217771Y-35642571D01*
X196217771Y-35642571D02*
X196370152Y-35680667D01*
X196370152Y-35680667D02*
X196484438Y-35680667D01*
X196484438Y-35680667D02*
X196636819Y-35642571D01*
X196636819Y-35642571D02*
X196713009Y-35604476D01*
X196713009Y-35604476D02*
X196789200Y-35528286D01*
X196789200Y-35528286D02*
X196827295Y-35414000D01*
X196827295Y-35414000D02*
X196827295Y-35223524D01*
X196827295Y-36442571D02*
X196827295Y-35985428D01*
X196827295Y-36214000D02*
X196027295Y-36214000D01*
X196027295Y-36214000D02*
X196141580Y-36137809D01*
X196141580Y-36137809D02*
X196217771Y-36061619D01*
X196217771Y-36061619D02*
X196255866Y-35985428D01*
X206187295Y-35512651D02*
X206187295Y-35969794D01*
X206987295Y-35741222D02*
X206187295Y-35741222D01*
X206187295Y-36160270D02*
X206987295Y-36693604D01*
X206187295Y-36693604D02*
X206987295Y-36160270D01*
X206187295Y-37150747D02*
X206187295Y-37226937D01*
X206187295Y-37226937D02*
X206225390Y-37303128D01*
X206225390Y-37303128D02*
X206263485Y-37341223D01*
X206263485Y-37341223D02*
X206339676Y-37379318D01*
X206339676Y-37379318D02*
X206492057Y-37417413D01*
X206492057Y-37417413D02*
X206682533Y-37417413D01*
X206682533Y-37417413D02*
X206834914Y-37379318D01*
X206834914Y-37379318D02*
X206911104Y-37341223D01*
X206911104Y-37341223D02*
X206949200Y-37303128D01*
X206949200Y-37303128D02*
X206987295Y-37226937D01*
X206987295Y-37226937D02*
X206987295Y-37150747D01*
X206987295Y-37150747D02*
X206949200Y-37074556D01*
X206949200Y-37074556D02*
X206911104Y-37036461D01*
X206911104Y-37036461D02*
X206834914Y-36998366D01*
X206834914Y-36998366D02*
X206682533Y-36960270D01*
X206682533Y-36960270D02*
X206492057Y-36960270D01*
X206492057Y-36960270D02*
X206339676Y-36998366D01*
X206339676Y-36998366D02*
X206263485Y-37036461D01*
X206263485Y-37036461D02*
X206225390Y-37074556D01*
X206225390Y-37074556D02*
X206187295Y-37150747D01*
X206149200Y-38331699D02*
X207177771Y-37645985D01*
X206987295Y-38598366D02*
X206187295Y-38598366D01*
X206187295Y-38598366D02*
X206187295Y-38788842D01*
X206187295Y-38788842D02*
X206225390Y-38903128D01*
X206225390Y-38903128D02*
X206301580Y-38979318D01*
X206301580Y-38979318D02*
X206377771Y-39017413D01*
X206377771Y-39017413D02*
X206530152Y-39055509D01*
X206530152Y-39055509D02*
X206644438Y-39055509D01*
X206644438Y-39055509D02*
X206796819Y-39017413D01*
X206796819Y-39017413D02*
X206873009Y-38979318D01*
X206873009Y-38979318D02*
X206949200Y-38903128D01*
X206949200Y-38903128D02*
X206987295Y-38788842D01*
X206987295Y-38788842D02*
X206987295Y-38598366D01*
X206187295Y-39322175D02*
X206187295Y-39817413D01*
X206187295Y-39817413D02*
X206492057Y-39550747D01*
X206492057Y-39550747D02*
X206492057Y-39665032D01*
X206492057Y-39665032D02*
X206530152Y-39741223D01*
X206530152Y-39741223D02*
X206568247Y-39779318D01*
X206568247Y-39779318D02*
X206644438Y-39817413D01*
X206644438Y-39817413D02*
X206834914Y-39817413D01*
X206834914Y-39817413D02*
X206911104Y-39779318D01*
X206911104Y-39779318D02*
X206949200Y-39741223D01*
X206949200Y-39741223D02*
X206987295Y-39665032D01*
X206987295Y-39665032D02*
X206987295Y-39436461D01*
X206987295Y-39436461D02*
X206949200Y-39360270D01*
X206949200Y-39360270D02*
X206911104Y-39322175D01*
X204447295Y-35223524D02*
X203647295Y-35223524D01*
X203647295Y-35223524D02*
X203647295Y-35414000D01*
X203647295Y-35414000D02*
X203685390Y-35528286D01*
X203685390Y-35528286D02*
X203761580Y-35604476D01*
X203761580Y-35604476D02*
X203837771Y-35642571D01*
X203837771Y-35642571D02*
X203990152Y-35680667D01*
X203990152Y-35680667D02*
X204104438Y-35680667D01*
X204104438Y-35680667D02*
X204256819Y-35642571D01*
X204256819Y-35642571D02*
X204333009Y-35604476D01*
X204333009Y-35604476D02*
X204409200Y-35528286D01*
X204409200Y-35528286D02*
X204447295Y-35414000D01*
X204447295Y-35414000D02*
X204447295Y-35223524D01*
X203723485Y-35985428D02*
X203685390Y-36023524D01*
X203685390Y-36023524D02*
X203647295Y-36099714D01*
X203647295Y-36099714D02*
X203647295Y-36290190D01*
X203647295Y-36290190D02*
X203685390Y-36366381D01*
X203685390Y-36366381D02*
X203723485Y-36404476D01*
X203723485Y-36404476D02*
X203799676Y-36442571D01*
X203799676Y-36442571D02*
X203875866Y-36442571D01*
X203875866Y-36442571D02*
X203990152Y-36404476D01*
X203990152Y-36404476D02*
X204447295Y-35947333D01*
X204447295Y-35947333D02*
X204447295Y-36442571D01*
X183708247Y-46412190D02*
X183746342Y-46526476D01*
X183746342Y-46526476D02*
X183784438Y-46564571D01*
X183784438Y-46564571D02*
X183860628Y-46602667D01*
X183860628Y-46602667D02*
X183974914Y-46602667D01*
X183974914Y-46602667D02*
X184051104Y-46564571D01*
X184051104Y-46564571D02*
X184089200Y-46526476D01*
X184089200Y-46526476D02*
X184127295Y-46450286D01*
X184127295Y-46450286D02*
X184127295Y-46145524D01*
X184127295Y-46145524D02*
X183327295Y-46145524D01*
X183327295Y-46145524D02*
X183327295Y-46412190D01*
X183327295Y-46412190D02*
X183365390Y-46488381D01*
X183365390Y-46488381D02*
X183403485Y-46526476D01*
X183403485Y-46526476D02*
X183479676Y-46564571D01*
X183479676Y-46564571D02*
X183555866Y-46564571D01*
X183555866Y-46564571D02*
X183632057Y-46526476D01*
X183632057Y-46526476D02*
X183670152Y-46488381D01*
X183670152Y-46488381D02*
X183708247Y-46412190D01*
X183708247Y-46412190D02*
X183708247Y-46145524D01*
X183327295Y-46869333D02*
X183327295Y-47364571D01*
X183327295Y-47364571D02*
X183632057Y-47097905D01*
X183632057Y-47097905D02*
X183632057Y-47212190D01*
X183632057Y-47212190D02*
X183670152Y-47288381D01*
X183670152Y-47288381D02*
X183708247Y-47326476D01*
X183708247Y-47326476D02*
X183784438Y-47364571D01*
X183784438Y-47364571D02*
X183974914Y-47364571D01*
X183974914Y-47364571D02*
X184051104Y-47326476D01*
X184051104Y-47326476D02*
X184089200Y-47288381D01*
X184089200Y-47288381D02*
X184127295Y-47212190D01*
X184127295Y-47212190D02*
X184127295Y-46983619D01*
X184127295Y-46983619D02*
X184089200Y-46907428D01*
X184089200Y-46907428D02*
X184051104Y-46869333D01*
X196408247Y-46469333D02*
X196408247Y-46202667D01*
X196827295Y-46202667D02*
X196027295Y-46202667D01*
X196027295Y-46202667D02*
X196027295Y-46583619D01*
X196293961Y-47231238D02*
X196827295Y-47231238D01*
X195989200Y-47040762D02*
X196560628Y-46850285D01*
X196560628Y-46850285D02*
X196560628Y-47345524D01*
X183708247Y-35261619D02*
X183708247Y-35528285D01*
X184127295Y-35642571D02*
X184127295Y-35261619D01*
X184127295Y-35261619D02*
X183327295Y-35261619D01*
X183327295Y-35261619D02*
X183327295Y-35642571D01*
X183327295Y-36328286D02*
X183327295Y-36175905D01*
X183327295Y-36175905D02*
X183365390Y-36099714D01*
X183365390Y-36099714D02*
X183403485Y-36061619D01*
X183403485Y-36061619D02*
X183517771Y-35985429D01*
X183517771Y-35985429D02*
X183670152Y-35947333D01*
X183670152Y-35947333D02*
X183974914Y-35947333D01*
X183974914Y-35947333D02*
X184051104Y-35985429D01*
X184051104Y-35985429D02*
X184089200Y-36023524D01*
X184089200Y-36023524D02*
X184127295Y-36099714D01*
X184127295Y-36099714D02*
X184127295Y-36252095D01*
X184127295Y-36252095D02*
X184089200Y-36328286D01*
X184089200Y-36328286D02*
X184051104Y-36366381D01*
X184051104Y-36366381D02*
X183974914Y-36404476D01*
X183974914Y-36404476D02*
X183784438Y-36404476D01*
X183784438Y-36404476D02*
X183708247Y-36366381D01*
X183708247Y-36366381D02*
X183670152Y-36328286D01*
X183670152Y-36328286D02*
X183632057Y-36252095D01*
X183632057Y-36252095D02*
X183632057Y-36099714D01*
X183632057Y-36099714D02*
X183670152Y-36023524D01*
X183670152Y-36023524D02*
X183708247Y-35985429D01*
X183708247Y-35985429D02*
X183784438Y-35947333D01*
X201145390Y-35204476D02*
X201107295Y-35128286D01*
X201107295Y-35128286D02*
X201107295Y-35014000D01*
X201107295Y-35014000D02*
X201145390Y-34899714D01*
X201145390Y-34899714D02*
X201221580Y-34823524D01*
X201221580Y-34823524D02*
X201297771Y-34785429D01*
X201297771Y-34785429D02*
X201450152Y-34747333D01*
X201450152Y-34747333D02*
X201564438Y-34747333D01*
X201564438Y-34747333D02*
X201716819Y-34785429D01*
X201716819Y-34785429D02*
X201793009Y-34823524D01*
X201793009Y-34823524D02*
X201869200Y-34899714D01*
X201869200Y-34899714D02*
X201907295Y-35014000D01*
X201907295Y-35014000D02*
X201907295Y-35090191D01*
X201907295Y-35090191D02*
X201869200Y-35204476D01*
X201869200Y-35204476D02*
X201831104Y-35242572D01*
X201831104Y-35242572D02*
X201564438Y-35242572D01*
X201564438Y-35242572D02*
X201564438Y-35090191D01*
X201907295Y-35585429D02*
X201107295Y-35585429D01*
X201107295Y-35585429D02*
X201907295Y-36042572D01*
X201907295Y-36042572D02*
X201107295Y-36042572D01*
X201907295Y-36423524D02*
X201107295Y-36423524D01*
X201107295Y-36423524D02*
X201107295Y-36614000D01*
X201107295Y-36614000D02*
X201145390Y-36728286D01*
X201145390Y-36728286D02*
X201221580Y-36804476D01*
X201221580Y-36804476D02*
X201297771Y-36842571D01*
X201297771Y-36842571D02*
X201450152Y-36880667D01*
X201450152Y-36880667D02*
X201564438Y-36880667D01*
X201564438Y-36880667D02*
X201716819Y-36842571D01*
X201716819Y-36842571D02*
X201793009Y-36804476D01*
X201793009Y-36804476D02*
X201869200Y-36728286D01*
X201869200Y-36728286D02*
X201907295Y-36614000D01*
X201907295Y-36614000D02*
X201907295Y-36423524D01*
X201889200Y-45781666D02*
X201927295Y-45895952D01*
X201927295Y-45895952D02*
X201927295Y-46086428D01*
X201927295Y-46086428D02*
X201889200Y-46162619D01*
X201889200Y-46162619D02*
X201851104Y-46200714D01*
X201851104Y-46200714D02*
X201774914Y-46238809D01*
X201774914Y-46238809D02*
X201698723Y-46238809D01*
X201698723Y-46238809D02*
X201622533Y-46200714D01*
X201622533Y-46200714D02*
X201584438Y-46162619D01*
X201584438Y-46162619D02*
X201546342Y-46086428D01*
X201546342Y-46086428D02*
X201508247Y-45934047D01*
X201508247Y-45934047D02*
X201470152Y-45857857D01*
X201470152Y-45857857D02*
X201432057Y-45819762D01*
X201432057Y-45819762D02*
X201355866Y-45781666D01*
X201355866Y-45781666D02*
X201279676Y-45781666D01*
X201279676Y-45781666D02*
X201203485Y-45819762D01*
X201203485Y-45819762D02*
X201165390Y-45857857D01*
X201165390Y-45857857D02*
X201127295Y-45934047D01*
X201127295Y-45934047D02*
X201127295Y-46124524D01*
X201127295Y-46124524D02*
X201165390Y-46238809D01*
X201127295Y-46467381D02*
X201127295Y-46924524D01*
X201927295Y-46695952D02*
X201127295Y-46695952D01*
X198567295Y-45669333D02*
X199367295Y-45936000D01*
X199367295Y-45936000D02*
X198567295Y-46202666D01*
X199291104Y-46926476D02*
X199329200Y-46888380D01*
X199329200Y-46888380D02*
X199367295Y-46774095D01*
X199367295Y-46774095D02*
X199367295Y-46697904D01*
X199367295Y-46697904D02*
X199329200Y-46583618D01*
X199329200Y-46583618D02*
X199253009Y-46507428D01*
X199253009Y-46507428D02*
X199176819Y-46469333D01*
X199176819Y-46469333D02*
X199024438Y-46431237D01*
X199024438Y-46431237D02*
X198910152Y-46431237D01*
X198910152Y-46431237D02*
X198757771Y-46469333D01*
X198757771Y-46469333D02*
X198681580Y-46507428D01*
X198681580Y-46507428D02*
X198605390Y-46583618D01*
X198605390Y-46583618D02*
X198567295Y-46697904D01*
X198567295Y-46697904D02*
X198567295Y-46774095D01*
X198567295Y-46774095D02*
X198605390Y-46888380D01*
X198605390Y-46888380D02*
X198643485Y-46926476D01*
X199291104Y-47726476D02*
X199329200Y-47688380D01*
X199329200Y-47688380D02*
X199367295Y-47574095D01*
X199367295Y-47574095D02*
X199367295Y-47497904D01*
X199367295Y-47497904D02*
X199329200Y-47383618D01*
X199329200Y-47383618D02*
X199253009Y-47307428D01*
X199253009Y-47307428D02*
X199176819Y-47269333D01*
X199176819Y-47269333D02*
X199024438Y-47231237D01*
X199024438Y-47231237D02*
X198910152Y-47231237D01*
X198910152Y-47231237D02*
X198757771Y-47269333D01*
X198757771Y-47269333D02*
X198681580Y-47307428D01*
X198681580Y-47307428D02*
X198605390Y-47383618D01*
X198605390Y-47383618D02*
X198567295Y-47497904D01*
X198567295Y-47497904D02*
X198567295Y-47574095D01*
X198567295Y-47574095D02*
X198605390Y-47688380D01*
X198605390Y-47688380D02*
X198643485Y-47726476D01*
X178628247Y-46412190D02*
X178666342Y-46526476D01*
X178666342Y-46526476D02*
X178704438Y-46564571D01*
X178704438Y-46564571D02*
X178780628Y-46602667D01*
X178780628Y-46602667D02*
X178894914Y-46602667D01*
X178894914Y-46602667D02*
X178971104Y-46564571D01*
X178971104Y-46564571D02*
X179009200Y-46526476D01*
X179009200Y-46526476D02*
X179047295Y-46450286D01*
X179047295Y-46450286D02*
X179047295Y-46145524D01*
X179047295Y-46145524D02*
X178247295Y-46145524D01*
X178247295Y-46145524D02*
X178247295Y-46412190D01*
X178247295Y-46412190D02*
X178285390Y-46488381D01*
X178285390Y-46488381D02*
X178323485Y-46526476D01*
X178323485Y-46526476D02*
X178399676Y-46564571D01*
X178399676Y-46564571D02*
X178475866Y-46564571D01*
X178475866Y-46564571D02*
X178552057Y-46526476D01*
X178552057Y-46526476D02*
X178590152Y-46488381D01*
X178590152Y-46488381D02*
X178628247Y-46412190D01*
X178628247Y-46412190D02*
X178628247Y-46145524D01*
X178247295Y-47288381D02*
X178247295Y-47136000D01*
X178247295Y-47136000D02*
X178285390Y-47059809D01*
X178285390Y-47059809D02*
X178323485Y-47021714D01*
X178323485Y-47021714D02*
X178437771Y-46945524D01*
X178437771Y-46945524D02*
X178590152Y-46907428D01*
X178590152Y-46907428D02*
X178894914Y-46907428D01*
X178894914Y-46907428D02*
X178971104Y-46945524D01*
X178971104Y-46945524D02*
X179009200Y-46983619D01*
X179009200Y-46983619D02*
X179047295Y-47059809D01*
X179047295Y-47059809D02*
X179047295Y-47212190D01*
X179047295Y-47212190D02*
X179009200Y-47288381D01*
X179009200Y-47288381D02*
X178971104Y-47326476D01*
X178971104Y-47326476D02*
X178894914Y-47364571D01*
X178894914Y-47364571D02*
X178704438Y-47364571D01*
X178704438Y-47364571D02*
X178628247Y-47326476D01*
X178628247Y-47326476D02*
X178590152Y-47288381D01*
X178590152Y-47288381D02*
X178552057Y-47212190D01*
X178552057Y-47212190D02*
X178552057Y-47059809D01*
X178552057Y-47059809D02*
X178590152Y-46983619D01*
X178590152Y-46983619D02*
X178628247Y-46945524D01*
X178628247Y-46945524D02*
X178704438Y-46907428D01*
X203685390Y-46126476D02*
X203647295Y-46050286D01*
X203647295Y-46050286D02*
X203647295Y-45936000D01*
X203647295Y-45936000D02*
X203685390Y-45821714D01*
X203685390Y-45821714D02*
X203761580Y-45745524D01*
X203761580Y-45745524D02*
X203837771Y-45707429D01*
X203837771Y-45707429D02*
X203990152Y-45669333D01*
X203990152Y-45669333D02*
X204104438Y-45669333D01*
X204104438Y-45669333D02*
X204256819Y-45707429D01*
X204256819Y-45707429D02*
X204333009Y-45745524D01*
X204333009Y-45745524D02*
X204409200Y-45821714D01*
X204409200Y-45821714D02*
X204447295Y-45936000D01*
X204447295Y-45936000D02*
X204447295Y-46012191D01*
X204447295Y-46012191D02*
X204409200Y-46126476D01*
X204409200Y-46126476D02*
X204371104Y-46164572D01*
X204371104Y-46164572D02*
X204104438Y-46164572D01*
X204104438Y-46164572D02*
X204104438Y-46012191D01*
X204447295Y-46507429D02*
X203647295Y-46507429D01*
X203647295Y-46507429D02*
X204447295Y-46964572D01*
X204447295Y-46964572D02*
X203647295Y-46964572D01*
X204447295Y-47345524D02*
X203647295Y-47345524D01*
X203647295Y-47345524D02*
X203647295Y-47536000D01*
X203647295Y-47536000D02*
X203685390Y-47650286D01*
X203685390Y-47650286D02*
X203761580Y-47726476D01*
X203761580Y-47726476D02*
X203837771Y-47764571D01*
X203837771Y-47764571D02*
X203990152Y-47802667D01*
X203990152Y-47802667D02*
X204104438Y-47802667D01*
X204104438Y-47802667D02*
X204256819Y-47764571D01*
X204256819Y-47764571D02*
X204333009Y-47726476D01*
X204333009Y-47726476D02*
X204409200Y-47650286D01*
X204409200Y-47650286D02*
X204447295Y-47536000D01*
X204447295Y-47536000D02*
X204447295Y-47345524D01*
X189131104Y-35680667D02*
X189169200Y-35642571D01*
X189169200Y-35642571D02*
X189207295Y-35528286D01*
X189207295Y-35528286D02*
X189207295Y-35452095D01*
X189207295Y-35452095D02*
X189169200Y-35337809D01*
X189169200Y-35337809D02*
X189093009Y-35261619D01*
X189093009Y-35261619D02*
X189016819Y-35223524D01*
X189016819Y-35223524D02*
X188864438Y-35185428D01*
X188864438Y-35185428D02*
X188750152Y-35185428D01*
X188750152Y-35185428D02*
X188597771Y-35223524D01*
X188597771Y-35223524D02*
X188521580Y-35261619D01*
X188521580Y-35261619D02*
X188445390Y-35337809D01*
X188445390Y-35337809D02*
X188407295Y-35452095D01*
X188407295Y-35452095D02*
X188407295Y-35528286D01*
X188407295Y-35528286D02*
X188445390Y-35642571D01*
X188445390Y-35642571D02*
X188483485Y-35680667D01*
X188407295Y-36366381D02*
X188407295Y-36214000D01*
X188407295Y-36214000D02*
X188445390Y-36137809D01*
X188445390Y-36137809D02*
X188483485Y-36099714D01*
X188483485Y-36099714D02*
X188597771Y-36023524D01*
X188597771Y-36023524D02*
X188750152Y-35985428D01*
X188750152Y-35985428D02*
X189054914Y-35985428D01*
X189054914Y-35985428D02*
X189131104Y-36023524D01*
X189131104Y-36023524D02*
X189169200Y-36061619D01*
X189169200Y-36061619D02*
X189207295Y-36137809D01*
X189207295Y-36137809D02*
X189207295Y-36290190D01*
X189207295Y-36290190D02*
X189169200Y-36366381D01*
X189169200Y-36366381D02*
X189131104Y-36404476D01*
X189131104Y-36404476D02*
X189054914Y-36442571D01*
X189054914Y-36442571D02*
X188864438Y-36442571D01*
X188864438Y-36442571D02*
X188788247Y-36404476D01*
X188788247Y-36404476D02*
X188750152Y-36366381D01*
X188750152Y-36366381D02*
X188712057Y-36290190D01*
X188712057Y-36290190D02*
X188712057Y-36137809D01*
X188712057Y-36137809D02*
X188750152Y-36061619D01*
X188750152Y-36061619D02*
X188788247Y-36023524D01*
X188788247Y-36023524D02*
X188864438Y-35985428D01*
X186248247Y-46412190D02*
X186286342Y-46526476D01*
X186286342Y-46526476D02*
X186324438Y-46564571D01*
X186324438Y-46564571D02*
X186400628Y-46602667D01*
X186400628Y-46602667D02*
X186514914Y-46602667D01*
X186514914Y-46602667D02*
X186591104Y-46564571D01*
X186591104Y-46564571D02*
X186629200Y-46526476D01*
X186629200Y-46526476D02*
X186667295Y-46450286D01*
X186667295Y-46450286D02*
X186667295Y-46145524D01*
X186667295Y-46145524D02*
X185867295Y-46145524D01*
X185867295Y-46145524D02*
X185867295Y-46412190D01*
X185867295Y-46412190D02*
X185905390Y-46488381D01*
X185905390Y-46488381D02*
X185943485Y-46526476D01*
X185943485Y-46526476D02*
X186019676Y-46564571D01*
X186019676Y-46564571D02*
X186095866Y-46564571D01*
X186095866Y-46564571D02*
X186172057Y-46526476D01*
X186172057Y-46526476D02*
X186210152Y-46488381D01*
X186210152Y-46488381D02*
X186248247Y-46412190D01*
X186248247Y-46412190D02*
X186248247Y-46145524D01*
X186667295Y-47364571D02*
X186667295Y-46907428D01*
X186667295Y-47136000D02*
X185867295Y-47136000D01*
X185867295Y-47136000D02*
X185981580Y-47059809D01*
X185981580Y-47059809D02*
X186057771Y-46983619D01*
X186057771Y-46983619D02*
X186095866Y-46907428D01*
X191328247Y-46469333D02*
X191328247Y-46202667D01*
X191747295Y-46202667D02*
X190947295Y-46202667D01*
X190947295Y-46202667D02*
X190947295Y-46583619D01*
X190947295Y-47231238D02*
X190947295Y-47078857D01*
X190947295Y-47078857D02*
X190985390Y-47002666D01*
X190985390Y-47002666D02*
X191023485Y-46964571D01*
X191023485Y-46964571D02*
X191137771Y-46888381D01*
X191137771Y-46888381D02*
X191290152Y-46850285D01*
X191290152Y-46850285D02*
X191594914Y-46850285D01*
X191594914Y-46850285D02*
X191671104Y-46888381D01*
X191671104Y-46888381D02*
X191709200Y-46926476D01*
X191709200Y-46926476D02*
X191747295Y-47002666D01*
X191747295Y-47002666D02*
X191747295Y-47155047D01*
X191747295Y-47155047D02*
X191709200Y-47231238D01*
X191709200Y-47231238D02*
X191671104Y-47269333D01*
X191671104Y-47269333D02*
X191594914Y-47307428D01*
X191594914Y-47307428D02*
X191404438Y-47307428D01*
X191404438Y-47307428D02*
X191328247Y-47269333D01*
X191328247Y-47269333D02*
X191290152Y-47231238D01*
X191290152Y-47231238D02*
X191252057Y-47155047D01*
X191252057Y-47155047D02*
X191252057Y-47002666D01*
X191252057Y-47002666D02*
X191290152Y-46926476D01*
X191290152Y-46926476D02*
X191328247Y-46888381D01*
X191328247Y-46888381D02*
X191404438Y-46850285D01*
X191747295Y-35223524D02*
X190947295Y-35223524D01*
X190947295Y-35223524D02*
X190947295Y-35414000D01*
X190947295Y-35414000D02*
X190985390Y-35528286D01*
X190985390Y-35528286D02*
X191061580Y-35604476D01*
X191061580Y-35604476D02*
X191137771Y-35642571D01*
X191137771Y-35642571D02*
X191290152Y-35680667D01*
X191290152Y-35680667D02*
X191404438Y-35680667D01*
X191404438Y-35680667D02*
X191556819Y-35642571D01*
X191556819Y-35642571D02*
X191633009Y-35604476D01*
X191633009Y-35604476D02*
X191709200Y-35528286D01*
X191709200Y-35528286D02*
X191747295Y-35414000D01*
X191747295Y-35414000D02*
X191747295Y-35223524D01*
X191213961Y-36366381D02*
X191747295Y-36366381D01*
X190909200Y-36175905D02*
X191480628Y-35985428D01*
X191480628Y-35985428D02*
X191480628Y-36480667D01*
X181168247Y-46412190D02*
X181206342Y-46526476D01*
X181206342Y-46526476D02*
X181244438Y-46564571D01*
X181244438Y-46564571D02*
X181320628Y-46602667D01*
X181320628Y-46602667D02*
X181434914Y-46602667D01*
X181434914Y-46602667D02*
X181511104Y-46564571D01*
X181511104Y-46564571D02*
X181549200Y-46526476D01*
X181549200Y-46526476D02*
X181587295Y-46450286D01*
X181587295Y-46450286D02*
X181587295Y-46145524D01*
X181587295Y-46145524D02*
X180787295Y-46145524D01*
X180787295Y-46145524D02*
X180787295Y-46412190D01*
X180787295Y-46412190D02*
X180825390Y-46488381D01*
X180825390Y-46488381D02*
X180863485Y-46526476D01*
X180863485Y-46526476D02*
X180939676Y-46564571D01*
X180939676Y-46564571D02*
X181015866Y-46564571D01*
X181015866Y-46564571D02*
X181092057Y-46526476D01*
X181092057Y-46526476D02*
X181130152Y-46488381D01*
X181130152Y-46488381D02*
X181168247Y-46412190D01*
X181168247Y-46412190D02*
X181168247Y-46145524D01*
X180863485Y-46907428D02*
X180825390Y-46945524D01*
X180825390Y-46945524D02*
X180787295Y-47021714D01*
X180787295Y-47021714D02*
X180787295Y-47212190D01*
X180787295Y-47212190D02*
X180825390Y-47288381D01*
X180825390Y-47288381D02*
X180863485Y-47326476D01*
X180863485Y-47326476D02*
X180939676Y-47364571D01*
X180939676Y-47364571D02*
X181015866Y-47364571D01*
X181015866Y-47364571D02*
X181130152Y-47326476D01*
X181130152Y-47326476D02*
X181587295Y-46869333D01*
X181587295Y-46869333D02*
X181587295Y-47364571D01*
X188788247Y-46469333D02*
X188788247Y-46202667D01*
X189207295Y-46202667D02*
X188407295Y-46202667D01*
X188407295Y-46202667D02*
X188407295Y-46583619D01*
X188407295Y-46812190D02*
X188407295Y-47345524D01*
X188407295Y-47345524D02*
X189207295Y-47002666D01*
X206987295Y-46183619D02*
X206606342Y-45916952D01*
X206987295Y-45726476D02*
X206187295Y-45726476D01*
X206187295Y-45726476D02*
X206187295Y-46031238D01*
X206187295Y-46031238D02*
X206225390Y-46107428D01*
X206225390Y-46107428D02*
X206263485Y-46145523D01*
X206263485Y-46145523D02*
X206339676Y-46183619D01*
X206339676Y-46183619D02*
X206453961Y-46183619D01*
X206453961Y-46183619D02*
X206530152Y-46145523D01*
X206530152Y-46145523D02*
X206568247Y-46107428D01*
X206568247Y-46107428D02*
X206606342Y-46031238D01*
X206606342Y-46031238D02*
X206606342Y-45726476D01*
X206758723Y-46488380D02*
X206758723Y-46869333D01*
X206987295Y-46412190D02*
X206187295Y-46678857D01*
X206187295Y-46678857D02*
X206987295Y-46945523D01*
X206187295Y-47135999D02*
X206987295Y-47326475D01*
X206987295Y-47326475D02*
X206415866Y-47478856D01*
X206415866Y-47478856D02*
X206987295Y-47631237D01*
X206987295Y-47631237D02*
X206187295Y-47821714D01*
D11*
G04 #@! TO.C,U1*
X177415000Y-32385000D02*
X177415000Y-50165000D01*
X177415000Y-50165000D02*
X210435000Y-50165000D01*
X205355000Y-34925000D02*
X205355000Y-32385000D01*
X207895000Y-34925000D02*
X205355000Y-34925000D01*
X207895000Y-34925000D02*
X207895000Y-32385000D01*
X210435000Y-32385000D02*
X177415000Y-32385000D01*
X210435000Y-50165000D02*
X210435000Y-32385000D01*
D10*
X201405970Y-47219635D02*
X201205970Y-47219635D01*
X201205970Y-47119635D01*
X201405970Y-47119635D01*
X201405970Y-47219635D01*
G36*
X201405970Y-47219635D02*
G01*
X201205970Y-47219635D01*
X201205970Y-47119635D01*
X201405970Y-47119635D01*
X201405970Y-47219635D01*
G37*
X201605970Y-47419635D02*
X201505970Y-47419635D01*
X201505970Y-47319635D01*
X201605970Y-47319635D01*
X201605970Y-47419635D01*
G36*
X201605970Y-47419635D02*
G01*
X201505970Y-47419635D01*
X201505970Y-47319635D01*
X201605970Y-47319635D01*
X201605970Y-47419635D01*
G37*
X202005970Y-47219635D02*
X201705970Y-47219635D01*
X201705970Y-47119635D01*
X202005970Y-47119635D01*
X202005970Y-47219635D01*
G36*
X202005970Y-47219635D02*
G01*
X201705970Y-47219635D01*
X201705970Y-47119635D01*
X202005970Y-47119635D01*
X202005970Y-47219635D01*
G37*
X202005970Y-47619635D02*
X201905970Y-47619635D01*
X201905970Y-47119635D01*
X202005970Y-47119635D01*
X202005970Y-47619635D01*
G36*
X202005970Y-47619635D02*
G01*
X201905970Y-47619635D01*
X201905970Y-47119635D01*
X202005970Y-47119635D01*
X202005970Y-47619635D01*
G37*
X202005970Y-47619635D02*
X201205970Y-47619635D01*
X201205970Y-47519635D01*
X202005970Y-47519635D01*
X202005970Y-47619635D01*
G36*
X202005970Y-47619635D02*
G01*
X201205970Y-47619635D01*
X201205970Y-47519635D01*
X202005970Y-47519635D01*
X202005970Y-47619635D01*
G37*
G04 #@! TD*
D12*
G04 #@! TO.C,U1*
X206625000Y-33655000D03*
D13*
X204085000Y-33655000D03*
X201545000Y-33655000D03*
X199005000Y-33655000D03*
X196465000Y-33655000D03*
X193925000Y-33655000D03*
X191385000Y-33655000D03*
X188845000Y-33655000D03*
X186305000Y-33655000D03*
X183765000Y-33655000D03*
X181225000Y-33655000D03*
X178685000Y-33655000D03*
X178685000Y-48895000D03*
X181225000Y-48895000D03*
X183765000Y-48895000D03*
X186305000Y-48895000D03*
X188845000Y-48895000D03*
X191385000Y-48895000D03*
X193925000Y-48895000D03*
X196465000Y-48895000D03*
X199005000Y-48895000D03*
X201545000Y-48895000D03*
X204085000Y-48895000D03*
X206625000Y-48895000D03*
G04 #@! TD*
%LPC*%
D14*
G04 #@! TO.C,D4*
X210435000Y-63500000D03*
D15*
X210435000Y-55880000D03*
G04 #@! TD*
D14*
G04 #@! TO.C,D9*
X153285000Y-101600000D03*
D15*
X153285000Y-93980000D03*
G04 #@! TD*
D16*
G04 #@! TO.C,S4*
X195830000Y-59690000D03*
D17*
X200910000Y-59690000D03*
D16*
X205990000Y-59690000D03*
D18*
X197100000Y-57150000D03*
X203450000Y-54610000D03*
G04 #@! TD*
D12*
G04 #@! TO.C,U1*
X206625000Y-33655000D03*
D13*
X204085000Y-33655000D03*
X201545000Y-33655000D03*
X199005000Y-33655000D03*
X196465000Y-33655000D03*
X193925000Y-33655000D03*
X191385000Y-33655000D03*
X188845000Y-33655000D03*
X186305000Y-33655000D03*
X183765000Y-33655000D03*
X181225000Y-33655000D03*
X178685000Y-33655000D03*
X178685000Y-48895000D03*
X181225000Y-48895000D03*
X183765000Y-48895000D03*
X186305000Y-48895000D03*
X188845000Y-48895000D03*
X191385000Y-48895000D03*
X193925000Y-48895000D03*
X196465000Y-48895000D03*
X199005000Y-48895000D03*
X201545000Y-48895000D03*
X204085000Y-48895000D03*
X206625000Y-48895000D03*
G04 #@! TD*
D14*
G04 #@! TO.C,D10*
X172335000Y-101600000D03*
D15*
X172335000Y-93980000D03*
G04 #@! TD*
D16*
G04 #@! TO.C,S9*
X138680000Y-97790000D03*
D17*
X143760000Y-97790000D03*
D16*
X148840000Y-97790000D03*
D18*
X139950000Y-95250000D03*
X146300000Y-92710000D03*
G04 #@! TD*
D16*
G04 #@! TO.C,S2*
X157730000Y-59690000D03*
D17*
X162810000Y-59690000D03*
D16*
X167890000Y-59690000D03*
D18*
X159000000Y-57150000D03*
X165350000Y-54610000D03*
G04 #@! TD*
D14*
G04 #@! TO.C,D5*
X153285000Y-82550000D03*
D15*
X153285000Y-74930000D03*
G04 #@! TD*
D16*
G04 #@! TO.C,S10*
X157730000Y-97790000D03*
D17*
X162810000Y-97790000D03*
D16*
X167890000Y-97790000D03*
D18*
X159000000Y-95250000D03*
X165350000Y-92710000D03*
G04 #@! TD*
D14*
G04 #@! TO.C,D8*
X210435000Y-82550000D03*
D15*
X210435000Y-74930000D03*
G04 #@! TD*
D16*
G04 #@! TO.C,S1*
X138680000Y-59690000D03*
D17*
X143760000Y-59690000D03*
D16*
X148840000Y-59690000D03*
D18*
X139950000Y-57150000D03*
X146300000Y-54610000D03*
G04 #@! TD*
D16*
G04 #@! TO.C,S3*
X176780000Y-59690000D03*
D17*
X181860000Y-59690000D03*
D16*
X186940000Y-59690000D03*
D18*
X178050000Y-57150000D03*
X184400000Y-54610000D03*
G04 #@! TD*
D19*
G04 #@! TO.C,SW1*
X136260000Y-38140000D03*
D20*
X136260000Y-43140000D03*
X136260000Y-40640000D03*
D21*
X143760000Y-35040000D03*
X143760000Y-46240000D03*
D20*
X150760000Y-43140000D03*
X150760000Y-38140000D03*
G04 #@! TD*
D14*
G04 #@! TO.C,D11*
X191385000Y-101600000D03*
D15*
X191385000Y-93980000D03*
G04 #@! TD*
D14*
G04 #@! TO.C,D6*
X172335000Y-82550000D03*
D15*
X172335000Y-74930000D03*
G04 #@! TD*
D14*
G04 #@! TO.C,D3*
X191385000Y-63500000D03*
D15*
X191385000Y-55880000D03*
G04 #@! TD*
D14*
G04 #@! TO.C,D7*
X191385000Y-82550000D03*
D15*
X191385000Y-74930000D03*
G04 #@! TD*
D16*
G04 #@! TO.C,S11*
X176780000Y-97790000D03*
D17*
X181860000Y-97790000D03*
D16*
X186940000Y-97790000D03*
D18*
X178050000Y-95250000D03*
X184400000Y-92710000D03*
G04 #@! TD*
D16*
G04 #@! TO.C,S6*
X157730000Y-78740000D03*
D17*
X162810000Y-78740000D03*
D16*
X167890000Y-78740000D03*
D18*
X159000000Y-76200000D03*
X165350000Y-73660000D03*
G04 #@! TD*
D16*
G04 #@! TO.C,S5*
X138680000Y-78740000D03*
D17*
X143760000Y-78740000D03*
D16*
X148840000Y-78740000D03*
D18*
X139950000Y-76200000D03*
X146300000Y-73660000D03*
G04 #@! TD*
D14*
G04 #@! TO.C,D12*
X210435000Y-101600000D03*
D15*
X210435000Y-93980000D03*
G04 #@! TD*
D14*
G04 #@! TO.C,D1*
X153285000Y-63500000D03*
D15*
X153285000Y-55880000D03*
G04 #@! TD*
D14*
G04 #@! TO.C,D2*
X172335000Y-63500000D03*
D15*
X172335000Y-55880000D03*
G04 #@! TD*
D16*
G04 #@! TO.C,S12*
X195830000Y-97790000D03*
D17*
X200910000Y-97790000D03*
D16*
X205990000Y-97790000D03*
D18*
X197100000Y-95250000D03*
X203450000Y-92710000D03*
G04 #@! TD*
D16*
G04 #@! TO.C,S8*
X195830000Y-78740000D03*
D17*
X200910000Y-78740000D03*
D16*
X205990000Y-78740000D03*
D18*
X197100000Y-76200000D03*
X203450000Y-73660000D03*
G04 #@! TD*
D16*
G04 #@! TO.C,S7*
X176780000Y-78740000D03*
D17*
X181860000Y-78740000D03*
D16*
X186940000Y-78740000D03*
D18*
X178050000Y-76200000D03*
X184400000Y-73660000D03*
G04 #@! TD*
%LPD*%
M02*
