M48
; DRILL file {KiCad 8.0.8} date 2025-02-10T09:22:13+0100
; FORMAT={-:-/ absolute / metric / decimal}
; #@! TF.CreationDate,2025-02-10T09:22:13+01:00
; #@! TF.GenerationSoftware,Kicad,Pcbnew,8.0.8
; #@! TF.FileFunction,NonPlated,1,2,NPTH
FMAT,2
METRIC
; #@! TA.AperFunction,NonPlated,NPTH,ComponentDrill
T1C1.750
; #@! TA.AperFunction,NonPlated,NPTH,ComponentDrill
T2C4.000
%
G90
G05
T1
X138.68Y-59.69
X138.68Y-78.74
X138.68Y-97.79
X148.84Y-59.69
X148.84Y-78.74
X148.84Y-97.79
X157.73Y-59.69
X157.73Y-78.74
X157.73Y-97.79
X167.89Y-59.69
X167.89Y-78.74
X167.89Y-97.79
X176.78Y-59.69
X176.78Y-78.74
X176.78Y-97.79
X186.94Y-59.69
X186.94Y-78.74
X186.94Y-97.79
X195.83Y-59.69
X195.83Y-78.74
X195.83Y-97.79
X205.99Y-59.69
X205.99Y-78.74
X205.99Y-97.79
T2
X143.76Y-59.69
X143.76Y-78.74
X143.76Y-97.79
X162.81Y-59.69
X162.81Y-78.74
X162.81Y-97.79
X181.86Y-59.69
X181.86Y-78.74
X181.86Y-97.79
X200.91Y-59.69
X200.91Y-78.74
X200.91Y-97.79
M30
