G04 #@! TF.GenerationSoftware,KiCad,Pcbnew,8.0.8*
G04 #@! TF.CreationDate,2025-02-10T09:22:13+01:00*
G04 #@! TF.ProjectId,better,62657474-6572-42e6-9b69-6361645f7063,rev?*
G04 #@! TF.SameCoordinates,Original*
G04 #@! TF.FileFunction,Legend,Top*
G04 #@! TF.FilePolarity,Positive*
%FSLAX46Y46*%
G04 Gerber Fmt 4.6, Leading zero omitted, Abs format (unit mm)*
G04 Created by KiCad (PCBNEW 8.0.8) date 2025-02-10 09:22:13*
%MOMM*%
%LPD*%
G01*
G04 APERTURE LIST*
%ADD10C,0.150000*%
%ADD11C,0.100000*%
%ADD12C,0.120000*%
%ADD13C,0.200000*%
%ADD14R,1.752600X1.752600*%
%ADD15C,1.752600*%
%ADD16R,1.600000X1.600000*%
%ADD17O,1.600000X1.600000*%
%ADD18C,1.750000*%
%ADD19C,4.000000*%
%ADD20C,2.500000*%
%ADD21R,2.000000X2.000000*%
%ADD22C,2.000000*%
%ADD23R,3.200000X2.000000*%
G04 APERTURE END LIST*
D10*
X200148095Y-52097200D02*
X200290952Y-52144819D01*
X200290952Y-52144819D02*
X200529047Y-52144819D01*
X200529047Y-52144819D02*
X200624285Y-52097200D01*
X200624285Y-52097200D02*
X200671904Y-52049580D01*
X200671904Y-52049580D02*
X200719523Y-51954342D01*
X200719523Y-51954342D02*
X200719523Y-51859104D01*
X200719523Y-51859104D02*
X200671904Y-51763866D01*
X200671904Y-51763866D02*
X200624285Y-51716247D01*
X200624285Y-51716247D02*
X200529047Y-51668628D01*
X200529047Y-51668628D02*
X200338571Y-51621009D01*
X200338571Y-51621009D02*
X200243333Y-51573390D01*
X200243333Y-51573390D02*
X200195714Y-51525771D01*
X200195714Y-51525771D02*
X200148095Y-51430533D01*
X200148095Y-51430533D02*
X200148095Y-51335295D01*
X200148095Y-51335295D02*
X200195714Y-51240057D01*
X200195714Y-51240057D02*
X200243333Y-51192438D01*
X200243333Y-51192438D02*
X200338571Y-51144819D01*
X200338571Y-51144819D02*
X200576666Y-51144819D01*
X200576666Y-51144819D02*
X200719523Y-51192438D01*
X201576666Y-51478152D02*
X201576666Y-52144819D01*
X201338571Y-51097200D02*
X201100476Y-51811485D01*
X201100476Y-51811485D02*
X201719523Y-51811485D01*
X183708247Y-47059809D02*
X183746342Y-46945523D01*
X183746342Y-46945523D02*
X183784438Y-46907428D01*
X183784438Y-46907428D02*
X183860628Y-46869332D01*
X183860628Y-46869332D02*
X183974914Y-46869332D01*
X183974914Y-46869332D02*
X184051104Y-46907428D01*
X184051104Y-46907428D02*
X184089200Y-46945523D01*
X184089200Y-46945523D02*
X184127295Y-47021713D01*
X184127295Y-47021713D02*
X184127295Y-47326475D01*
X184127295Y-47326475D02*
X183327295Y-47326475D01*
X183327295Y-47326475D02*
X183327295Y-47059809D01*
X183327295Y-47059809D02*
X183365390Y-46983618D01*
X183365390Y-46983618D02*
X183403485Y-46945523D01*
X183403485Y-46945523D02*
X183479676Y-46907428D01*
X183479676Y-46907428D02*
X183555866Y-46907428D01*
X183555866Y-46907428D02*
X183632057Y-46945523D01*
X183632057Y-46945523D02*
X183670152Y-46983618D01*
X183670152Y-46983618D02*
X183708247Y-47059809D01*
X183708247Y-47059809D02*
X183708247Y-47326475D01*
X183327295Y-46602666D02*
X183327295Y-46107428D01*
X183327295Y-46107428D02*
X183632057Y-46374094D01*
X183632057Y-46374094D02*
X183632057Y-46259809D01*
X183632057Y-46259809D02*
X183670152Y-46183618D01*
X183670152Y-46183618D02*
X183708247Y-46145523D01*
X183708247Y-46145523D02*
X183784438Y-46107428D01*
X183784438Y-46107428D02*
X183974914Y-46107428D01*
X183974914Y-46107428D02*
X184051104Y-46145523D01*
X184051104Y-46145523D02*
X184089200Y-46183618D01*
X184089200Y-46183618D02*
X184127295Y-46259809D01*
X184127295Y-46259809D02*
X184127295Y-46488380D01*
X184127295Y-46488380D02*
X184089200Y-46564571D01*
X184089200Y-46564571D02*
X184051104Y-46602666D01*
X193868247Y-47002666D02*
X193868247Y-47269332D01*
X194287295Y-47269332D02*
X193487295Y-47269332D01*
X193487295Y-47269332D02*
X193487295Y-46888380D01*
X193487295Y-46202666D02*
X193487295Y-46583618D01*
X193487295Y-46583618D02*
X193868247Y-46621714D01*
X193868247Y-46621714D02*
X193830152Y-46583618D01*
X193830152Y-46583618D02*
X193792057Y-46507428D01*
X193792057Y-46507428D02*
X193792057Y-46316952D01*
X193792057Y-46316952D02*
X193830152Y-46240761D01*
X193830152Y-46240761D02*
X193868247Y-46202666D01*
X193868247Y-46202666D02*
X193944438Y-46164571D01*
X193944438Y-46164571D02*
X194134914Y-46164571D01*
X194134914Y-46164571D02*
X194211104Y-46202666D01*
X194211104Y-46202666D02*
X194249200Y-46240761D01*
X194249200Y-46240761D02*
X194287295Y-46316952D01*
X194287295Y-46316952D02*
X194287295Y-46507428D01*
X194287295Y-46507428D02*
X194249200Y-46583618D01*
X194249200Y-46583618D02*
X194211104Y-46621714D01*
X181168247Y-36137809D02*
X181206342Y-36023523D01*
X181206342Y-36023523D02*
X181244438Y-35985428D01*
X181244438Y-35985428D02*
X181320628Y-35947332D01*
X181320628Y-35947332D02*
X181434914Y-35947332D01*
X181434914Y-35947332D02*
X181511104Y-35985428D01*
X181511104Y-35985428D02*
X181549200Y-36023523D01*
X181549200Y-36023523D02*
X181587295Y-36099713D01*
X181587295Y-36099713D02*
X181587295Y-36404475D01*
X181587295Y-36404475D02*
X180787295Y-36404475D01*
X180787295Y-36404475D02*
X180787295Y-36137809D01*
X180787295Y-36137809D02*
X180825390Y-36061618D01*
X180825390Y-36061618D02*
X180863485Y-36023523D01*
X180863485Y-36023523D02*
X180939676Y-35985428D01*
X180939676Y-35985428D02*
X181015866Y-35985428D01*
X181015866Y-35985428D02*
X181092057Y-36023523D01*
X181092057Y-36023523D02*
X181130152Y-36061618D01*
X181130152Y-36061618D02*
X181168247Y-36137809D01*
X181168247Y-36137809D02*
X181168247Y-36404475D01*
X181053961Y-35261618D02*
X181587295Y-35261618D01*
X180749200Y-35452094D02*
X181320628Y-35642571D01*
X181320628Y-35642571D02*
X181320628Y-35147332D01*
X178628247Y-36137809D02*
X178666342Y-36023523D01*
X178666342Y-36023523D02*
X178704438Y-35985428D01*
X178704438Y-35985428D02*
X178780628Y-35947332D01*
X178780628Y-35947332D02*
X178894914Y-35947332D01*
X178894914Y-35947332D02*
X178971104Y-35985428D01*
X178971104Y-35985428D02*
X179009200Y-36023523D01*
X179009200Y-36023523D02*
X179047295Y-36099713D01*
X179047295Y-36099713D02*
X179047295Y-36404475D01*
X179047295Y-36404475D02*
X178247295Y-36404475D01*
X178247295Y-36404475D02*
X178247295Y-36137809D01*
X178247295Y-36137809D02*
X178285390Y-36061618D01*
X178285390Y-36061618D02*
X178323485Y-36023523D01*
X178323485Y-36023523D02*
X178399676Y-35985428D01*
X178399676Y-35985428D02*
X178475866Y-35985428D01*
X178475866Y-35985428D02*
X178552057Y-36023523D01*
X178552057Y-36023523D02*
X178590152Y-36061618D01*
X178590152Y-36061618D02*
X178628247Y-36137809D01*
X178628247Y-36137809D02*
X178628247Y-36404475D01*
X178247295Y-35223523D02*
X178247295Y-35604475D01*
X178247295Y-35604475D02*
X178628247Y-35642571D01*
X178628247Y-35642571D02*
X178590152Y-35604475D01*
X178590152Y-35604475D02*
X178552057Y-35528285D01*
X178552057Y-35528285D02*
X178552057Y-35337809D01*
X178552057Y-35337809D02*
X178590152Y-35261618D01*
X178590152Y-35261618D02*
X178628247Y-35223523D01*
X178628247Y-35223523D02*
X178704438Y-35185428D01*
X178704438Y-35185428D02*
X178894914Y-35185428D01*
X178894914Y-35185428D02*
X178971104Y-35223523D01*
X178971104Y-35223523D02*
X179009200Y-35261618D01*
X179009200Y-35261618D02*
X179047295Y-35337809D01*
X179047295Y-35337809D02*
X179047295Y-35528285D01*
X179047295Y-35528285D02*
X179009200Y-35604475D01*
X179009200Y-35604475D02*
X178971104Y-35642571D01*
X189131104Y-35947332D02*
X189169200Y-35985428D01*
X189169200Y-35985428D02*
X189207295Y-36099713D01*
X189207295Y-36099713D02*
X189207295Y-36175904D01*
X189207295Y-36175904D02*
X189169200Y-36290190D01*
X189169200Y-36290190D02*
X189093009Y-36366380D01*
X189093009Y-36366380D02*
X189016819Y-36404475D01*
X189016819Y-36404475D02*
X188864438Y-36442571D01*
X188864438Y-36442571D02*
X188750152Y-36442571D01*
X188750152Y-36442571D02*
X188597771Y-36404475D01*
X188597771Y-36404475D02*
X188521580Y-36366380D01*
X188521580Y-36366380D02*
X188445390Y-36290190D01*
X188445390Y-36290190D02*
X188407295Y-36175904D01*
X188407295Y-36175904D02*
X188407295Y-36099713D01*
X188407295Y-36099713D02*
X188445390Y-35985428D01*
X188445390Y-35985428D02*
X188483485Y-35947332D01*
X188407295Y-35261618D02*
X188407295Y-35413999D01*
X188407295Y-35413999D02*
X188445390Y-35490190D01*
X188445390Y-35490190D02*
X188483485Y-35528285D01*
X188483485Y-35528285D02*
X188597771Y-35604475D01*
X188597771Y-35604475D02*
X188750152Y-35642571D01*
X188750152Y-35642571D02*
X189054914Y-35642571D01*
X189054914Y-35642571D02*
X189131104Y-35604475D01*
X189131104Y-35604475D02*
X189169200Y-35566380D01*
X189169200Y-35566380D02*
X189207295Y-35490190D01*
X189207295Y-35490190D02*
X189207295Y-35337809D01*
X189207295Y-35337809D02*
X189169200Y-35261618D01*
X189169200Y-35261618D02*
X189131104Y-35223523D01*
X189131104Y-35223523D02*
X189054914Y-35185428D01*
X189054914Y-35185428D02*
X188864438Y-35185428D01*
X188864438Y-35185428D02*
X188788247Y-35223523D01*
X188788247Y-35223523D02*
X188750152Y-35261618D01*
X188750152Y-35261618D02*
X188712057Y-35337809D01*
X188712057Y-35337809D02*
X188712057Y-35490190D01*
X188712057Y-35490190D02*
X188750152Y-35566380D01*
X188750152Y-35566380D02*
X188788247Y-35604475D01*
X188788247Y-35604475D02*
X188864438Y-35642571D01*
X194287295Y-36404475D02*
X193487295Y-36404475D01*
X193487295Y-36404475D02*
X193487295Y-36213999D01*
X193487295Y-36213999D02*
X193525390Y-36099713D01*
X193525390Y-36099713D02*
X193601580Y-36023523D01*
X193601580Y-36023523D02*
X193677771Y-35985428D01*
X193677771Y-35985428D02*
X193830152Y-35947332D01*
X193830152Y-35947332D02*
X193944438Y-35947332D01*
X193944438Y-35947332D02*
X194096819Y-35985428D01*
X194096819Y-35985428D02*
X194173009Y-36023523D01*
X194173009Y-36023523D02*
X194249200Y-36099713D01*
X194249200Y-36099713D02*
X194287295Y-36213999D01*
X194287295Y-36213999D02*
X194287295Y-36404475D01*
X193487295Y-35452094D02*
X193487295Y-35375904D01*
X193487295Y-35375904D02*
X193525390Y-35299713D01*
X193525390Y-35299713D02*
X193563485Y-35261618D01*
X193563485Y-35261618D02*
X193639676Y-35223523D01*
X193639676Y-35223523D02*
X193792057Y-35185428D01*
X193792057Y-35185428D02*
X193982533Y-35185428D01*
X193982533Y-35185428D02*
X194134914Y-35223523D01*
X194134914Y-35223523D02*
X194211104Y-35261618D01*
X194211104Y-35261618D02*
X194249200Y-35299713D01*
X194249200Y-35299713D02*
X194287295Y-35375904D01*
X194287295Y-35375904D02*
X194287295Y-35452094D01*
X194287295Y-35452094D02*
X194249200Y-35528285D01*
X194249200Y-35528285D02*
X194211104Y-35566380D01*
X194211104Y-35566380D02*
X194134914Y-35604475D01*
X194134914Y-35604475D02*
X193982533Y-35642571D01*
X193982533Y-35642571D02*
X193792057Y-35642571D01*
X193792057Y-35642571D02*
X193639676Y-35604475D01*
X193639676Y-35604475D02*
X193563485Y-35566380D01*
X193563485Y-35566380D02*
X193525390Y-35528285D01*
X193525390Y-35528285D02*
X193487295Y-35452094D01*
X191747295Y-36404475D02*
X190947295Y-36404475D01*
X190947295Y-36404475D02*
X190947295Y-36213999D01*
X190947295Y-36213999D02*
X190985390Y-36099713D01*
X190985390Y-36099713D02*
X191061580Y-36023523D01*
X191061580Y-36023523D02*
X191137771Y-35985428D01*
X191137771Y-35985428D02*
X191290152Y-35947332D01*
X191290152Y-35947332D02*
X191404438Y-35947332D01*
X191404438Y-35947332D02*
X191556819Y-35985428D01*
X191556819Y-35985428D02*
X191633009Y-36023523D01*
X191633009Y-36023523D02*
X191709200Y-36099713D01*
X191709200Y-36099713D02*
X191747295Y-36213999D01*
X191747295Y-36213999D02*
X191747295Y-36404475D01*
X191213961Y-35261618D02*
X191747295Y-35261618D01*
X190909200Y-35452094D02*
X191480628Y-35642571D01*
X191480628Y-35642571D02*
X191480628Y-35147332D01*
X204447295Y-36404475D02*
X203647295Y-36404475D01*
X203647295Y-36404475D02*
X203647295Y-36213999D01*
X203647295Y-36213999D02*
X203685390Y-36099713D01*
X203685390Y-36099713D02*
X203761580Y-36023523D01*
X203761580Y-36023523D02*
X203837771Y-35985428D01*
X203837771Y-35985428D02*
X203990152Y-35947332D01*
X203990152Y-35947332D02*
X204104438Y-35947332D01*
X204104438Y-35947332D02*
X204256819Y-35985428D01*
X204256819Y-35985428D02*
X204333009Y-36023523D01*
X204333009Y-36023523D02*
X204409200Y-36099713D01*
X204409200Y-36099713D02*
X204447295Y-36213999D01*
X204447295Y-36213999D02*
X204447295Y-36404475D01*
X203723485Y-35642571D02*
X203685390Y-35604475D01*
X203685390Y-35604475D02*
X203647295Y-35528285D01*
X203647295Y-35528285D02*
X203647295Y-35337809D01*
X203647295Y-35337809D02*
X203685390Y-35261618D01*
X203685390Y-35261618D02*
X203723485Y-35223523D01*
X203723485Y-35223523D02*
X203799676Y-35185428D01*
X203799676Y-35185428D02*
X203875866Y-35185428D01*
X203875866Y-35185428D02*
X203990152Y-35223523D01*
X203990152Y-35223523D02*
X204447295Y-35680666D01*
X204447295Y-35680666D02*
X204447295Y-35185428D01*
X203685390Y-47345523D02*
X203647295Y-47421713D01*
X203647295Y-47421713D02*
X203647295Y-47535999D01*
X203647295Y-47535999D02*
X203685390Y-47650285D01*
X203685390Y-47650285D02*
X203761580Y-47726475D01*
X203761580Y-47726475D02*
X203837771Y-47764570D01*
X203837771Y-47764570D02*
X203990152Y-47802666D01*
X203990152Y-47802666D02*
X204104438Y-47802666D01*
X204104438Y-47802666D02*
X204256819Y-47764570D01*
X204256819Y-47764570D02*
X204333009Y-47726475D01*
X204333009Y-47726475D02*
X204409200Y-47650285D01*
X204409200Y-47650285D02*
X204447295Y-47535999D01*
X204447295Y-47535999D02*
X204447295Y-47459808D01*
X204447295Y-47459808D02*
X204409200Y-47345523D01*
X204409200Y-47345523D02*
X204371104Y-47307427D01*
X204371104Y-47307427D02*
X204104438Y-47307427D01*
X204104438Y-47307427D02*
X204104438Y-47459808D01*
X204447295Y-46964570D02*
X203647295Y-46964570D01*
X203647295Y-46964570D02*
X204447295Y-46507427D01*
X204447295Y-46507427D02*
X203647295Y-46507427D01*
X204447295Y-46126475D02*
X203647295Y-46126475D01*
X203647295Y-46126475D02*
X203647295Y-45935999D01*
X203647295Y-45935999D02*
X203685390Y-45821713D01*
X203685390Y-45821713D02*
X203761580Y-45745523D01*
X203761580Y-45745523D02*
X203837771Y-45707428D01*
X203837771Y-45707428D02*
X203990152Y-45669332D01*
X203990152Y-45669332D02*
X204104438Y-45669332D01*
X204104438Y-45669332D02*
X204256819Y-45707428D01*
X204256819Y-45707428D02*
X204333009Y-45745523D01*
X204333009Y-45745523D02*
X204409200Y-45821713D01*
X204409200Y-45821713D02*
X204447295Y-45935999D01*
X204447295Y-45935999D02*
X204447295Y-46126475D01*
X178628247Y-47059809D02*
X178666342Y-46945523D01*
X178666342Y-46945523D02*
X178704438Y-46907428D01*
X178704438Y-46907428D02*
X178780628Y-46869332D01*
X178780628Y-46869332D02*
X178894914Y-46869332D01*
X178894914Y-46869332D02*
X178971104Y-46907428D01*
X178971104Y-46907428D02*
X179009200Y-46945523D01*
X179009200Y-46945523D02*
X179047295Y-47021713D01*
X179047295Y-47021713D02*
X179047295Y-47326475D01*
X179047295Y-47326475D02*
X178247295Y-47326475D01*
X178247295Y-47326475D02*
X178247295Y-47059809D01*
X178247295Y-47059809D02*
X178285390Y-46983618D01*
X178285390Y-46983618D02*
X178323485Y-46945523D01*
X178323485Y-46945523D02*
X178399676Y-46907428D01*
X178399676Y-46907428D02*
X178475866Y-46907428D01*
X178475866Y-46907428D02*
X178552057Y-46945523D01*
X178552057Y-46945523D02*
X178590152Y-46983618D01*
X178590152Y-46983618D02*
X178628247Y-47059809D01*
X178628247Y-47059809D02*
X178628247Y-47326475D01*
X178247295Y-46183618D02*
X178247295Y-46335999D01*
X178247295Y-46335999D02*
X178285390Y-46412190D01*
X178285390Y-46412190D02*
X178323485Y-46450285D01*
X178323485Y-46450285D02*
X178437771Y-46526475D01*
X178437771Y-46526475D02*
X178590152Y-46564571D01*
X178590152Y-46564571D02*
X178894914Y-46564571D01*
X178894914Y-46564571D02*
X178971104Y-46526475D01*
X178971104Y-46526475D02*
X179009200Y-46488380D01*
X179009200Y-46488380D02*
X179047295Y-46412190D01*
X179047295Y-46412190D02*
X179047295Y-46259809D01*
X179047295Y-46259809D02*
X179009200Y-46183618D01*
X179009200Y-46183618D02*
X178971104Y-46145523D01*
X178971104Y-46145523D02*
X178894914Y-46107428D01*
X178894914Y-46107428D02*
X178704438Y-46107428D01*
X178704438Y-46107428D02*
X178628247Y-46145523D01*
X178628247Y-46145523D02*
X178590152Y-46183618D01*
X178590152Y-46183618D02*
X178552057Y-46259809D01*
X178552057Y-46259809D02*
X178552057Y-46412190D01*
X178552057Y-46412190D02*
X178590152Y-46488380D01*
X178590152Y-46488380D02*
X178628247Y-46526475D01*
X178628247Y-46526475D02*
X178704438Y-46564571D01*
X206987295Y-47288380D02*
X206606342Y-47555047D01*
X206987295Y-47745523D02*
X206187295Y-47745523D01*
X206187295Y-47745523D02*
X206187295Y-47440761D01*
X206187295Y-47440761D02*
X206225390Y-47364571D01*
X206225390Y-47364571D02*
X206263485Y-47326476D01*
X206263485Y-47326476D02*
X206339676Y-47288380D01*
X206339676Y-47288380D02*
X206453961Y-47288380D01*
X206453961Y-47288380D02*
X206530152Y-47326476D01*
X206530152Y-47326476D02*
X206568247Y-47364571D01*
X206568247Y-47364571D02*
X206606342Y-47440761D01*
X206606342Y-47440761D02*
X206606342Y-47745523D01*
X206758723Y-46983619D02*
X206758723Y-46602666D01*
X206987295Y-47059809D02*
X206187295Y-46793142D01*
X206187295Y-46793142D02*
X206987295Y-46526476D01*
X206187295Y-46336000D02*
X206987295Y-46145524D01*
X206987295Y-46145524D02*
X206415866Y-45993143D01*
X206415866Y-45993143D02*
X206987295Y-45840762D01*
X206987295Y-45840762D02*
X206187295Y-45650286D01*
X181168247Y-47059809D02*
X181206342Y-46945523D01*
X181206342Y-46945523D02*
X181244438Y-46907428D01*
X181244438Y-46907428D02*
X181320628Y-46869332D01*
X181320628Y-46869332D02*
X181434914Y-46869332D01*
X181434914Y-46869332D02*
X181511104Y-46907428D01*
X181511104Y-46907428D02*
X181549200Y-46945523D01*
X181549200Y-46945523D02*
X181587295Y-47021713D01*
X181587295Y-47021713D02*
X181587295Y-47326475D01*
X181587295Y-47326475D02*
X180787295Y-47326475D01*
X180787295Y-47326475D02*
X180787295Y-47059809D01*
X180787295Y-47059809D02*
X180825390Y-46983618D01*
X180825390Y-46983618D02*
X180863485Y-46945523D01*
X180863485Y-46945523D02*
X180939676Y-46907428D01*
X180939676Y-46907428D02*
X181015866Y-46907428D01*
X181015866Y-46907428D02*
X181092057Y-46945523D01*
X181092057Y-46945523D02*
X181130152Y-46983618D01*
X181130152Y-46983618D02*
X181168247Y-47059809D01*
X181168247Y-47059809D02*
X181168247Y-47326475D01*
X180863485Y-46564571D02*
X180825390Y-46526475D01*
X180825390Y-46526475D02*
X180787295Y-46450285D01*
X180787295Y-46450285D02*
X180787295Y-46259809D01*
X180787295Y-46259809D02*
X180825390Y-46183618D01*
X180825390Y-46183618D02*
X180863485Y-46145523D01*
X180863485Y-46145523D02*
X180939676Y-46107428D01*
X180939676Y-46107428D02*
X181015866Y-46107428D01*
X181015866Y-46107428D02*
X181130152Y-46145523D01*
X181130152Y-46145523D02*
X181587295Y-46602666D01*
X181587295Y-46602666D02*
X181587295Y-46107428D01*
X183708247Y-36366380D02*
X183708247Y-36099714D01*
X184127295Y-35985428D02*
X184127295Y-36366380D01*
X184127295Y-36366380D02*
X183327295Y-36366380D01*
X183327295Y-36366380D02*
X183327295Y-35985428D01*
X183327295Y-35299713D02*
X183327295Y-35452094D01*
X183327295Y-35452094D02*
X183365390Y-35528285D01*
X183365390Y-35528285D02*
X183403485Y-35566380D01*
X183403485Y-35566380D02*
X183517771Y-35642570D01*
X183517771Y-35642570D02*
X183670152Y-35680666D01*
X183670152Y-35680666D02*
X183974914Y-35680666D01*
X183974914Y-35680666D02*
X184051104Y-35642570D01*
X184051104Y-35642570D02*
X184089200Y-35604475D01*
X184089200Y-35604475D02*
X184127295Y-35528285D01*
X184127295Y-35528285D02*
X184127295Y-35375904D01*
X184127295Y-35375904D02*
X184089200Y-35299713D01*
X184089200Y-35299713D02*
X184051104Y-35261618D01*
X184051104Y-35261618D02*
X183974914Y-35223523D01*
X183974914Y-35223523D02*
X183784438Y-35223523D01*
X183784438Y-35223523D02*
X183708247Y-35261618D01*
X183708247Y-35261618D02*
X183670152Y-35299713D01*
X183670152Y-35299713D02*
X183632057Y-35375904D01*
X183632057Y-35375904D02*
X183632057Y-35528285D01*
X183632057Y-35528285D02*
X183670152Y-35604475D01*
X183670152Y-35604475D02*
X183708247Y-35642570D01*
X183708247Y-35642570D02*
X183784438Y-35680666D01*
X206187295Y-39893604D02*
X206187295Y-39436461D01*
X206987295Y-39665033D02*
X206187295Y-39665033D01*
X206187295Y-39245985D02*
X206987295Y-38712651D01*
X206187295Y-38712651D02*
X206987295Y-39245985D01*
X206187295Y-38255508D02*
X206187295Y-38179318D01*
X206187295Y-38179318D02*
X206225390Y-38103127D01*
X206225390Y-38103127D02*
X206263485Y-38065032D01*
X206263485Y-38065032D02*
X206339676Y-38026937D01*
X206339676Y-38026937D02*
X206492057Y-37988842D01*
X206492057Y-37988842D02*
X206682533Y-37988842D01*
X206682533Y-37988842D02*
X206834914Y-38026937D01*
X206834914Y-38026937D02*
X206911104Y-38065032D01*
X206911104Y-38065032D02*
X206949200Y-38103127D01*
X206949200Y-38103127D02*
X206987295Y-38179318D01*
X206987295Y-38179318D02*
X206987295Y-38255508D01*
X206987295Y-38255508D02*
X206949200Y-38331699D01*
X206949200Y-38331699D02*
X206911104Y-38369794D01*
X206911104Y-38369794D02*
X206834914Y-38407889D01*
X206834914Y-38407889D02*
X206682533Y-38445985D01*
X206682533Y-38445985D02*
X206492057Y-38445985D01*
X206492057Y-38445985D02*
X206339676Y-38407889D01*
X206339676Y-38407889D02*
X206263485Y-38369794D01*
X206263485Y-38369794D02*
X206225390Y-38331699D01*
X206225390Y-38331699D02*
X206187295Y-38255508D01*
X206149200Y-37074556D02*
X207177771Y-37760270D01*
X206987295Y-36807889D02*
X206187295Y-36807889D01*
X206187295Y-36807889D02*
X206187295Y-36617413D01*
X206187295Y-36617413D02*
X206225390Y-36503127D01*
X206225390Y-36503127D02*
X206301580Y-36426937D01*
X206301580Y-36426937D02*
X206377771Y-36388842D01*
X206377771Y-36388842D02*
X206530152Y-36350746D01*
X206530152Y-36350746D02*
X206644438Y-36350746D01*
X206644438Y-36350746D02*
X206796819Y-36388842D01*
X206796819Y-36388842D02*
X206873009Y-36426937D01*
X206873009Y-36426937D02*
X206949200Y-36503127D01*
X206949200Y-36503127D02*
X206987295Y-36617413D01*
X206987295Y-36617413D02*
X206987295Y-36807889D01*
X206187295Y-36084080D02*
X206187295Y-35588842D01*
X206187295Y-35588842D02*
X206492057Y-35855508D01*
X206492057Y-35855508D02*
X206492057Y-35741223D01*
X206492057Y-35741223D02*
X206530152Y-35665032D01*
X206530152Y-35665032D02*
X206568247Y-35626937D01*
X206568247Y-35626937D02*
X206644438Y-35588842D01*
X206644438Y-35588842D02*
X206834914Y-35588842D01*
X206834914Y-35588842D02*
X206911104Y-35626937D01*
X206911104Y-35626937D02*
X206949200Y-35665032D01*
X206949200Y-35665032D02*
X206987295Y-35741223D01*
X206987295Y-35741223D02*
X206987295Y-35969794D01*
X206987295Y-35969794D02*
X206949200Y-36045985D01*
X206949200Y-36045985D02*
X206911104Y-36084080D01*
X188788247Y-47002666D02*
X188788247Y-47269332D01*
X189207295Y-47269332D02*
X188407295Y-47269332D01*
X188407295Y-47269332D02*
X188407295Y-46888380D01*
X188407295Y-46659809D02*
X188407295Y-46126475D01*
X188407295Y-46126475D02*
X189207295Y-46469333D01*
X196408247Y-47002666D02*
X196408247Y-47269332D01*
X196827295Y-47269332D02*
X196027295Y-47269332D01*
X196027295Y-47269332D02*
X196027295Y-46888380D01*
X196293961Y-46240761D02*
X196827295Y-46240761D01*
X195989200Y-46431237D02*
X196560628Y-46621714D01*
X196560628Y-46621714D02*
X196560628Y-46126475D01*
X201899200Y-47541453D02*
X201937295Y-47427167D01*
X201937295Y-47427167D02*
X201937295Y-47236691D01*
X201937295Y-47236691D02*
X201899200Y-47160500D01*
X201899200Y-47160500D02*
X201861104Y-47122405D01*
X201861104Y-47122405D02*
X201784914Y-47084310D01*
X201784914Y-47084310D02*
X201708723Y-47084310D01*
X201708723Y-47084310D02*
X201632533Y-47122405D01*
X201632533Y-47122405D02*
X201594438Y-47160500D01*
X201594438Y-47160500D02*
X201556342Y-47236691D01*
X201556342Y-47236691D02*
X201518247Y-47389072D01*
X201518247Y-47389072D02*
X201480152Y-47465262D01*
X201480152Y-47465262D02*
X201442057Y-47503357D01*
X201442057Y-47503357D02*
X201365866Y-47541453D01*
X201365866Y-47541453D02*
X201289676Y-47541453D01*
X201289676Y-47541453D02*
X201213485Y-47503357D01*
X201213485Y-47503357D02*
X201175390Y-47465262D01*
X201175390Y-47465262D02*
X201137295Y-47389072D01*
X201137295Y-47389072D02*
X201137295Y-47198595D01*
X201137295Y-47198595D02*
X201175390Y-47084310D01*
X201137295Y-46855738D02*
X201137295Y-46398595D01*
X201937295Y-46627167D02*
X201137295Y-46627167D01*
X191328247Y-47002666D02*
X191328247Y-47269332D01*
X191747295Y-47269332D02*
X190947295Y-47269332D01*
X190947295Y-47269332D02*
X190947295Y-46888380D01*
X190947295Y-46240761D02*
X190947295Y-46393142D01*
X190947295Y-46393142D02*
X190985390Y-46469333D01*
X190985390Y-46469333D02*
X191023485Y-46507428D01*
X191023485Y-46507428D02*
X191137771Y-46583618D01*
X191137771Y-46583618D02*
X191290152Y-46621714D01*
X191290152Y-46621714D02*
X191594914Y-46621714D01*
X191594914Y-46621714D02*
X191671104Y-46583618D01*
X191671104Y-46583618D02*
X191709200Y-46545523D01*
X191709200Y-46545523D02*
X191747295Y-46469333D01*
X191747295Y-46469333D02*
X191747295Y-46316952D01*
X191747295Y-46316952D02*
X191709200Y-46240761D01*
X191709200Y-46240761D02*
X191671104Y-46202666D01*
X191671104Y-46202666D02*
X191594914Y-46164571D01*
X191594914Y-46164571D02*
X191404438Y-46164571D01*
X191404438Y-46164571D02*
X191328247Y-46202666D01*
X191328247Y-46202666D02*
X191290152Y-46240761D01*
X191290152Y-46240761D02*
X191252057Y-46316952D01*
X191252057Y-46316952D02*
X191252057Y-46469333D01*
X191252057Y-46469333D02*
X191290152Y-46545523D01*
X191290152Y-46545523D02*
X191328247Y-46583618D01*
X191328247Y-46583618D02*
X191404438Y-46621714D01*
X198605390Y-36423523D02*
X198567295Y-36499713D01*
X198567295Y-36499713D02*
X198567295Y-36613999D01*
X198567295Y-36613999D02*
X198605390Y-36728285D01*
X198605390Y-36728285D02*
X198681580Y-36804475D01*
X198681580Y-36804475D02*
X198757771Y-36842570D01*
X198757771Y-36842570D02*
X198910152Y-36880666D01*
X198910152Y-36880666D02*
X199024438Y-36880666D01*
X199024438Y-36880666D02*
X199176819Y-36842570D01*
X199176819Y-36842570D02*
X199253009Y-36804475D01*
X199253009Y-36804475D02*
X199329200Y-36728285D01*
X199329200Y-36728285D02*
X199367295Y-36613999D01*
X199367295Y-36613999D02*
X199367295Y-36537808D01*
X199367295Y-36537808D02*
X199329200Y-36423523D01*
X199329200Y-36423523D02*
X199291104Y-36385427D01*
X199291104Y-36385427D02*
X199024438Y-36385427D01*
X199024438Y-36385427D02*
X199024438Y-36537808D01*
X199367295Y-36042570D02*
X198567295Y-36042570D01*
X198567295Y-36042570D02*
X199367295Y-35585427D01*
X199367295Y-35585427D02*
X198567295Y-35585427D01*
X199367295Y-35204475D02*
X198567295Y-35204475D01*
X198567295Y-35204475D02*
X198567295Y-35013999D01*
X198567295Y-35013999D02*
X198605390Y-34899713D01*
X198605390Y-34899713D02*
X198681580Y-34823523D01*
X198681580Y-34823523D02*
X198757771Y-34785428D01*
X198757771Y-34785428D02*
X198910152Y-34747332D01*
X198910152Y-34747332D02*
X199024438Y-34747332D01*
X199024438Y-34747332D02*
X199176819Y-34785428D01*
X199176819Y-34785428D02*
X199253009Y-34823523D01*
X199253009Y-34823523D02*
X199329200Y-34899713D01*
X199329200Y-34899713D02*
X199367295Y-35013999D01*
X199367295Y-35013999D02*
X199367295Y-35204475D01*
X198567295Y-47802666D02*
X199367295Y-47535999D01*
X199367295Y-47535999D02*
X198567295Y-47269333D01*
X199291104Y-46545523D02*
X199329200Y-46583619D01*
X199329200Y-46583619D02*
X199367295Y-46697904D01*
X199367295Y-46697904D02*
X199367295Y-46774095D01*
X199367295Y-46774095D02*
X199329200Y-46888381D01*
X199329200Y-46888381D02*
X199253009Y-46964571D01*
X199253009Y-46964571D02*
X199176819Y-47002666D01*
X199176819Y-47002666D02*
X199024438Y-47040762D01*
X199024438Y-47040762D02*
X198910152Y-47040762D01*
X198910152Y-47040762D02*
X198757771Y-47002666D01*
X198757771Y-47002666D02*
X198681580Y-46964571D01*
X198681580Y-46964571D02*
X198605390Y-46888381D01*
X198605390Y-46888381D02*
X198567295Y-46774095D01*
X198567295Y-46774095D02*
X198567295Y-46697904D01*
X198567295Y-46697904D02*
X198605390Y-46583619D01*
X198605390Y-46583619D02*
X198643485Y-46545523D01*
X199291104Y-45745523D02*
X199329200Y-45783619D01*
X199329200Y-45783619D02*
X199367295Y-45897904D01*
X199367295Y-45897904D02*
X199367295Y-45974095D01*
X199367295Y-45974095D02*
X199329200Y-46088381D01*
X199329200Y-46088381D02*
X199253009Y-46164571D01*
X199253009Y-46164571D02*
X199176819Y-46202666D01*
X199176819Y-46202666D02*
X199024438Y-46240762D01*
X199024438Y-46240762D02*
X198910152Y-46240762D01*
X198910152Y-46240762D02*
X198757771Y-46202666D01*
X198757771Y-46202666D02*
X198681580Y-46164571D01*
X198681580Y-46164571D02*
X198605390Y-46088381D01*
X198605390Y-46088381D02*
X198567295Y-45974095D01*
X198567295Y-45974095D02*
X198567295Y-45897904D01*
X198567295Y-45897904D02*
X198605390Y-45783619D01*
X198605390Y-45783619D02*
X198643485Y-45745523D01*
X196827295Y-36404475D02*
X196027295Y-36404475D01*
X196027295Y-36404475D02*
X196027295Y-36213999D01*
X196027295Y-36213999D02*
X196065390Y-36099713D01*
X196065390Y-36099713D02*
X196141580Y-36023523D01*
X196141580Y-36023523D02*
X196217771Y-35985428D01*
X196217771Y-35985428D02*
X196370152Y-35947332D01*
X196370152Y-35947332D02*
X196484438Y-35947332D01*
X196484438Y-35947332D02*
X196636819Y-35985428D01*
X196636819Y-35985428D02*
X196713009Y-36023523D01*
X196713009Y-36023523D02*
X196789200Y-36099713D01*
X196789200Y-36099713D02*
X196827295Y-36213999D01*
X196827295Y-36213999D02*
X196827295Y-36404475D01*
X196827295Y-35185428D02*
X196827295Y-35642571D01*
X196827295Y-35413999D02*
X196027295Y-35413999D01*
X196027295Y-35413999D02*
X196141580Y-35490190D01*
X196141580Y-35490190D02*
X196217771Y-35566380D01*
X196217771Y-35566380D02*
X196255866Y-35642571D01*
X201145390Y-36423523D02*
X201107295Y-36499713D01*
X201107295Y-36499713D02*
X201107295Y-36613999D01*
X201107295Y-36613999D02*
X201145390Y-36728285D01*
X201145390Y-36728285D02*
X201221580Y-36804475D01*
X201221580Y-36804475D02*
X201297771Y-36842570D01*
X201297771Y-36842570D02*
X201450152Y-36880666D01*
X201450152Y-36880666D02*
X201564438Y-36880666D01*
X201564438Y-36880666D02*
X201716819Y-36842570D01*
X201716819Y-36842570D02*
X201793009Y-36804475D01*
X201793009Y-36804475D02*
X201869200Y-36728285D01*
X201869200Y-36728285D02*
X201907295Y-36613999D01*
X201907295Y-36613999D02*
X201907295Y-36537808D01*
X201907295Y-36537808D02*
X201869200Y-36423523D01*
X201869200Y-36423523D02*
X201831104Y-36385427D01*
X201831104Y-36385427D02*
X201564438Y-36385427D01*
X201564438Y-36385427D02*
X201564438Y-36537808D01*
X201907295Y-36042570D02*
X201107295Y-36042570D01*
X201107295Y-36042570D02*
X201907295Y-35585427D01*
X201907295Y-35585427D02*
X201107295Y-35585427D01*
X201907295Y-35204475D02*
X201107295Y-35204475D01*
X201107295Y-35204475D02*
X201107295Y-35013999D01*
X201107295Y-35013999D02*
X201145390Y-34899713D01*
X201145390Y-34899713D02*
X201221580Y-34823523D01*
X201221580Y-34823523D02*
X201297771Y-34785428D01*
X201297771Y-34785428D02*
X201450152Y-34747332D01*
X201450152Y-34747332D02*
X201564438Y-34747332D01*
X201564438Y-34747332D02*
X201716819Y-34785428D01*
X201716819Y-34785428D02*
X201793009Y-34823523D01*
X201793009Y-34823523D02*
X201869200Y-34899713D01*
X201869200Y-34899713D02*
X201907295Y-35013999D01*
X201907295Y-35013999D02*
X201907295Y-35204475D01*
X186248247Y-47059809D02*
X186286342Y-46945523D01*
X186286342Y-46945523D02*
X186324438Y-46907428D01*
X186324438Y-46907428D02*
X186400628Y-46869332D01*
X186400628Y-46869332D02*
X186514914Y-46869332D01*
X186514914Y-46869332D02*
X186591104Y-46907428D01*
X186591104Y-46907428D02*
X186629200Y-46945523D01*
X186629200Y-46945523D02*
X186667295Y-47021713D01*
X186667295Y-47021713D02*
X186667295Y-47326475D01*
X186667295Y-47326475D02*
X185867295Y-47326475D01*
X185867295Y-47326475D02*
X185867295Y-47059809D01*
X185867295Y-47059809D02*
X185905390Y-46983618D01*
X185905390Y-46983618D02*
X185943485Y-46945523D01*
X185943485Y-46945523D02*
X186019676Y-46907428D01*
X186019676Y-46907428D02*
X186095866Y-46907428D01*
X186095866Y-46907428D02*
X186172057Y-46945523D01*
X186172057Y-46945523D02*
X186210152Y-46983618D01*
X186210152Y-46983618D02*
X186248247Y-47059809D01*
X186248247Y-47059809D02*
X186248247Y-47326475D01*
X186667295Y-46107428D02*
X186667295Y-46564571D01*
X186667295Y-46335999D02*
X185867295Y-46335999D01*
X185867295Y-46335999D02*
X185981580Y-46412190D01*
X185981580Y-46412190D02*
X186057771Y-46488380D01*
X186057771Y-46488380D02*
X186095866Y-46564571D01*
X186667295Y-36404475D02*
X185867295Y-36404475D01*
X185867295Y-36404475D02*
X185867295Y-36213999D01*
X185867295Y-36213999D02*
X185905390Y-36099713D01*
X185905390Y-36099713D02*
X185981580Y-36023523D01*
X185981580Y-36023523D02*
X186057771Y-35985428D01*
X186057771Y-35985428D02*
X186210152Y-35947332D01*
X186210152Y-35947332D02*
X186324438Y-35947332D01*
X186324438Y-35947332D02*
X186476819Y-35985428D01*
X186476819Y-35985428D02*
X186553009Y-36023523D01*
X186553009Y-36023523D02*
X186629200Y-36099713D01*
X186629200Y-36099713D02*
X186667295Y-36213999D01*
X186667295Y-36213999D02*
X186667295Y-36404475D01*
X185867295Y-35680666D02*
X185867295Y-35147332D01*
X185867295Y-35147332D02*
X186667295Y-35490190D01*
X142998095Y-90197200D02*
X143140952Y-90244819D01*
X143140952Y-90244819D02*
X143379047Y-90244819D01*
X143379047Y-90244819D02*
X143474285Y-90197200D01*
X143474285Y-90197200D02*
X143521904Y-90149580D01*
X143521904Y-90149580D02*
X143569523Y-90054342D01*
X143569523Y-90054342D02*
X143569523Y-89959104D01*
X143569523Y-89959104D02*
X143521904Y-89863866D01*
X143521904Y-89863866D02*
X143474285Y-89816247D01*
X143474285Y-89816247D02*
X143379047Y-89768628D01*
X143379047Y-89768628D02*
X143188571Y-89721009D01*
X143188571Y-89721009D02*
X143093333Y-89673390D01*
X143093333Y-89673390D02*
X143045714Y-89625771D01*
X143045714Y-89625771D02*
X142998095Y-89530533D01*
X142998095Y-89530533D02*
X142998095Y-89435295D01*
X142998095Y-89435295D02*
X143045714Y-89340057D01*
X143045714Y-89340057D02*
X143093333Y-89292438D01*
X143093333Y-89292438D02*
X143188571Y-89244819D01*
X143188571Y-89244819D02*
X143426666Y-89244819D01*
X143426666Y-89244819D02*
X143569523Y-89292438D01*
X144045714Y-90244819D02*
X144236190Y-90244819D01*
X144236190Y-90244819D02*
X144331428Y-90197200D01*
X144331428Y-90197200D02*
X144379047Y-90149580D01*
X144379047Y-90149580D02*
X144474285Y-90006723D01*
X144474285Y-90006723D02*
X144521904Y-89816247D01*
X144521904Y-89816247D02*
X144521904Y-89435295D01*
X144521904Y-89435295D02*
X144474285Y-89340057D01*
X144474285Y-89340057D02*
X144426666Y-89292438D01*
X144426666Y-89292438D02*
X144331428Y-89244819D01*
X144331428Y-89244819D02*
X144140952Y-89244819D01*
X144140952Y-89244819D02*
X144045714Y-89292438D01*
X144045714Y-89292438D02*
X143998095Y-89340057D01*
X143998095Y-89340057D02*
X143950476Y-89435295D01*
X143950476Y-89435295D02*
X143950476Y-89673390D01*
X143950476Y-89673390D02*
X143998095Y-89768628D01*
X143998095Y-89768628D02*
X144045714Y-89816247D01*
X144045714Y-89816247D02*
X144140952Y-89863866D01*
X144140952Y-89863866D02*
X144331428Y-89863866D01*
X144331428Y-89863866D02*
X144426666Y-89816247D01*
X144426666Y-89816247D02*
X144474285Y-89768628D01*
X144474285Y-89768628D02*
X144521904Y-89673390D01*
X162048095Y-52097200D02*
X162190952Y-52144819D01*
X162190952Y-52144819D02*
X162429047Y-52144819D01*
X162429047Y-52144819D02*
X162524285Y-52097200D01*
X162524285Y-52097200D02*
X162571904Y-52049580D01*
X162571904Y-52049580D02*
X162619523Y-51954342D01*
X162619523Y-51954342D02*
X162619523Y-51859104D01*
X162619523Y-51859104D02*
X162571904Y-51763866D01*
X162571904Y-51763866D02*
X162524285Y-51716247D01*
X162524285Y-51716247D02*
X162429047Y-51668628D01*
X162429047Y-51668628D02*
X162238571Y-51621009D01*
X162238571Y-51621009D02*
X162143333Y-51573390D01*
X162143333Y-51573390D02*
X162095714Y-51525771D01*
X162095714Y-51525771D02*
X162048095Y-51430533D01*
X162048095Y-51430533D02*
X162048095Y-51335295D01*
X162048095Y-51335295D02*
X162095714Y-51240057D01*
X162095714Y-51240057D02*
X162143333Y-51192438D01*
X162143333Y-51192438D02*
X162238571Y-51144819D01*
X162238571Y-51144819D02*
X162476666Y-51144819D01*
X162476666Y-51144819D02*
X162619523Y-51192438D01*
X163000476Y-51240057D02*
X163048095Y-51192438D01*
X163048095Y-51192438D02*
X163143333Y-51144819D01*
X163143333Y-51144819D02*
X163381428Y-51144819D01*
X163381428Y-51144819D02*
X163476666Y-51192438D01*
X163476666Y-51192438D02*
X163524285Y-51240057D01*
X163524285Y-51240057D02*
X163571904Y-51335295D01*
X163571904Y-51335295D02*
X163571904Y-51430533D01*
X163571904Y-51430533D02*
X163524285Y-51573390D01*
X163524285Y-51573390D02*
X162952857Y-52144819D01*
X162952857Y-52144819D02*
X163571904Y-52144819D01*
X161571905Y-90197200D02*
X161714762Y-90244819D01*
X161714762Y-90244819D02*
X161952857Y-90244819D01*
X161952857Y-90244819D02*
X162048095Y-90197200D01*
X162048095Y-90197200D02*
X162095714Y-90149580D01*
X162095714Y-90149580D02*
X162143333Y-90054342D01*
X162143333Y-90054342D02*
X162143333Y-89959104D01*
X162143333Y-89959104D02*
X162095714Y-89863866D01*
X162095714Y-89863866D02*
X162048095Y-89816247D01*
X162048095Y-89816247D02*
X161952857Y-89768628D01*
X161952857Y-89768628D02*
X161762381Y-89721009D01*
X161762381Y-89721009D02*
X161667143Y-89673390D01*
X161667143Y-89673390D02*
X161619524Y-89625771D01*
X161619524Y-89625771D02*
X161571905Y-89530533D01*
X161571905Y-89530533D02*
X161571905Y-89435295D01*
X161571905Y-89435295D02*
X161619524Y-89340057D01*
X161619524Y-89340057D02*
X161667143Y-89292438D01*
X161667143Y-89292438D02*
X161762381Y-89244819D01*
X161762381Y-89244819D02*
X162000476Y-89244819D01*
X162000476Y-89244819D02*
X162143333Y-89292438D01*
X163095714Y-90244819D02*
X162524286Y-90244819D01*
X162810000Y-90244819D02*
X162810000Y-89244819D01*
X162810000Y-89244819D02*
X162714762Y-89387676D01*
X162714762Y-89387676D02*
X162619524Y-89482914D01*
X162619524Y-89482914D02*
X162524286Y-89530533D01*
X163714762Y-89244819D02*
X163810000Y-89244819D01*
X163810000Y-89244819D02*
X163905238Y-89292438D01*
X163905238Y-89292438D02*
X163952857Y-89340057D01*
X163952857Y-89340057D02*
X164000476Y-89435295D01*
X164000476Y-89435295D02*
X164048095Y-89625771D01*
X164048095Y-89625771D02*
X164048095Y-89863866D01*
X164048095Y-89863866D02*
X164000476Y-90054342D01*
X164000476Y-90054342D02*
X163952857Y-90149580D01*
X163952857Y-90149580D02*
X163905238Y-90197200D01*
X163905238Y-90197200D02*
X163810000Y-90244819D01*
X163810000Y-90244819D02*
X163714762Y-90244819D01*
X163714762Y-90244819D02*
X163619524Y-90197200D01*
X163619524Y-90197200D02*
X163571905Y-90149580D01*
X163571905Y-90149580D02*
X163524286Y-90054342D01*
X163524286Y-90054342D02*
X163476667Y-89863866D01*
X163476667Y-89863866D02*
X163476667Y-89625771D01*
X163476667Y-89625771D02*
X163524286Y-89435295D01*
X163524286Y-89435295D02*
X163571905Y-89340057D01*
X163571905Y-89340057D02*
X163619524Y-89292438D01*
X163619524Y-89292438D02*
X163714762Y-89244819D01*
X142998095Y-52097200D02*
X143140952Y-52144819D01*
X143140952Y-52144819D02*
X143379047Y-52144819D01*
X143379047Y-52144819D02*
X143474285Y-52097200D01*
X143474285Y-52097200D02*
X143521904Y-52049580D01*
X143521904Y-52049580D02*
X143569523Y-51954342D01*
X143569523Y-51954342D02*
X143569523Y-51859104D01*
X143569523Y-51859104D02*
X143521904Y-51763866D01*
X143521904Y-51763866D02*
X143474285Y-51716247D01*
X143474285Y-51716247D02*
X143379047Y-51668628D01*
X143379047Y-51668628D02*
X143188571Y-51621009D01*
X143188571Y-51621009D02*
X143093333Y-51573390D01*
X143093333Y-51573390D02*
X143045714Y-51525771D01*
X143045714Y-51525771D02*
X142998095Y-51430533D01*
X142998095Y-51430533D02*
X142998095Y-51335295D01*
X142998095Y-51335295D02*
X143045714Y-51240057D01*
X143045714Y-51240057D02*
X143093333Y-51192438D01*
X143093333Y-51192438D02*
X143188571Y-51144819D01*
X143188571Y-51144819D02*
X143426666Y-51144819D01*
X143426666Y-51144819D02*
X143569523Y-51192438D01*
X144521904Y-52144819D02*
X143950476Y-52144819D01*
X144236190Y-52144819D02*
X144236190Y-51144819D01*
X144236190Y-51144819D02*
X144140952Y-51287676D01*
X144140952Y-51287676D02*
X144045714Y-51382914D01*
X144045714Y-51382914D02*
X143950476Y-51430533D01*
X181098095Y-52097200D02*
X181240952Y-52144819D01*
X181240952Y-52144819D02*
X181479047Y-52144819D01*
X181479047Y-52144819D02*
X181574285Y-52097200D01*
X181574285Y-52097200D02*
X181621904Y-52049580D01*
X181621904Y-52049580D02*
X181669523Y-51954342D01*
X181669523Y-51954342D02*
X181669523Y-51859104D01*
X181669523Y-51859104D02*
X181621904Y-51763866D01*
X181621904Y-51763866D02*
X181574285Y-51716247D01*
X181574285Y-51716247D02*
X181479047Y-51668628D01*
X181479047Y-51668628D02*
X181288571Y-51621009D01*
X181288571Y-51621009D02*
X181193333Y-51573390D01*
X181193333Y-51573390D02*
X181145714Y-51525771D01*
X181145714Y-51525771D02*
X181098095Y-51430533D01*
X181098095Y-51430533D02*
X181098095Y-51335295D01*
X181098095Y-51335295D02*
X181145714Y-51240057D01*
X181145714Y-51240057D02*
X181193333Y-51192438D01*
X181193333Y-51192438D02*
X181288571Y-51144819D01*
X181288571Y-51144819D02*
X181526666Y-51144819D01*
X181526666Y-51144819D02*
X181669523Y-51192438D01*
X182002857Y-51144819D02*
X182621904Y-51144819D01*
X182621904Y-51144819D02*
X182288571Y-51525771D01*
X182288571Y-51525771D02*
X182431428Y-51525771D01*
X182431428Y-51525771D02*
X182526666Y-51573390D01*
X182526666Y-51573390D02*
X182574285Y-51621009D01*
X182574285Y-51621009D02*
X182621904Y-51716247D01*
X182621904Y-51716247D02*
X182621904Y-51954342D01*
X182621904Y-51954342D02*
X182574285Y-52049580D01*
X182574285Y-52049580D02*
X182526666Y-52097200D01*
X182526666Y-52097200D02*
X182431428Y-52144819D01*
X182431428Y-52144819D02*
X182145714Y-52144819D01*
X182145714Y-52144819D02*
X182050476Y-52097200D01*
X182050476Y-52097200D02*
X182002857Y-52049580D01*
X180621905Y-90197200D02*
X180764762Y-90244819D01*
X180764762Y-90244819D02*
X181002857Y-90244819D01*
X181002857Y-90244819D02*
X181098095Y-90197200D01*
X181098095Y-90197200D02*
X181145714Y-90149580D01*
X181145714Y-90149580D02*
X181193333Y-90054342D01*
X181193333Y-90054342D02*
X181193333Y-89959104D01*
X181193333Y-89959104D02*
X181145714Y-89863866D01*
X181145714Y-89863866D02*
X181098095Y-89816247D01*
X181098095Y-89816247D02*
X181002857Y-89768628D01*
X181002857Y-89768628D02*
X180812381Y-89721009D01*
X180812381Y-89721009D02*
X180717143Y-89673390D01*
X180717143Y-89673390D02*
X180669524Y-89625771D01*
X180669524Y-89625771D02*
X180621905Y-89530533D01*
X180621905Y-89530533D02*
X180621905Y-89435295D01*
X180621905Y-89435295D02*
X180669524Y-89340057D01*
X180669524Y-89340057D02*
X180717143Y-89292438D01*
X180717143Y-89292438D02*
X180812381Y-89244819D01*
X180812381Y-89244819D02*
X181050476Y-89244819D01*
X181050476Y-89244819D02*
X181193333Y-89292438D01*
X182145714Y-90244819D02*
X181574286Y-90244819D01*
X181860000Y-90244819D02*
X181860000Y-89244819D01*
X181860000Y-89244819D02*
X181764762Y-89387676D01*
X181764762Y-89387676D02*
X181669524Y-89482914D01*
X181669524Y-89482914D02*
X181574286Y-89530533D01*
X183098095Y-90244819D02*
X182526667Y-90244819D01*
X182812381Y-90244819D02*
X182812381Y-89244819D01*
X182812381Y-89244819D02*
X182717143Y-89387676D01*
X182717143Y-89387676D02*
X182621905Y-89482914D01*
X182621905Y-89482914D02*
X182526667Y-89530533D01*
X162048095Y-71147200D02*
X162190952Y-71194819D01*
X162190952Y-71194819D02*
X162429047Y-71194819D01*
X162429047Y-71194819D02*
X162524285Y-71147200D01*
X162524285Y-71147200D02*
X162571904Y-71099580D01*
X162571904Y-71099580D02*
X162619523Y-71004342D01*
X162619523Y-71004342D02*
X162619523Y-70909104D01*
X162619523Y-70909104D02*
X162571904Y-70813866D01*
X162571904Y-70813866D02*
X162524285Y-70766247D01*
X162524285Y-70766247D02*
X162429047Y-70718628D01*
X162429047Y-70718628D02*
X162238571Y-70671009D01*
X162238571Y-70671009D02*
X162143333Y-70623390D01*
X162143333Y-70623390D02*
X162095714Y-70575771D01*
X162095714Y-70575771D02*
X162048095Y-70480533D01*
X162048095Y-70480533D02*
X162048095Y-70385295D01*
X162048095Y-70385295D02*
X162095714Y-70290057D01*
X162095714Y-70290057D02*
X162143333Y-70242438D01*
X162143333Y-70242438D02*
X162238571Y-70194819D01*
X162238571Y-70194819D02*
X162476666Y-70194819D01*
X162476666Y-70194819D02*
X162619523Y-70242438D01*
X163476666Y-70194819D02*
X163286190Y-70194819D01*
X163286190Y-70194819D02*
X163190952Y-70242438D01*
X163190952Y-70242438D02*
X163143333Y-70290057D01*
X163143333Y-70290057D02*
X163048095Y-70432914D01*
X163048095Y-70432914D02*
X163000476Y-70623390D01*
X163000476Y-70623390D02*
X163000476Y-71004342D01*
X163000476Y-71004342D02*
X163048095Y-71099580D01*
X163048095Y-71099580D02*
X163095714Y-71147200D01*
X163095714Y-71147200D02*
X163190952Y-71194819D01*
X163190952Y-71194819D02*
X163381428Y-71194819D01*
X163381428Y-71194819D02*
X163476666Y-71147200D01*
X163476666Y-71147200D02*
X163524285Y-71099580D01*
X163524285Y-71099580D02*
X163571904Y-71004342D01*
X163571904Y-71004342D02*
X163571904Y-70766247D01*
X163571904Y-70766247D02*
X163524285Y-70671009D01*
X163524285Y-70671009D02*
X163476666Y-70623390D01*
X163476666Y-70623390D02*
X163381428Y-70575771D01*
X163381428Y-70575771D02*
X163190952Y-70575771D01*
X163190952Y-70575771D02*
X163095714Y-70623390D01*
X163095714Y-70623390D02*
X163048095Y-70671009D01*
X163048095Y-70671009D02*
X163000476Y-70766247D01*
X142998095Y-71147200D02*
X143140952Y-71194819D01*
X143140952Y-71194819D02*
X143379047Y-71194819D01*
X143379047Y-71194819D02*
X143474285Y-71147200D01*
X143474285Y-71147200D02*
X143521904Y-71099580D01*
X143521904Y-71099580D02*
X143569523Y-71004342D01*
X143569523Y-71004342D02*
X143569523Y-70909104D01*
X143569523Y-70909104D02*
X143521904Y-70813866D01*
X143521904Y-70813866D02*
X143474285Y-70766247D01*
X143474285Y-70766247D02*
X143379047Y-70718628D01*
X143379047Y-70718628D02*
X143188571Y-70671009D01*
X143188571Y-70671009D02*
X143093333Y-70623390D01*
X143093333Y-70623390D02*
X143045714Y-70575771D01*
X143045714Y-70575771D02*
X142998095Y-70480533D01*
X142998095Y-70480533D02*
X142998095Y-70385295D01*
X142998095Y-70385295D02*
X143045714Y-70290057D01*
X143045714Y-70290057D02*
X143093333Y-70242438D01*
X143093333Y-70242438D02*
X143188571Y-70194819D01*
X143188571Y-70194819D02*
X143426666Y-70194819D01*
X143426666Y-70194819D02*
X143569523Y-70242438D01*
X144474285Y-70194819D02*
X143998095Y-70194819D01*
X143998095Y-70194819D02*
X143950476Y-70671009D01*
X143950476Y-70671009D02*
X143998095Y-70623390D01*
X143998095Y-70623390D02*
X144093333Y-70575771D01*
X144093333Y-70575771D02*
X144331428Y-70575771D01*
X144331428Y-70575771D02*
X144426666Y-70623390D01*
X144426666Y-70623390D02*
X144474285Y-70671009D01*
X144474285Y-70671009D02*
X144521904Y-70766247D01*
X144521904Y-70766247D02*
X144521904Y-71004342D01*
X144521904Y-71004342D02*
X144474285Y-71099580D01*
X144474285Y-71099580D02*
X144426666Y-71147200D01*
X144426666Y-71147200D02*
X144331428Y-71194819D01*
X144331428Y-71194819D02*
X144093333Y-71194819D01*
X144093333Y-71194819D02*
X143998095Y-71147200D01*
X143998095Y-71147200D02*
X143950476Y-71099580D01*
X199671905Y-90197200D02*
X199814762Y-90244819D01*
X199814762Y-90244819D02*
X200052857Y-90244819D01*
X200052857Y-90244819D02*
X200148095Y-90197200D01*
X200148095Y-90197200D02*
X200195714Y-90149580D01*
X200195714Y-90149580D02*
X200243333Y-90054342D01*
X200243333Y-90054342D02*
X200243333Y-89959104D01*
X200243333Y-89959104D02*
X200195714Y-89863866D01*
X200195714Y-89863866D02*
X200148095Y-89816247D01*
X200148095Y-89816247D02*
X200052857Y-89768628D01*
X200052857Y-89768628D02*
X199862381Y-89721009D01*
X199862381Y-89721009D02*
X199767143Y-89673390D01*
X199767143Y-89673390D02*
X199719524Y-89625771D01*
X199719524Y-89625771D02*
X199671905Y-89530533D01*
X199671905Y-89530533D02*
X199671905Y-89435295D01*
X199671905Y-89435295D02*
X199719524Y-89340057D01*
X199719524Y-89340057D02*
X199767143Y-89292438D01*
X199767143Y-89292438D02*
X199862381Y-89244819D01*
X199862381Y-89244819D02*
X200100476Y-89244819D01*
X200100476Y-89244819D02*
X200243333Y-89292438D01*
X201195714Y-90244819D02*
X200624286Y-90244819D01*
X200910000Y-90244819D02*
X200910000Y-89244819D01*
X200910000Y-89244819D02*
X200814762Y-89387676D01*
X200814762Y-89387676D02*
X200719524Y-89482914D01*
X200719524Y-89482914D02*
X200624286Y-89530533D01*
X201576667Y-89340057D02*
X201624286Y-89292438D01*
X201624286Y-89292438D02*
X201719524Y-89244819D01*
X201719524Y-89244819D02*
X201957619Y-89244819D01*
X201957619Y-89244819D02*
X202052857Y-89292438D01*
X202052857Y-89292438D02*
X202100476Y-89340057D01*
X202100476Y-89340057D02*
X202148095Y-89435295D01*
X202148095Y-89435295D02*
X202148095Y-89530533D01*
X202148095Y-89530533D02*
X202100476Y-89673390D01*
X202100476Y-89673390D02*
X201529048Y-90244819D01*
X201529048Y-90244819D02*
X202148095Y-90244819D01*
X200148095Y-71147200D02*
X200290952Y-71194819D01*
X200290952Y-71194819D02*
X200529047Y-71194819D01*
X200529047Y-71194819D02*
X200624285Y-71147200D01*
X200624285Y-71147200D02*
X200671904Y-71099580D01*
X200671904Y-71099580D02*
X200719523Y-71004342D01*
X200719523Y-71004342D02*
X200719523Y-70909104D01*
X200719523Y-70909104D02*
X200671904Y-70813866D01*
X200671904Y-70813866D02*
X200624285Y-70766247D01*
X200624285Y-70766247D02*
X200529047Y-70718628D01*
X200529047Y-70718628D02*
X200338571Y-70671009D01*
X200338571Y-70671009D02*
X200243333Y-70623390D01*
X200243333Y-70623390D02*
X200195714Y-70575771D01*
X200195714Y-70575771D02*
X200148095Y-70480533D01*
X200148095Y-70480533D02*
X200148095Y-70385295D01*
X200148095Y-70385295D02*
X200195714Y-70290057D01*
X200195714Y-70290057D02*
X200243333Y-70242438D01*
X200243333Y-70242438D02*
X200338571Y-70194819D01*
X200338571Y-70194819D02*
X200576666Y-70194819D01*
X200576666Y-70194819D02*
X200719523Y-70242438D01*
X201290952Y-70623390D02*
X201195714Y-70575771D01*
X201195714Y-70575771D02*
X201148095Y-70528152D01*
X201148095Y-70528152D02*
X201100476Y-70432914D01*
X201100476Y-70432914D02*
X201100476Y-70385295D01*
X201100476Y-70385295D02*
X201148095Y-70290057D01*
X201148095Y-70290057D02*
X201195714Y-70242438D01*
X201195714Y-70242438D02*
X201290952Y-70194819D01*
X201290952Y-70194819D02*
X201481428Y-70194819D01*
X201481428Y-70194819D02*
X201576666Y-70242438D01*
X201576666Y-70242438D02*
X201624285Y-70290057D01*
X201624285Y-70290057D02*
X201671904Y-70385295D01*
X201671904Y-70385295D02*
X201671904Y-70432914D01*
X201671904Y-70432914D02*
X201624285Y-70528152D01*
X201624285Y-70528152D02*
X201576666Y-70575771D01*
X201576666Y-70575771D02*
X201481428Y-70623390D01*
X201481428Y-70623390D02*
X201290952Y-70623390D01*
X201290952Y-70623390D02*
X201195714Y-70671009D01*
X201195714Y-70671009D02*
X201148095Y-70718628D01*
X201148095Y-70718628D02*
X201100476Y-70813866D01*
X201100476Y-70813866D02*
X201100476Y-71004342D01*
X201100476Y-71004342D02*
X201148095Y-71099580D01*
X201148095Y-71099580D02*
X201195714Y-71147200D01*
X201195714Y-71147200D02*
X201290952Y-71194819D01*
X201290952Y-71194819D02*
X201481428Y-71194819D01*
X201481428Y-71194819D02*
X201576666Y-71147200D01*
X201576666Y-71147200D02*
X201624285Y-71099580D01*
X201624285Y-71099580D02*
X201671904Y-71004342D01*
X201671904Y-71004342D02*
X201671904Y-70813866D01*
X201671904Y-70813866D02*
X201624285Y-70718628D01*
X201624285Y-70718628D02*
X201576666Y-70671009D01*
X201576666Y-70671009D02*
X201481428Y-70623390D01*
X181098095Y-71147200D02*
X181240952Y-71194819D01*
X181240952Y-71194819D02*
X181479047Y-71194819D01*
X181479047Y-71194819D02*
X181574285Y-71147200D01*
X181574285Y-71147200D02*
X181621904Y-71099580D01*
X181621904Y-71099580D02*
X181669523Y-71004342D01*
X181669523Y-71004342D02*
X181669523Y-70909104D01*
X181669523Y-70909104D02*
X181621904Y-70813866D01*
X181621904Y-70813866D02*
X181574285Y-70766247D01*
X181574285Y-70766247D02*
X181479047Y-70718628D01*
X181479047Y-70718628D02*
X181288571Y-70671009D01*
X181288571Y-70671009D02*
X181193333Y-70623390D01*
X181193333Y-70623390D02*
X181145714Y-70575771D01*
X181145714Y-70575771D02*
X181098095Y-70480533D01*
X181098095Y-70480533D02*
X181098095Y-70385295D01*
X181098095Y-70385295D02*
X181145714Y-70290057D01*
X181145714Y-70290057D02*
X181193333Y-70242438D01*
X181193333Y-70242438D02*
X181288571Y-70194819D01*
X181288571Y-70194819D02*
X181526666Y-70194819D01*
X181526666Y-70194819D02*
X181669523Y-70242438D01*
X182002857Y-70194819D02*
X182669523Y-70194819D01*
X182669523Y-70194819D02*
X182240952Y-71194819D01*
D11*
G04 #@! TO.C,D4*
X209885000Y-60040000D02*
X210985000Y-60040000D01*
X210035000Y-59440000D02*
X210835000Y-59440000D01*
X210435000Y-59440000D02*
X210435000Y-58940000D01*
X210435000Y-60040000D02*
X210035000Y-59440000D01*
X210435000Y-60440000D02*
X210435000Y-60040000D01*
X210835000Y-59440000D02*
X210435000Y-60040000D01*
G04 #@! TO.C,D9*
X152735000Y-98140000D02*
X153835000Y-98140000D01*
X152885000Y-97540000D02*
X153685000Y-97540000D01*
X153285000Y-97540000D02*
X153285000Y-97040000D01*
X153285000Y-98140000D02*
X152885000Y-97540000D01*
X153285000Y-98540000D02*
X153285000Y-98140000D01*
X153685000Y-97540000D02*
X153285000Y-98140000D01*
D12*
G04 #@! TO.C,S4*
X193810000Y-52590000D02*
X193810000Y-66790000D01*
X193810000Y-66790000D02*
X208010000Y-66790000D01*
X208010000Y-52590000D02*
X193810000Y-52590000D01*
X208010000Y-66790000D02*
X208010000Y-52590000D01*
D13*
G04 #@! TO.C,U1*
X177415000Y-32385000D02*
X177415000Y-50165000D01*
X177415000Y-50165000D02*
X210435000Y-50165000D01*
X205355000Y-34925000D02*
X205355000Y-32385000D01*
X207895000Y-34925000D02*
X205355000Y-34925000D01*
X207895000Y-34925000D02*
X207895000Y-32385000D01*
X210435000Y-32385000D02*
X177415000Y-32385000D01*
X210435000Y-50165000D02*
X210435000Y-32385000D01*
D10*
X201415640Y-46206568D02*
X201215640Y-46206568D01*
X201215640Y-46106568D01*
X201415640Y-46106568D01*
X201415640Y-46206568D01*
G36*
X201415640Y-46206568D02*
G01*
X201215640Y-46206568D01*
X201215640Y-46106568D01*
X201415640Y-46106568D01*
X201415640Y-46206568D01*
G37*
X201615640Y-46006568D02*
X201515640Y-46006568D01*
X201515640Y-45906568D01*
X201615640Y-45906568D01*
X201615640Y-46006568D01*
G36*
X201615640Y-46006568D02*
G01*
X201515640Y-46006568D01*
X201515640Y-45906568D01*
X201615640Y-45906568D01*
X201615640Y-46006568D01*
G37*
X202015640Y-45806568D02*
X201215640Y-45806568D01*
X201215640Y-45706568D01*
X202015640Y-45706568D01*
X202015640Y-45806568D01*
G36*
X202015640Y-45806568D02*
G01*
X201215640Y-45806568D01*
X201215640Y-45706568D01*
X202015640Y-45706568D01*
X202015640Y-45806568D01*
G37*
X202015640Y-46206568D02*
X201715640Y-46206568D01*
X201715640Y-46106568D01*
X202015640Y-46106568D01*
X202015640Y-46206568D01*
G36*
X202015640Y-46206568D02*
G01*
X201715640Y-46206568D01*
X201715640Y-46106568D01*
X202015640Y-46106568D01*
X202015640Y-46206568D01*
G37*
X202015640Y-46206568D02*
X201915640Y-46206568D01*
X201915640Y-45706568D01*
X202015640Y-45706568D01*
X202015640Y-46206568D01*
G36*
X202015640Y-46206568D02*
G01*
X201915640Y-46206568D01*
X201915640Y-45706568D01*
X202015640Y-45706568D01*
X202015640Y-46206568D01*
G37*
D11*
G04 #@! TO.C,D10*
X171785000Y-98140000D02*
X172885000Y-98140000D01*
X171935000Y-97540000D02*
X172735000Y-97540000D01*
X172335000Y-97540000D02*
X172335000Y-97040000D01*
X172335000Y-98140000D02*
X171935000Y-97540000D01*
X172335000Y-98540000D02*
X172335000Y-98140000D01*
X172735000Y-97540000D02*
X172335000Y-98140000D01*
D12*
G04 #@! TO.C,S9*
X136660000Y-90690000D02*
X136660000Y-104890000D01*
X136660000Y-104890000D02*
X150860000Y-104890000D01*
X150860000Y-90690000D02*
X136660000Y-90690000D01*
X150860000Y-104890000D02*
X150860000Y-90690000D01*
G04 #@! TO.C,S2*
X155710000Y-52590000D02*
X155710000Y-66790000D01*
X155710000Y-66790000D02*
X169910000Y-66790000D01*
X169910000Y-52590000D02*
X155710000Y-52590000D01*
X169910000Y-66790000D02*
X169910000Y-52590000D01*
D11*
G04 #@! TO.C,D5*
X152735000Y-79090000D02*
X153835000Y-79090000D01*
X152885000Y-78490000D02*
X153685000Y-78490000D01*
X153285000Y-78490000D02*
X153285000Y-77990000D01*
X153285000Y-79090000D02*
X152885000Y-78490000D01*
X153285000Y-79490000D02*
X153285000Y-79090000D01*
X153685000Y-78490000D02*
X153285000Y-79090000D01*
D12*
G04 #@! TO.C,S10*
X155710000Y-90690000D02*
X155710000Y-104890000D01*
X155710000Y-104890000D02*
X169910000Y-104890000D01*
X169910000Y-90690000D02*
X155710000Y-90690000D01*
X169910000Y-104890000D02*
X169910000Y-90690000D01*
D11*
G04 #@! TO.C,D8*
X209885000Y-79090000D02*
X210985000Y-79090000D01*
X210035000Y-78490000D02*
X210835000Y-78490000D01*
X210435000Y-78490000D02*
X210435000Y-77990000D01*
X210435000Y-79090000D02*
X210035000Y-78490000D01*
X210435000Y-79490000D02*
X210435000Y-79090000D01*
X210835000Y-78490000D02*
X210435000Y-79090000D01*
D12*
G04 #@! TO.C,S1*
X136660000Y-52590000D02*
X136660000Y-66790000D01*
X136660000Y-66790000D02*
X150860000Y-66790000D01*
X150860000Y-52590000D02*
X136660000Y-52590000D01*
X150860000Y-66790000D02*
X150860000Y-52590000D01*
G04 #@! TO.C,S3*
X174760000Y-52590000D02*
X174760000Y-66790000D01*
X174760000Y-66790000D02*
X188960000Y-66790000D01*
X188960000Y-52590000D02*
X174760000Y-52590000D01*
X188960000Y-66790000D02*
X188960000Y-52590000D01*
D11*
G04 #@! TO.C,D11*
X190835000Y-98140000D02*
X191935000Y-98140000D01*
X190985000Y-97540000D02*
X191785000Y-97540000D01*
X191385000Y-97540000D02*
X191385000Y-97040000D01*
X191385000Y-98140000D02*
X190985000Y-97540000D01*
X191385000Y-98540000D02*
X191385000Y-98140000D01*
X191785000Y-97540000D02*
X191385000Y-98140000D01*
G04 #@! TO.C,D6*
X171785000Y-79090000D02*
X172885000Y-79090000D01*
X171935000Y-78490000D02*
X172735000Y-78490000D01*
X172335000Y-78490000D02*
X172335000Y-77990000D01*
X172335000Y-79090000D02*
X171935000Y-78490000D01*
X172335000Y-79490000D02*
X172335000Y-79090000D01*
X172735000Y-78490000D02*
X172335000Y-79090000D01*
G04 #@! TO.C,D3*
X190835000Y-60040000D02*
X191935000Y-60040000D01*
X190985000Y-59440000D02*
X191785000Y-59440000D01*
X191385000Y-59440000D02*
X191385000Y-58940000D01*
X191385000Y-60040000D02*
X190985000Y-59440000D01*
X191385000Y-60440000D02*
X191385000Y-60040000D01*
X191785000Y-59440000D02*
X191385000Y-60040000D01*
G04 #@! TO.C,D7*
X190835000Y-79090000D02*
X191935000Y-79090000D01*
X190985000Y-78490000D02*
X191785000Y-78490000D01*
X191385000Y-78490000D02*
X191385000Y-77990000D01*
X191385000Y-79090000D02*
X190985000Y-78490000D01*
X191385000Y-79490000D02*
X191385000Y-79090000D01*
X191785000Y-78490000D02*
X191385000Y-79090000D01*
D12*
G04 #@! TO.C,S11*
X174760000Y-90690000D02*
X174760000Y-104890000D01*
X174760000Y-104890000D02*
X188960000Y-104890000D01*
X188960000Y-90690000D02*
X174760000Y-90690000D01*
X188960000Y-104890000D02*
X188960000Y-90690000D01*
G04 #@! TO.C,S6*
X155710000Y-71640000D02*
X155710000Y-85840000D01*
X155710000Y-85840000D02*
X169910000Y-85840000D01*
X169910000Y-71640000D02*
X155710000Y-71640000D01*
X169910000Y-85840000D02*
X169910000Y-71640000D01*
G04 #@! TO.C,S5*
X136660000Y-71640000D02*
X136660000Y-85840000D01*
X136660000Y-85840000D02*
X150860000Y-85840000D01*
X150860000Y-71640000D02*
X136660000Y-71640000D01*
X150860000Y-85840000D02*
X150860000Y-71640000D01*
D11*
G04 #@! TO.C,D12*
X209885000Y-98140000D02*
X210985000Y-98140000D01*
X210035000Y-97540000D02*
X210835000Y-97540000D01*
X210435000Y-97540000D02*
X210435000Y-97040000D01*
X210435000Y-98140000D02*
X210035000Y-97540000D01*
X210435000Y-98540000D02*
X210435000Y-98140000D01*
X210835000Y-97540000D02*
X210435000Y-98140000D01*
G04 #@! TO.C,D1*
X152735000Y-60040000D02*
X153835000Y-60040000D01*
X152885000Y-59440000D02*
X153685000Y-59440000D01*
X153285000Y-59440000D02*
X153285000Y-58940000D01*
X153285000Y-60040000D02*
X152885000Y-59440000D01*
X153285000Y-60440000D02*
X153285000Y-60040000D01*
X153685000Y-59440000D02*
X153285000Y-60040000D01*
G04 #@! TO.C,D2*
X171785000Y-60040000D02*
X172885000Y-60040000D01*
X171935000Y-59440000D02*
X172735000Y-59440000D01*
X172335000Y-59440000D02*
X172335000Y-58940000D01*
X172335000Y-60040000D02*
X171935000Y-59440000D01*
X172335000Y-60440000D02*
X172335000Y-60040000D01*
X172735000Y-59440000D02*
X172335000Y-60040000D01*
D12*
G04 #@! TO.C,S12*
X193810000Y-90690000D02*
X193810000Y-104890000D01*
X193810000Y-104890000D02*
X208010000Y-104890000D01*
X208010000Y-90690000D02*
X193810000Y-90690000D01*
X208010000Y-104890000D02*
X208010000Y-90690000D01*
G04 #@! TO.C,S8*
X193810000Y-71640000D02*
X193810000Y-85840000D01*
X193810000Y-85840000D02*
X208010000Y-85840000D01*
X208010000Y-71640000D02*
X193810000Y-71640000D01*
X208010000Y-85840000D02*
X208010000Y-71640000D01*
G04 #@! TO.C,S7*
X174760000Y-71640000D02*
X174760000Y-85840000D01*
X174760000Y-85840000D02*
X188960000Y-85840000D01*
X188960000Y-71640000D02*
X174760000Y-71640000D01*
X188960000Y-85840000D02*
X188960000Y-71640000D01*
G04 #@! TD*
D14*
G04 #@! TO.C,U1*
X206625000Y-33655000D03*
D15*
X204085000Y-33655000D03*
X201545000Y-33655000D03*
X199005000Y-33655000D03*
X196465000Y-33655000D03*
X193925000Y-33655000D03*
X191385000Y-33655000D03*
X188845000Y-33655000D03*
X186305000Y-33655000D03*
X183765000Y-33655000D03*
X181225000Y-33655000D03*
X178685000Y-33655000D03*
X178685000Y-48895000D03*
X181225000Y-48895000D03*
X183765000Y-48895000D03*
X186305000Y-48895000D03*
X188845000Y-48895000D03*
X191385000Y-48895000D03*
X193925000Y-48895000D03*
X196465000Y-48895000D03*
X199005000Y-48895000D03*
X201545000Y-48895000D03*
X204085000Y-48895000D03*
X206625000Y-48895000D03*
G04 #@! TD*
%LPC*%
D16*
G04 #@! TO.C,D4*
X210435000Y-63500000D03*
D17*
X210435000Y-55880000D03*
G04 #@! TD*
D16*
G04 #@! TO.C,D9*
X153285000Y-101600000D03*
D17*
X153285000Y-93980000D03*
G04 #@! TD*
D18*
G04 #@! TO.C,S4*
X195830000Y-59690000D03*
D19*
X200910000Y-59690000D03*
D18*
X205990000Y-59690000D03*
D20*
X197100000Y-57150000D03*
X203450000Y-54610000D03*
G04 #@! TD*
D14*
G04 #@! TO.C,U1*
X206625000Y-33655000D03*
D15*
X204085000Y-33655000D03*
X201545000Y-33655000D03*
X199005000Y-33655000D03*
X196465000Y-33655000D03*
X193925000Y-33655000D03*
X191385000Y-33655000D03*
X188845000Y-33655000D03*
X186305000Y-33655000D03*
X183765000Y-33655000D03*
X181225000Y-33655000D03*
X178685000Y-33655000D03*
X178685000Y-48895000D03*
X181225000Y-48895000D03*
X183765000Y-48895000D03*
X186305000Y-48895000D03*
X188845000Y-48895000D03*
X191385000Y-48895000D03*
X193925000Y-48895000D03*
X196465000Y-48895000D03*
X199005000Y-48895000D03*
X201545000Y-48895000D03*
X204085000Y-48895000D03*
X206625000Y-48895000D03*
G04 #@! TD*
D16*
G04 #@! TO.C,D10*
X172335000Y-101600000D03*
D17*
X172335000Y-93980000D03*
G04 #@! TD*
D18*
G04 #@! TO.C,S9*
X138680000Y-97790000D03*
D19*
X143760000Y-97790000D03*
D18*
X148840000Y-97790000D03*
D20*
X139950000Y-95250000D03*
X146300000Y-92710000D03*
G04 #@! TD*
D18*
G04 #@! TO.C,S2*
X157730000Y-59690000D03*
D19*
X162810000Y-59690000D03*
D18*
X167890000Y-59690000D03*
D20*
X159000000Y-57150000D03*
X165350000Y-54610000D03*
G04 #@! TD*
D16*
G04 #@! TO.C,D5*
X153285000Y-82550000D03*
D17*
X153285000Y-74930000D03*
G04 #@! TD*
D18*
G04 #@! TO.C,S10*
X157730000Y-97790000D03*
D19*
X162810000Y-97790000D03*
D18*
X167890000Y-97790000D03*
D20*
X159000000Y-95250000D03*
X165350000Y-92710000D03*
G04 #@! TD*
D16*
G04 #@! TO.C,D8*
X210435000Y-82550000D03*
D17*
X210435000Y-74930000D03*
G04 #@! TD*
D18*
G04 #@! TO.C,S1*
X138680000Y-59690000D03*
D19*
X143760000Y-59690000D03*
D18*
X148840000Y-59690000D03*
D20*
X139950000Y-57150000D03*
X146300000Y-54610000D03*
G04 #@! TD*
D18*
G04 #@! TO.C,S3*
X176780000Y-59690000D03*
D19*
X181860000Y-59690000D03*
D18*
X186940000Y-59690000D03*
D20*
X178050000Y-57150000D03*
X184400000Y-54610000D03*
G04 #@! TD*
D21*
G04 #@! TO.C,SW1*
X136260000Y-38140000D03*
D22*
X136260000Y-43140000D03*
X136260000Y-40640000D03*
D23*
X143760000Y-35040000D03*
X143760000Y-46240000D03*
D22*
X150760000Y-43140000D03*
X150760000Y-38140000D03*
G04 #@! TD*
D16*
G04 #@! TO.C,D11*
X191385000Y-101600000D03*
D17*
X191385000Y-93980000D03*
G04 #@! TD*
D16*
G04 #@! TO.C,D6*
X172335000Y-82550000D03*
D17*
X172335000Y-74930000D03*
G04 #@! TD*
D16*
G04 #@! TO.C,D3*
X191385000Y-63500000D03*
D17*
X191385000Y-55880000D03*
G04 #@! TD*
D16*
G04 #@! TO.C,D7*
X191385000Y-82550000D03*
D17*
X191385000Y-74930000D03*
G04 #@! TD*
D18*
G04 #@! TO.C,S11*
X176780000Y-97790000D03*
D19*
X181860000Y-97790000D03*
D18*
X186940000Y-97790000D03*
D20*
X178050000Y-95250000D03*
X184400000Y-92710000D03*
G04 #@! TD*
D18*
G04 #@! TO.C,S6*
X157730000Y-78740000D03*
D19*
X162810000Y-78740000D03*
D18*
X167890000Y-78740000D03*
D20*
X159000000Y-76200000D03*
X165350000Y-73660000D03*
G04 #@! TD*
D18*
G04 #@! TO.C,S5*
X138680000Y-78740000D03*
D19*
X143760000Y-78740000D03*
D18*
X148840000Y-78740000D03*
D20*
X139950000Y-76200000D03*
X146300000Y-73660000D03*
G04 #@! TD*
D16*
G04 #@! TO.C,D12*
X210435000Y-101600000D03*
D17*
X210435000Y-93980000D03*
G04 #@! TD*
D16*
G04 #@! TO.C,D1*
X153285000Y-63500000D03*
D17*
X153285000Y-55880000D03*
G04 #@! TD*
D16*
G04 #@! TO.C,D2*
X172335000Y-63500000D03*
D17*
X172335000Y-55880000D03*
G04 #@! TD*
D18*
G04 #@! TO.C,S12*
X195830000Y-97790000D03*
D19*
X200910000Y-97790000D03*
D18*
X205990000Y-97790000D03*
D20*
X197100000Y-95250000D03*
X203450000Y-92710000D03*
G04 #@! TD*
D18*
G04 #@! TO.C,S8*
X195830000Y-78740000D03*
D19*
X200910000Y-78740000D03*
D18*
X205990000Y-78740000D03*
D20*
X197100000Y-76200000D03*
X203450000Y-73660000D03*
G04 #@! TD*
D18*
G04 #@! TO.C,S7*
X176780000Y-78740000D03*
D19*
X181860000Y-78740000D03*
D18*
X186940000Y-78740000D03*
D20*
X178050000Y-76200000D03*
X184400000Y-73660000D03*
G04 #@! TD*
%LPD*%
M02*
