G04 #@! TF.GenerationSoftware,KiCad,Pcbnew,8.0.8*
G04 #@! TF.CreationDate,2025-02-10T09:22:13+01:00*
G04 #@! TF.ProjectId,better,62657474-6572-42e6-9b69-6361645f7063,rev?*
G04 #@! TF.SameCoordinates,Original*
G04 #@! TF.FileFunction,Soldermask,Bot*
G04 #@! TF.FilePolarity,Negative*
%FSLAX46Y46*%
G04 Gerber Fmt 4.6, Leading zero omitted, Abs format (unit mm)*
G04 Created by KiCad (PCBNEW 8.0.8) date 2025-02-10 09:22:13*
%MOMM*%
%LPD*%
G01*
G04 APERTURE LIST*
%ADD10R,1.600000X1.600000*%
%ADD11O,1.600000X1.600000*%
%ADD12C,1.750000*%
%ADD13C,4.000000*%
%ADD14C,2.500000*%
%ADD15R,1.752600X1.752600*%
%ADD16C,1.752600*%
%ADD17R,2.000000X2.000000*%
%ADD18C,2.000000*%
%ADD19R,3.200000X2.000000*%
G04 APERTURE END LIST*
D10*
G04 #@! TO.C,D4*
X210435000Y-63500000D03*
D11*
X210435000Y-55880000D03*
G04 #@! TD*
D10*
G04 #@! TO.C,D9*
X153285000Y-101600000D03*
D11*
X153285000Y-93980000D03*
G04 #@! TD*
D12*
G04 #@! TO.C,S4*
X195830000Y-59690000D03*
D13*
X200910000Y-59690000D03*
D12*
X205990000Y-59690000D03*
D14*
X197100000Y-57150000D03*
X203450000Y-54610000D03*
G04 #@! TD*
D15*
G04 #@! TO.C,U1*
X206625000Y-33655000D03*
D16*
X204085000Y-33655000D03*
X201545000Y-33655000D03*
X199005000Y-33655000D03*
X196465000Y-33655000D03*
X193925000Y-33655000D03*
X191385000Y-33655000D03*
X188845000Y-33655000D03*
X186305000Y-33655000D03*
X183765000Y-33655000D03*
X181225000Y-33655000D03*
X178685000Y-33655000D03*
X178685000Y-48895000D03*
X181225000Y-48895000D03*
X183765000Y-48895000D03*
X186305000Y-48895000D03*
X188845000Y-48895000D03*
X191385000Y-48895000D03*
X193925000Y-48895000D03*
X196465000Y-48895000D03*
X199005000Y-48895000D03*
X201545000Y-48895000D03*
X204085000Y-48895000D03*
X206625000Y-48895000D03*
G04 #@! TD*
D10*
G04 #@! TO.C,D10*
X172335000Y-101600000D03*
D11*
X172335000Y-93980000D03*
G04 #@! TD*
D12*
G04 #@! TO.C,S9*
X138680000Y-97790000D03*
D13*
X143760000Y-97790000D03*
D12*
X148840000Y-97790000D03*
D14*
X139950000Y-95250000D03*
X146300000Y-92710000D03*
G04 #@! TD*
D12*
G04 #@! TO.C,S2*
X157730000Y-59690000D03*
D13*
X162810000Y-59690000D03*
D12*
X167890000Y-59690000D03*
D14*
X159000000Y-57150000D03*
X165350000Y-54610000D03*
G04 #@! TD*
D10*
G04 #@! TO.C,D5*
X153285000Y-82550000D03*
D11*
X153285000Y-74930000D03*
G04 #@! TD*
D12*
G04 #@! TO.C,S10*
X157730000Y-97790000D03*
D13*
X162810000Y-97790000D03*
D12*
X167890000Y-97790000D03*
D14*
X159000000Y-95250000D03*
X165350000Y-92710000D03*
G04 #@! TD*
D10*
G04 #@! TO.C,D8*
X210435000Y-82550000D03*
D11*
X210435000Y-74930000D03*
G04 #@! TD*
D12*
G04 #@! TO.C,S1*
X138680000Y-59690000D03*
D13*
X143760000Y-59690000D03*
D12*
X148840000Y-59690000D03*
D14*
X139950000Y-57150000D03*
X146300000Y-54610000D03*
G04 #@! TD*
D12*
G04 #@! TO.C,S3*
X176780000Y-59690000D03*
D13*
X181860000Y-59690000D03*
D12*
X186940000Y-59690000D03*
D14*
X178050000Y-57150000D03*
X184400000Y-54610000D03*
G04 #@! TD*
D17*
G04 #@! TO.C,SW1*
X136260000Y-38140000D03*
D18*
X136260000Y-43140000D03*
X136260000Y-40640000D03*
D19*
X143760000Y-35040000D03*
X143760000Y-46240000D03*
D18*
X150760000Y-43140000D03*
X150760000Y-38140000D03*
G04 #@! TD*
D10*
G04 #@! TO.C,D11*
X191385000Y-101600000D03*
D11*
X191385000Y-93980000D03*
G04 #@! TD*
D10*
G04 #@! TO.C,D6*
X172335000Y-82550000D03*
D11*
X172335000Y-74930000D03*
G04 #@! TD*
D10*
G04 #@! TO.C,D3*
X191385000Y-63500000D03*
D11*
X191385000Y-55880000D03*
G04 #@! TD*
D10*
G04 #@! TO.C,D7*
X191385000Y-82550000D03*
D11*
X191385000Y-74930000D03*
G04 #@! TD*
D12*
G04 #@! TO.C,S11*
X176780000Y-97790000D03*
D13*
X181860000Y-97790000D03*
D12*
X186940000Y-97790000D03*
D14*
X178050000Y-95250000D03*
X184400000Y-92710000D03*
G04 #@! TD*
D12*
G04 #@! TO.C,S6*
X157730000Y-78740000D03*
D13*
X162810000Y-78740000D03*
D12*
X167890000Y-78740000D03*
D14*
X159000000Y-76200000D03*
X165350000Y-73660000D03*
G04 #@! TD*
D12*
G04 #@! TO.C,S5*
X138680000Y-78740000D03*
D13*
X143760000Y-78740000D03*
D12*
X148840000Y-78740000D03*
D14*
X139950000Y-76200000D03*
X146300000Y-73660000D03*
G04 #@! TD*
D10*
G04 #@! TO.C,D12*
X210435000Y-101600000D03*
D11*
X210435000Y-93980000D03*
G04 #@! TD*
D10*
G04 #@! TO.C,D1*
X153285000Y-63500000D03*
D11*
X153285000Y-55880000D03*
G04 #@! TD*
D10*
G04 #@! TO.C,D2*
X172335000Y-63500000D03*
D11*
X172335000Y-55880000D03*
G04 #@! TD*
D12*
G04 #@! TO.C,S12*
X195830000Y-97790000D03*
D13*
X200910000Y-97790000D03*
D12*
X205990000Y-97790000D03*
D14*
X197100000Y-95250000D03*
X203450000Y-92710000D03*
G04 #@! TD*
D12*
G04 #@! TO.C,S8*
X195830000Y-78740000D03*
D13*
X200910000Y-78740000D03*
D12*
X205990000Y-78740000D03*
D14*
X197100000Y-76200000D03*
X203450000Y-73660000D03*
G04 #@! TD*
D12*
G04 #@! TO.C,S7*
X176780000Y-78740000D03*
D13*
X181860000Y-78740000D03*
D12*
X186940000Y-78740000D03*
D14*
X178050000Y-76200000D03*
X184400000Y-73660000D03*
G04 #@! TD*
M02*
