G04 #@! TF.GenerationSoftware,KiCad,Pcbnew,8.0.8*
G04 #@! TF.CreationDate,2025-02-10T09:22:13+01:00*
G04 #@! TF.ProjectId,better,62657474-6572-42e6-9b69-6361645f7063,rev?*
G04 #@! TF.SameCoordinates,Original*
G04 #@! TF.FileFunction,Copper,L2,Bot*
G04 #@! TF.FilePolarity,Positive*
%FSLAX46Y46*%
G04 Gerber Fmt 4.6, Leading zero omitted, Abs format (unit mm)*
G04 Created by KiCad (PCBNEW 8.0.8) date 2025-02-10 09:22:13*
%MOMM*%
%LPD*%
G01*
G04 APERTURE LIST*
G04 #@! TA.AperFunction,ComponentPad*
%ADD10R,1.600000X1.600000*%
G04 #@! TD*
G04 #@! TA.AperFunction,ComponentPad*
%ADD11O,1.600000X1.600000*%
G04 #@! TD*
G04 #@! TA.AperFunction,ComponentPad*
%ADD12C,2.500000*%
G04 #@! TD*
G04 #@! TA.AperFunction,ComponentPad*
%ADD13R,1.752600X1.752600*%
G04 #@! TD*
G04 #@! TA.AperFunction,ComponentPad*
%ADD14C,1.752600*%
G04 #@! TD*
G04 #@! TA.AperFunction,ComponentPad*
%ADD15R,2.000000X2.000000*%
G04 #@! TD*
G04 #@! TA.AperFunction,ComponentPad*
%ADD16C,2.000000*%
G04 #@! TD*
G04 #@! TA.AperFunction,ComponentPad*
%ADD17R,3.200000X2.000000*%
G04 #@! TD*
G04 #@! TA.AperFunction,ViaPad*
%ADD18C,0.600000*%
G04 #@! TD*
G04 #@! TA.AperFunction,Conductor*
%ADD19C,0.200000*%
G04 #@! TD*
G04 APERTURE END LIST*
D10*
G04 #@! TO.P,D4,1,K*
G04 #@! TO.N,Row1*
X210435000Y-63500000D03*
D11*
G04 #@! TO.P,D4,2,A*
G04 #@! TO.N,Net-(D4-A)*
X210435000Y-55880000D03*
G04 #@! TD*
D10*
G04 #@! TO.P,D9,1,K*
G04 #@! TO.N,Row3*
X153285000Y-101600000D03*
D11*
G04 #@! TO.P,D9,2,A*
G04 #@! TO.N,Net-(D9-A)*
X153285000Y-93980000D03*
G04 #@! TD*
D12*
G04 #@! TO.P,S4,1,1*
G04 #@! TO.N,Col4*
X197100000Y-57150000D03*
G04 #@! TO.P,S4,2,2*
G04 #@! TO.N,Net-(D4-A)*
X203450000Y-54610000D03*
G04 #@! TD*
D13*
G04 #@! TO.P,U1,1,TX0/PD3*
G04 #@! TO.N,unconnected-(U1-TX0{slash}PD3-Pad1)*
X206625000Y-33655000D03*
D14*
G04 #@! TO.P,U1,2,RX1/PD2*
G04 #@! TO.N,unconnected-(U1-RX1{slash}PD2-Pad2)*
X204085000Y-33655000D03*
G04 #@! TO.P,U1,3,GND*
G04 #@! TO.N,unconnected-(U1-GND-Pad3)*
X201545000Y-33655000D03*
G04 #@! TO.P,U1,4,GND*
G04 #@! TO.N,GND*
X199005000Y-33655000D03*
G04 #@! TO.P,U1,5,2/PD1*
G04 #@! TO.N,ENCa*
X196465000Y-33655000D03*
G04 #@! TO.P,U1,6,3/PD0*
G04 #@! TO.N,ENCb*
X193925000Y-33655000D03*
G04 #@! TO.P,U1,7,4/PD4*
G04 #@! TO.N,ENCsw*
X191385000Y-33655000D03*
G04 #@! TO.P,U1,8,5/PC6*
G04 #@! TO.N,Row3*
X188845000Y-33655000D03*
G04 #@! TO.P,U1,9,6/PD7*
G04 #@! TO.N,Row2*
X186305000Y-33655000D03*
G04 #@! TO.P,U1,10,7/PE6*
G04 #@! TO.N,Row1*
X183765000Y-33655000D03*
G04 #@! TO.P,U1,11,8/PB4*
G04 #@! TO.N,unconnected-(U1-8{slash}PB4-Pad11)*
X181225000Y-33655000D03*
G04 #@! TO.P,U1,12,9/PB5*
G04 #@! TO.N,unconnected-(U1-9{slash}PB5-Pad12)*
X178685000Y-33655000D03*
G04 #@! TO.P,U1,13,10/PB6*
G04 #@! TO.N,Col1*
X178685000Y-48895000D03*
G04 #@! TO.P,U1,14,16/PB2*
G04 #@! TO.N,Col2*
X181225000Y-48895000D03*
G04 #@! TO.P,U1,15,14/PB3*
G04 #@! TO.N,Col3*
X183765000Y-48895000D03*
G04 #@! TO.P,U1,16,15/PB1*
G04 #@! TO.N,Col4*
X186305000Y-48895000D03*
G04 #@! TO.P,U1,17,A0/PF7*
G04 #@! TO.N,unconnected-(U1-A0{slash}PF7-Pad17)*
X188845000Y-48895000D03*
G04 #@! TO.P,U1,18,A1/PF6*
G04 #@! TO.N,unconnected-(U1-A1{slash}PF6-Pad18)*
X191385000Y-48895000D03*
G04 #@! TO.P,U1,19,A2/PF5*
G04 #@! TO.N,unconnected-(U1-A2{slash}PF5-Pad19)*
X193925000Y-48895000D03*
G04 #@! TO.P,U1,20,A3/PF4*
G04 #@! TO.N,unconnected-(U1-A3{slash}PF4-Pad20)*
X196465000Y-48895000D03*
G04 #@! TO.P,U1,21,VCC*
G04 #@! TO.N,unconnected-(U1-VCC-Pad21)*
X199005000Y-48895000D03*
G04 #@! TO.P,U1,22,RST*
G04 #@! TO.N,unconnected-(U1-RST-Pad22)*
X201545000Y-48895000D03*
G04 #@! TO.P,U1,23,GND*
G04 #@! TO.N,unconnected-(U1-GND-Pad23)*
X204085000Y-48895000D03*
G04 #@! TO.P,U1,24,RAW*
G04 #@! TO.N,unconnected-(U1-RAW-Pad24)*
X206625000Y-48895000D03*
G04 #@! TD*
D10*
G04 #@! TO.P,D10,1,K*
G04 #@! TO.N,Row3*
X172335000Y-101600000D03*
D11*
G04 #@! TO.P,D10,2,A*
G04 #@! TO.N,Net-(D10-A)*
X172335000Y-93980000D03*
G04 #@! TD*
D12*
G04 #@! TO.P,S9,1,1*
G04 #@! TO.N,Col1*
X139950000Y-95250000D03*
G04 #@! TO.P,S9,2,2*
G04 #@! TO.N,Net-(D9-A)*
X146300000Y-92710000D03*
G04 #@! TD*
G04 #@! TO.P,S2,1,1*
G04 #@! TO.N,Col2*
X159000000Y-57150000D03*
G04 #@! TO.P,S2,2,2*
G04 #@! TO.N,Net-(D2-A)*
X165350000Y-54610000D03*
G04 #@! TD*
D10*
G04 #@! TO.P,D5,1,K*
G04 #@! TO.N,Row2*
X153285000Y-82550000D03*
D11*
G04 #@! TO.P,D5,2,A*
G04 #@! TO.N,Net-(D5-A)*
X153285000Y-74930000D03*
G04 #@! TD*
D12*
G04 #@! TO.P,S10,1,1*
G04 #@! TO.N,Col2*
X159000000Y-95250000D03*
G04 #@! TO.P,S10,2,2*
G04 #@! TO.N,Net-(D10-A)*
X165350000Y-92710000D03*
G04 #@! TD*
D10*
G04 #@! TO.P,D8,1,K*
G04 #@! TO.N,Row2*
X210435000Y-82550000D03*
D11*
G04 #@! TO.P,D8,2,A*
G04 #@! TO.N,Net-(D8-A)*
X210435000Y-74930000D03*
G04 #@! TD*
D12*
G04 #@! TO.P,S1,1,1*
G04 #@! TO.N,Col1*
X139950000Y-57150000D03*
G04 #@! TO.P,S1,2,2*
G04 #@! TO.N,Net-(D1-A)*
X146300000Y-54610000D03*
G04 #@! TD*
G04 #@! TO.P,S3,1,1*
G04 #@! TO.N,Col3*
X178050000Y-57150000D03*
G04 #@! TO.P,S3,2,2*
G04 #@! TO.N,Net-(D3-A)*
X184400000Y-54610000D03*
G04 #@! TD*
D15*
G04 #@! TO.P,SW1,A,A*
G04 #@! TO.N,ENCa*
X136260000Y-38140000D03*
D16*
G04 #@! TO.P,SW1,B,B*
G04 #@! TO.N,ENCb*
X136260000Y-43140000D03*
G04 #@! TO.P,SW1,C,C*
G04 #@! TO.N,GND*
X136260000Y-40640000D03*
D17*
G04 #@! TO.P,SW1,MP*
G04 #@! TO.N,N/C*
X143760000Y-35040000D03*
X143760000Y-46240000D03*
D16*
G04 #@! TO.P,SW1,S1,S1*
G04 #@! TO.N,ENCsw*
X150760000Y-43140000D03*
G04 #@! TO.P,SW1,S2,S2*
G04 #@! TO.N,GND*
X150760000Y-38140000D03*
G04 #@! TD*
D10*
G04 #@! TO.P,D11,1,K*
G04 #@! TO.N,Row3*
X191385000Y-101600000D03*
D11*
G04 #@! TO.P,D11,2,A*
G04 #@! TO.N,Net-(D11-A)*
X191385000Y-93980000D03*
G04 #@! TD*
D10*
G04 #@! TO.P,D6,1,K*
G04 #@! TO.N,Row2*
X172335000Y-82550000D03*
D11*
G04 #@! TO.P,D6,2,A*
G04 #@! TO.N,Net-(D6-A)*
X172335000Y-74930000D03*
G04 #@! TD*
D10*
G04 #@! TO.P,D3,1,K*
G04 #@! TO.N,Row1*
X191385000Y-63500000D03*
D11*
G04 #@! TO.P,D3,2,A*
G04 #@! TO.N,Net-(D3-A)*
X191385000Y-55880000D03*
G04 #@! TD*
D10*
G04 #@! TO.P,D7,1,K*
G04 #@! TO.N,Row2*
X191385000Y-82550000D03*
D11*
G04 #@! TO.P,D7,2,A*
G04 #@! TO.N,Net-(D7-A)*
X191385000Y-74930000D03*
G04 #@! TD*
D12*
G04 #@! TO.P,S11,1,1*
G04 #@! TO.N,Col3*
X178050000Y-95250000D03*
G04 #@! TO.P,S11,2,2*
G04 #@! TO.N,Net-(D11-A)*
X184400000Y-92710000D03*
G04 #@! TD*
G04 #@! TO.P,S6,1,1*
G04 #@! TO.N,Col2*
X159000000Y-76200000D03*
G04 #@! TO.P,S6,2,2*
G04 #@! TO.N,Net-(D6-A)*
X165350000Y-73660000D03*
G04 #@! TD*
G04 #@! TO.P,S5,1,1*
G04 #@! TO.N,Col1*
X139950000Y-76200000D03*
G04 #@! TO.P,S5,2,2*
G04 #@! TO.N,Net-(D5-A)*
X146300000Y-73660000D03*
G04 #@! TD*
D10*
G04 #@! TO.P,D12,1,K*
G04 #@! TO.N,Row3*
X210435000Y-101600000D03*
D11*
G04 #@! TO.P,D12,2,A*
G04 #@! TO.N,Net-(D12-A)*
X210435000Y-93980000D03*
G04 #@! TD*
D10*
G04 #@! TO.P,D1,1,K*
G04 #@! TO.N,Row1*
X153285000Y-63500000D03*
D11*
G04 #@! TO.P,D1,2,A*
G04 #@! TO.N,Net-(D1-A)*
X153285000Y-55880000D03*
G04 #@! TD*
D10*
G04 #@! TO.P,D2,1,K*
G04 #@! TO.N,Row1*
X172335000Y-63500000D03*
D11*
G04 #@! TO.P,D2,2,A*
G04 #@! TO.N,Net-(D2-A)*
X172335000Y-55880000D03*
G04 #@! TD*
D12*
G04 #@! TO.P,S12,1,1*
G04 #@! TO.N,Col4*
X197100000Y-95250000D03*
G04 #@! TO.P,S12,2,2*
G04 #@! TO.N,Net-(D12-A)*
X203450000Y-92710000D03*
G04 #@! TD*
G04 #@! TO.P,S8,1,1*
G04 #@! TO.N,Col4*
X197100000Y-76200000D03*
G04 #@! TO.P,S8,2,2*
G04 #@! TO.N,Net-(D8-A)*
X203450000Y-73660000D03*
G04 #@! TD*
G04 #@! TO.P,S7,1,1*
G04 #@! TO.N,Col3*
X178050000Y-76200000D03*
G04 #@! TO.P,S7,2,2*
G04 #@! TO.N,Net-(D7-A)*
X184400000Y-73660000D03*
G04 #@! TD*
D18*
G04 #@! TO.N,Row2*
X174716250Y-51355625D03*
G04 #@! TO.N,Row3*
X175906875Y-51355625D03*
G04 #@! TD*
D19*
G04 #@! TO.N,Row2*
X174716250Y-80168750D02*
X172335000Y-82550000D01*
X174716250Y-51355625D02*
X174716250Y-80168750D01*
G04 #@! TO.N,Row3*
X175116250Y-98818750D02*
X172335000Y-101600000D01*
X175906875Y-51355625D02*
X175116250Y-52146250D01*
X175116250Y-52146250D02*
X175116250Y-98818750D01*
G04 #@! TO.N,Col1*
X139950000Y-95250000D02*
X139950000Y-76200000D01*
X139950000Y-57150000D02*
X139950000Y-51593750D01*
X177415000Y-50165000D02*
X178685000Y-48895000D01*
X139950000Y-51593750D02*
X141378750Y-50165000D01*
X141378750Y-50165000D02*
X177415000Y-50165000D01*
X139950000Y-76200000D02*
X139950000Y-57150000D01*
G04 #@! TO.N,Col2*
X159000000Y-51993750D02*
X160428750Y-50565000D01*
X179555000Y-50565000D02*
X181225000Y-48895000D01*
X159000000Y-76200000D02*
X159000000Y-95250000D01*
X160428750Y-50565000D02*
X179555000Y-50565000D01*
X159000000Y-57150000D02*
X159000000Y-51993750D01*
X159000000Y-57150000D02*
X159000000Y-76200000D01*
G04 #@! TO.N,Col3*
X181695000Y-50965000D02*
X183765000Y-48895000D01*
X178050000Y-95250000D02*
X178050000Y-76200000D01*
X178050000Y-52393750D02*
X179478750Y-50965000D01*
X178050000Y-76200000D02*
X178050000Y-57150000D01*
X179478750Y-50965000D02*
X181695000Y-50965000D01*
X178050000Y-57150000D02*
X178050000Y-52393750D01*
G04 #@! TO.N,Col4*
X196147500Y-52546250D02*
X189956250Y-52546250D01*
X197100000Y-53498750D02*
X196147500Y-52546250D01*
X197100000Y-57150000D02*
X197100000Y-76200000D01*
X197100000Y-57150000D02*
X197100000Y-53498750D01*
X197100000Y-95250000D02*
X197100000Y-76200000D01*
X189956250Y-52546250D02*
X186305000Y-48895000D01*
G04 #@! TO.N,GND*
X194520000Y-38140000D02*
X199005000Y-33655000D01*
X150760000Y-38140000D02*
X194520000Y-38140000D01*
G04 #@! TD*
G04 #@! TA.AperFunction,NonConductor*
G36*
X164117239Y-30444560D02*
G01*
X164162994Y-30497364D01*
X164172938Y-30566522D01*
X164143913Y-30630078D01*
X164085135Y-30667852D01*
X164070609Y-30671184D01*
X163865383Y-30705429D01*
X163630197Y-30786169D01*
X163630188Y-30786172D01*
X163411493Y-30904524D01*
X163215257Y-31057261D01*
X163046833Y-31240217D01*
X162910826Y-31448393D01*
X162810936Y-31676118D01*
X162749892Y-31917175D01*
X162749890Y-31917187D01*
X162729357Y-32164994D01*
X162729357Y-32165005D01*
X162749890Y-32412812D01*
X162749892Y-32412824D01*
X162810936Y-32653881D01*
X162910826Y-32881606D01*
X163046833Y-33089782D01*
X163046836Y-33089785D01*
X163215256Y-33272738D01*
X163411491Y-33425474D01*
X163411493Y-33425475D01*
X163622192Y-33539500D01*
X163630190Y-33543828D01*
X163865386Y-33624571D01*
X164110665Y-33665500D01*
X164359335Y-33665500D01*
X164604614Y-33624571D01*
X164839810Y-33543828D01*
X165058509Y-33425474D01*
X165254744Y-33272738D01*
X165423164Y-33089785D01*
X165559173Y-32881607D01*
X165659063Y-32653881D01*
X165720108Y-32412821D01*
X165722012Y-32389842D01*
X165740643Y-32165005D01*
X165740643Y-32164994D01*
X165720109Y-31917187D01*
X165720107Y-31917175D01*
X165659063Y-31676118D01*
X165559173Y-31448393D01*
X165423166Y-31240217D01*
X165401557Y-31216744D01*
X165254744Y-31057262D01*
X165058509Y-30904526D01*
X165058507Y-30904525D01*
X165058506Y-30904524D01*
X164839811Y-30786172D01*
X164839802Y-30786169D01*
X164604616Y-30705429D01*
X164399391Y-30671184D01*
X164336505Y-30640734D01*
X164300066Y-30581119D01*
X164301641Y-30511267D01*
X164340730Y-30453355D01*
X164404924Y-30425771D01*
X164419800Y-30424875D01*
X212001125Y-30424875D01*
X212068164Y-30444560D01*
X212113919Y-30497364D01*
X212125125Y-30548875D01*
X212125125Y-110262375D01*
X212105440Y-110329414D01*
X212052636Y-110375169D01*
X212001125Y-110386375D01*
X210432825Y-110386375D01*
X210365786Y-110366690D01*
X210320031Y-110313886D01*
X210310087Y-110244728D01*
X210339112Y-110181172D01*
X210341576Y-110178412D01*
X210423164Y-110089785D01*
X210559173Y-109881607D01*
X210659063Y-109653881D01*
X210720108Y-109412821D01*
X210720109Y-109412812D01*
X210740643Y-109165005D01*
X210740643Y-109164994D01*
X210720109Y-108917187D01*
X210720107Y-108917175D01*
X210659063Y-108676118D01*
X210559173Y-108448393D01*
X210423166Y-108240217D01*
X210401557Y-108216744D01*
X210254744Y-108057262D01*
X210058509Y-107904526D01*
X210058507Y-107904525D01*
X210058506Y-107904524D01*
X209839811Y-107786172D01*
X209839802Y-107786169D01*
X209604616Y-107705429D01*
X209359335Y-107664500D01*
X209110665Y-107664500D01*
X208865383Y-107705429D01*
X208630197Y-107786169D01*
X208630188Y-107786172D01*
X208411493Y-107904524D01*
X208215257Y-108057261D01*
X208046833Y-108240217D01*
X207910826Y-108448393D01*
X207810936Y-108676118D01*
X207749892Y-108917175D01*
X207749890Y-108917187D01*
X207729357Y-109164994D01*
X207729357Y-109165005D01*
X207749890Y-109412812D01*
X207749892Y-109412824D01*
X207810936Y-109653881D01*
X207910826Y-109881606D01*
X208046833Y-110089782D01*
X208046836Y-110089785D01*
X208128405Y-110178393D01*
X208159327Y-110241046D01*
X208151467Y-110310473D01*
X208107320Y-110364628D01*
X208040902Y-110386319D01*
X208037175Y-110386375D01*
X136432825Y-110386375D01*
X136365786Y-110366690D01*
X136320031Y-110313886D01*
X136310087Y-110244728D01*
X136339112Y-110181172D01*
X136341576Y-110178412D01*
X136423164Y-110089785D01*
X136559173Y-109881607D01*
X136659063Y-109653881D01*
X136720108Y-109412821D01*
X136720109Y-109412812D01*
X136740643Y-109165005D01*
X136740643Y-109164994D01*
X136720109Y-108917187D01*
X136720107Y-108917175D01*
X136659063Y-108676118D01*
X136559173Y-108448393D01*
X136423166Y-108240217D01*
X136401557Y-108216744D01*
X136254744Y-108057262D01*
X136058509Y-107904526D01*
X136058507Y-107904525D01*
X136058506Y-107904524D01*
X135839811Y-107786172D01*
X135839802Y-107786169D01*
X135604616Y-107705429D01*
X135359335Y-107664500D01*
X135110665Y-107664500D01*
X134865383Y-107705429D01*
X134630197Y-107786169D01*
X134630188Y-107786172D01*
X134411493Y-107904524D01*
X134215257Y-108057261D01*
X134046833Y-108240217D01*
X133910826Y-108448393D01*
X133810937Y-108676117D01*
X133789081Y-108762426D01*
X133753541Y-108822581D01*
X133691121Y-108853973D01*
X133621637Y-108846635D01*
X133567152Y-108802896D01*
X133544963Y-108736643D01*
X133544875Y-108731985D01*
X133544875Y-100752135D01*
X151984500Y-100752135D01*
X151984500Y-102447870D01*
X151984501Y-102447876D01*
X151990908Y-102507483D01*
X152041202Y-102642328D01*
X152041206Y-102642335D01*
X152127452Y-102757544D01*
X152127455Y-102757547D01*
X152242664Y-102843793D01*
X152242671Y-102843797D01*
X152377517Y-102894091D01*
X152377516Y-102894091D01*
X152384444Y-102894835D01*
X152437127Y-102900500D01*
X154132872Y-102900499D01*
X154192483Y-102894091D01*
X154327331Y-102843796D01*
X154442546Y-102757546D01*
X154528796Y-102642331D01*
X154579091Y-102507483D01*
X154585500Y-102447873D01*
X154585499Y-100752128D01*
X154579091Y-100692517D01*
X154528796Y-100557669D01*
X154528795Y-100557668D01*
X154528793Y-100557664D01*
X154442547Y-100442455D01*
X154442544Y-100442452D01*
X154327335Y-100356206D01*
X154327328Y-100356202D01*
X154192482Y-100305908D01*
X154192483Y-100305908D01*
X154132883Y-100299501D01*
X154132881Y-100299500D01*
X154132873Y-100299500D01*
X154132864Y-100299500D01*
X152437129Y-100299500D01*
X152437123Y-100299501D01*
X152377516Y-100305908D01*
X152242671Y-100356202D01*
X152242664Y-100356206D01*
X152127455Y-100442452D01*
X152127452Y-100442455D01*
X152041206Y-100557664D01*
X152041202Y-100557671D01*
X151990908Y-100692517D01*
X151984501Y-100752116D01*
X151984501Y-100752123D01*
X151984500Y-100752135D01*
X133544875Y-100752135D01*
X133544875Y-59601421D01*
X137554500Y-59601421D01*
X137554500Y-59778578D01*
X137582214Y-59953556D01*
X137636956Y-60122039D01*
X137636957Y-60122042D01*
X137717386Y-60279890D01*
X137821517Y-60423214D01*
X137946786Y-60548483D01*
X138090110Y-60652614D01*
X138158577Y-60687500D01*
X138247957Y-60733042D01*
X138247960Y-60733043D01*
X138332201Y-60760414D01*
X138416445Y-60787786D01*
X138591421Y-60815500D01*
X138591422Y-60815500D01*
X138768578Y-60815500D01*
X138768579Y-60815500D01*
X138943555Y-60787786D01*
X139112042Y-60733042D01*
X139169205Y-60703915D01*
X139237873Y-60691019D01*
X139302613Y-60717294D01*
X139342871Y-60774400D01*
X139349500Y-60814400D01*
X139349500Y-74468363D01*
X139329815Y-74535402D01*
X139279302Y-74580083D01*
X139072300Y-74679769D01*
X138855520Y-74827567D01*
X138663198Y-75006014D01*
X138499614Y-75211143D01*
X138368432Y-75438356D01*
X138272582Y-75682578D01*
X138272576Y-75682597D01*
X138214197Y-75938374D01*
X138214196Y-75938379D01*
X138194592Y-76199995D01*
X138194592Y-76200004D01*
X138214196Y-76461620D01*
X138214197Y-76461625D01*
X138272576Y-76717402D01*
X138272578Y-76717411D01*
X138272580Y-76717416D01*
X138368432Y-76961643D01*
X138499614Y-77188857D01*
X138550733Y-77252958D01*
X138663197Y-77393984D01*
X138669377Y-77399717D01*
X138705133Y-77459744D01*
X138702760Y-77529574D01*
X138663011Y-77587035D01*
X138598506Y-77613884D01*
X138594788Y-77614234D01*
X138591428Y-77614498D01*
X138416443Y-77642214D01*
X138247960Y-77696956D01*
X138247957Y-77696957D01*
X138090109Y-77777386D01*
X138031572Y-77819916D01*
X137946786Y-77881517D01*
X137946784Y-77881519D01*
X137946783Y-77881519D01*
X137821519Y-78006783D01*
X137821519Y-78006784D01*
X137821517Y-78006786D01*
X137805833Y-78028373D01*
X137717386Y-78150109D01*
X137636957Y-78307957D01*
X137636956Y-78307960D01*
X137582214Y-78476443D01*
X137554500Y-78651421D01*
X137554500Y-78828578D01*
X137582214Y-79003556D01*
X137636956Y-79172039D01*
X137636957Y-79172042D01*
X137717386Y-79329890D01*
X137821517Y-79473214D01*
X137946786Y-79598483D01*
X138090110Y-79702614D01*
X138158577Y-79737500D01*
X138247957Y-79783042D01*
X138247960Y-79783043D01*
X138332201Y-79810414D01*
X138416445Y-79837786D01*
X138591421Y-79865500D01*
X138591422Y-79865500D01*
X138768578Y-79865500D01*
X138768579Y-79865500D01*
X138943555Y-79837786D01*
X139112042Y-79783042D01*
X139169205Y-79753915D01*
X139237873Y-79741019D01*
X139302613Y-79767294D01*
X139342871Y-79824400D01*
X139349500Y-79864400D01*
X139349500Y-93518363D01*
X139329815Y-93585402D01*
X139279302Y-93630083D01*
X139072300Y-93729769D01*
X138855520Y-93877567D01*
X138663198Y-94056014D01*
X138499614Y-94261143D01*
X138368432Y-94488356D01*
X138272582Y-94732578D01*
X138272576Y-94732597D01*
X138214197Y-94988374D01*
X138214196Y-94988379D01*
X138194592Y-95249995D01*
X138194592Y-95250004D01*
X138214196Y-95511620D01*
X138214197Y-95511625D01*
X138272576Y-95767402D01*
X138272578Y-95767411D01*
X138272580Y-95767416D01*
X138368432Y-96011643D01*
X138499614Y-96238857D01*
X138550733Y-96302958D01*
X138663197Y-96443984D01*
X138669377Y-96449717D01*
X138705133Y-96509744D01*
X138702760Y-96579574D01*
X138663011Y-96637035D01*
X138598506Y-96663884D01*
X138594788Y-96664234D01*
X138591428Y-96664498D01*
X138416443Y-96692214D01*
X138247960Y-96746956D01*
X138247957Y-96746957D01*
X138090109Y-96827386D01*
X138012104Y-96884061D01*
X137946786Y-96931517D01*
X137946784Y-96931519D01*
X137946783Y-96931519D01*
X137821519Y-97056783D01*
X137821519Y-97056784D01*
X137821517Y-97056786D01*
X137805833Y-97078373D01*
X137717386Y-97200109D01*
X137636957Y-97357957D01*
X137636956Y-97357960D01*
X137582214Y-97526443D01*
X137554500Y-97701421D01*
X137554500Y-97878578D01*
X137582214Y-98053556D01*
X137636956Y-98222039D01*
X137636957Y-98222042D01*
X137717386Y-98379890D01*
X137821517Y-98523214D01*
X137946786Y-98648483D01*
X138090110Y-98752614D01*
X138158577Y-98787500D01*
X138247957Y-98833042D01*
X138247960Y-98833043D01*
X138332201Y-98860414D01*
X138416445Y-98887786D01*
X138591421Y-98915500D01*
X138591422Y-98915500D01*
X138768578Y-98915500D01*
X138768579Y-98915500D01*
X138943555Y-98887786D01*
X139112042Y-98833042D01*
X139269890Y-98752614D01*
X139413214Y-98648483D01*
X139538483Y-98523214D01*
X139642614Y-98379890D01*
X139723042Y-98222042D01*
X139777786Y-98053555D01*
X139805500Y-97878579D01*
X139805500Y-97701421D01*
X139796165Y-97642486D01*
X141509500Y-97642486D01*
X141509500Y-97937513D01*
X141524778Y-98053555D01*
X141548007Y-98229993D01*
X141624361Y-98514951D01*
X141624364Y-98514961D01*
X141737254Y-98787500D01*
X141737258Y-98787510D01*
X141884761Y-99042993D01*
X142064352Y-99277040D01*
X142064358Y-99277047D01*
X142272952Y-99485641D01*
X142272959Y-99485647D01*
X142507006Y-99665238D01*
X142762489Y-99812741D01*
X142762490Y-99812741D01*
X142762493Y-99812743D01*
X143035048Y-99925639D01*
X143320007Y-100001993D01*
X143612494Y-100040500D01*
X143612501Y-100040500D01*
X143907499Y-100040500D01*
X143907506Y-100040500D01*
X144199993Y-100001993D01*
X144484952Y-99925639D01*
X144757507Y-99812743D01*
X145012994Y-99665238D01*
X145247042Y-99485646D01*
X145455646Y-99277042D01*
X145635238Y-99042994D01*
X145782743Y-98787507D01*
X145895639Y-98514952D01*
X145971993Y-98229993D01*
X146010500Y-97937506D01*
X146010500Y-97701421D01*
X147714500Y-97701421D01*
X147714500Y-97878578D01*
X147742214Y-98053556D01*
X147796956Y-98222039D01*
X147796957Y-98222042D01*
X147877386Y-98379890D01*
X147981517Y-98523214D01*
X148106786Y-98648483D01*
X148250110Y-98752614D01*
X148318577Y-98787500D01*
X148407957Y-98833042D01*
X148407960Y-98833043D01*
X148492201Y-98860414D01*
X148576445Y-98887786D01*
X148751421Y-98915500D01*
X148751422Y-98915500D01*
X148928578Y-98915500D01*
X148928579Y-98915500D01*
X149103555Y-98887786D01*
X149272042Y-98833042D01*
X149429890Y-98752614D01*
X149573214Y-98648483D01*
X149698483Y-98523214D01*
X149802614Y-98379890D01*
X149883042Y-98222042D01*
X149937786Y-98053555D01*
X149965500Y-97878579D01*
X149965500Y-97701421D01*
X149937786Y-97526445D01*
X149883042Y-97357958D01*
X149883042Y-97357957D01*
X149802613Y-97200109D01*
X149792201Y-97185778D01*
X149698483Y-97056786D01*
X149573214Y-96931517D01*
X149429890Y-96827386D01*
X149272042Y-96746957D01*
X149272039Y-96746956D01*
X149103556Y-96692214D01*
X149016067Y-96678357D01*
X148928579Y-96664500D01*
X148751421Y-96664500D01*
X148693095Y-96673738D01*
X148576443Y-96692214D01*
X148407960Y-96746956D01*
X148407957Y-96746957D01*
X148250109Y-96827386D01*
X148172104Y-96884061D01*
X148106786Y-96931517D01*
X148106784Y-96931519D01*
X148106783Y-96931519D01*
X147981519Y-97056783D01*
X147981519Y-97056784D01*
X147981517Y-97056786D01*
X147965833Y-97078373D01*
X147877386Y-97200109D01*
X147796957Y-97357957D01*
X147796956Y-97357960D01*
X147742214Y-97526443D01*
X147714500Y-97701421D01*
X146010500Y-97701421D01*
X146010500Y-97642494D01*
X145971993Y-97350007D01*
X145895639Y-97065048D01*
X145883814Y-97036501D01*
X145840329Y-96931519D01*
X145782743Y-96792493D01*
X145769888Y-96770228D01*
X145635238Y-96537006D01*
X145455647Y-96302959D01*
X145455641Y-96302952D01*
X145247047Y-96094358D01*
X145247040Y-96094352D01*
X145012993Y-95914761D01*
X144757510Y-95767258D01*
X144757500Y-95767254D01*
X144484961Y-95654364D01*
X144484954Y-95654362D01*
X144484952Y-95654361D01*
X144199993Y-95578007D01*
X144151113Y-95571571D01*
X143907513Y-95539500D01*
X143907506Y-95539500D01*
X143612494Y-95539500D01*
X143612486Y-95539500D01*
X143334085Y-95576153D01*
X143320007Y-95578007D01*
X143035048Y-95654361D01*
X143035038Y-95654364D01*
X142762499Y-95767254D01*
X142762489Y-95767258D01*
X142507006Y-95914761D01*
X142272959Y-96094352D01*
X142272952Y-96094358D01*
X142064358Y-96302952D01*
X142064352Y-96302959D01*
X141884761Y-96537006D01*
X141737258Y-96792489D01*
X141737254Y-96792499D01*
X141624364Y-97065038D01*
X141624361Y-97065048D01*
X141588172Y-97200110D01*
X141548008Y-97350004D01*
X141548006Y-97350015D01*
X141509500Y-97642486D01*
X139796165Y-97642486D01*
X139777786Y-97526445D01*
X139723042Y-97357958D01*
X139723042Y-97357957D01*
X139695190Y-97303295D01*
X139642614Y-97200110D01*
X139641529Y-97198617D01*
X139632202Y-97185778D01*
X139608722Y-97119972D01*
X139624548Y-97051918D01*
X139674654Y-97003223D01*
X139743132Y-96989348D01*
X139750992Y-96990276D01*
X139818818Y-97000500D01*
X140081182Y-97000500D01*
X140340615Y-96961396D01*
X140591323Y-96884063D01*
X140827704Y-96770228D01*
X141044479Y-96622433D01*
X141236805Y-96443981D01*
X141400386Y-96238857D01*
X141531568Y-96011643D01*
X141627420Y-95767416D01*
X141685802Y-95511630D01*
X141702750Y-95285468D01*
X141705408Y-95250004D01*
X141705408Y-95249995D01*
X141685803Y-94988379D01*
X141685802Y-94988374D01*
X141685802Y-94988370D01*
X141627420Y-94732584D01*
X141531568Y-94488357D01*
X141400386Y-94261143D01*
X141236805Y-94056019D01*
X141236804Y-94056018D01*
X141236801Y-94056014D01*
X141044479Y-93877567D01*
X140862232Y-93753313D01*
X140827704Y-93729772D01*
X140827701Y-93729771D01*
X140827699Y-93729769D01*
X140620698Y-93630083D01*
X140568839Y-93583261D01*
X140550500Y-93518363D01*
X140550500Y-92709995D01*
X144544592Y-92709995D01*
X144544592Y-92710004D01*
X144564196Y-92971620D01*
X144564197Y-92971625D01*
X144622576Y-93227402D01*
X144622578Y-93227411D01*
X144622580Y-93227416D01*
X144718432Y-93471643D01*
X144849614Y-93698857D01*
X144981736Y-93864533D01*
X145013198Y-93903985D01*
X145095125Y-93980001D01*
X145205521Y-94082433D01*
X145422296Y-94230228D01*
X145422301Y-94230230D01*
X145422302Y-94230231D01*
X145422303Y-94230232D01*
X145547843Y-94290688D01*
X145658673Y-94344061D01*
X145658674Y-94344061D01*
X145658677Y-94344063D01*
X145909385Y-94421396D01*
X146168818Y-94460500D01*
X146431182Y-94460500D01*
X146690615Y-94421396D01*
X146941323Y-94344063D01*
X147177704Y-94230228D01*
X147394479Y-94082433D01*
X147504878Y-93979998D01*
X151979532Y-93979998D01*
X151979532Y-93980001D01*
X151999364Y-94206686D01*
X151999366Y-94206697D01*
X152058258Y-94426488D01*
X152058261Y-94426497D01*
X152154431Y-94632732D01*
X152154432Y-94632734D01*
X152284954Y-94819141D01*
X152445858Y-94980045D01*
X152457753Y-94988374D01*
X152632266Y-95110568D01*
X152838504Y-95206739D01*
X153058308Y-95265635D01*
X153220230Y-95279801D01*
X153284998Y-95285468D01*
X153285000Y-95285468D01*
X153285002Y-95285468D01*
X153341673Y-95280509D01*
X153511692Y-95265635D01*
X153731496Y-95206739D01*
X153937734Y-95110568D01*
X154124139Y-94980047D01*
X154285047Y-94819139D01*
X154415568Y-94632734D01*
X154511739Y-94426496D01*
X154570635Y-94206692D01*
X154590468Y-93980000D01*
X154570635Y-93753308D01*
X154511739Y-93533504D01*
X154415568Y-93327266D01*
X154285047Y-93140861D01*
X154285045Y-93140858D01*
X154124141Y-92979954D01*
X153937734Y-92849432D01*
X153937732Y-92849431D01*
X153731497Y-92753261D01*
X153731488Y-92753258D01*
X153511697Y-92694366D01*
X153511693Y-92694365D01*
X153511692Y-92694365D01*
X153511691Y-92694364D01*
X153511686Y-92694364D01*
X153285002Y-92674532D01*
X153284998Y-92674532D01*
X153058313Y-92694364D01*
X153058302Y-92694366D01*
X152838511Y-92753258D01*
X152838502Y-92753261D01*
X152632267Y-92849431D01*
X152632265Y-92849432D01*
X152445858Y-92979954D01*
X152284954Y-93140858D01*
X152154432Y-93327265D01*
X152154431Y-93327267D01*
X152058261Y-93533502D01*
X152058258Y-93533511D01*
X151999366Y-93753302D01*
X151999364Y-93753313D01*
X151979532Y-93979998D01*
X147504878Y-93979998D01*
X147586805Y-93903981D01*
X147750386Y-93698857D01*
X147881568Y-93471643D01*
X147977420Y-93227416D01*
X148035802Y-92971630D01*
X148035803Y-92971620D01*
X148055408Y-92710004D01*
X148055408Y-92709995D01*
X148035803Y-92448379D01*
X148035802Y-92448374D01*
X148035802Y-92448370D01*
X147977420Y-92192584D01*
X147881568Y-91948357D01*
X147750386Y-91721143D01*
X147586805Y-91516019D01*
X147586804Y-91516018D01*
X147586801Y-91516014D01*
X147394479Y-91337567D01*
X147177704Y-91189772D01*
X147177700Y-91189770D01*
X147177697Y-91189768D01*
X147177696Y-91189767D01*
X146941325Y-91075938D01*
X146941327Y-91075938D01*
X146690623Y-90998606D01*
X146690619Y-90998605D01*
X146690615Y-90998604D01*
X146565823Y-90979794D01*
X146431187Y-90959500D01*
X146431182Y-90959500D01*
X146168818Y-90959500D01*
X146168812Y-90959500D01*
X146007247Y-90983853D01*
X145909385Y-90998604D01*
X145909382Y-90998605D01*
X145909376Y-90998606D01*
X145658673Y-91075938D01*
X145422303Y-91189767D01*
X145422302Y-91189768D01*
X145205520Y-91337567D01*
X145013198Y-91516014D01*
X144849614Y-91721143D01*
X144718432Y-91948356D01*
X144622582Y-92192578D01*
X144622576Y-92192597D01*
X144564197Y-92448374D01*
X144564196Y-92448379D01*
X144544592Y-92709995D01*
X140550500Y-92709995D01*
X140550500Y-81702135D01*
X151984500Y-81702135D01*
X151984500Y-83397870D01*
X151984501Y-83397876D01*
X151990908Y-83457483D01*
X152041202Y-83592328D01*
X152041206Y-83592335D01*
X152127452Y-83707544D01*
X152127455Y-83707547D01*
X152242664Y-83793793D01*
X152242671Y-83793797D01*
X152377517Y-83844091D01*
X152377516Y-83844091D01*
X152384444Y-83844835D01*
X152437127Y-83850500D01*
X154132872Y-83850499D01*
X154192483Y-83844091D01*
X154327331Y-83793796D01*
X154442546Y-83707546D01*
X154528796Y-83592331D01*
X154579091Y-83457483D01*
X154585500Y-83397873D01*
X154585499Y-81702128D01*
X154579091Y-81642517D01*
X154529292Y-81509000D01*
X154528797Y-81507671D01*
X154528793Y-81507664D01*
X154442547Y-81392455D01*
X154442544Y-81392452D01*
X154327335Y-81306206D01*
X154327328Y-81306202D01*
X154192482Y-81255908D01*
X154192483Y-81255908D01*
X154132883Y-81249501D01*
X154132881Y-81249500D01*
X154132873Y-81249500D01*
X154132864Y-81249500D01*
X152437129Y-81249500D01*
X152437123Y-81249501D01*
X152377516Y-81255908D01*
X152242671Y-81306202D01*
X152242664Y-81306206D01*
X152127455Y-81392452D01*
X152127452Y-81392455D01*
X152041206Y-81507664D01*
X152041202Y-81507671D01*
X151990908Y-81642517D01*
X151984501Y-81702116D01*
X151984501Y-81702123D01*
X151984500Y-81702135D01*
X140550500Y-81702135D01*
X140550500Y-78592486D01*
X141509500Y-78592486D01*
X141509500Y-78887513D01*
X141524778Y-79003555D01*
X141548007Y-79179993D01*
X141624361Y-79464951D01*
X141624364Y-79464961D01*
X141737254Y-79737500D01*
X141737258Y-79737510D01*
X141884761Y-79992993D01*
X142064352Y-80227040D01*
X142064358Y-80227047D01*
X142272952Y-80435641D01*
X142272959Y-80435647D01*
X142507006Y-80615238D01*
X142762489Y-80762741D01*
X142762490Y-80762741D01*
X142762493Y-80762743D01*
X143035048Y-80875639D01*
X143320007Y-80951993D01*
X143612494Y-80990500D01*
X143612501Y-80990500D01*
X143907499Y-80990500D01*
X143907506Y-80990500D01*
X144199993Y-80951993D01*
X144484952Y-80875639D01*
X144757507Y-80762743D01*
X145012994Y-80615238D01*
X145247042Y-80435646D01*
X145455646Y-80227042D01*
X145635238Y-79992994D01*
X145782743Y-79737507D01*
X145895639Y-79464952D01*
X145971993Y-79179993D01*
X146010500Y-78887506D01*
X146010500Y-78651421D01*
X147714500Y-78651421D01*
X147714500Y-78828578D01*
X147742214Y-79003556D01*
X147796956Y-79172039D01*
X147796957Y-79172042D01*
X147877386Y-79329890D01*
X147981517Y-79473214D01*
X148106786Y-79598483D01*
X148250110Y-79702614D01*
X148318577Y-79737500D01*
X148407957Y-79783042D01*
X148407960Y-79783043D01*
X148492201Y-79810414D01*
X148576445Y-79837786D01*
X148751421Y-79865500D01*
X148751422Y-79865500D01*
X148928578Y-79865500D01*
X148928579Y-79865500D01*
X149103555Y-79837786D01*
X149272042Y-79783042D01*
X149429890Y-79702614D01*
X149573214Y-79598483D01*
X149698483Y-79473214D01*
X149802614Y-79329890D01*
X149883042Y-79172042D01*
X149937786Y-79003555D01*
X149965500Y-78828579D01*
X149965500Y-78651421D01*
X149937786Y-78476445D01*
X149883042Y-78307958D01*
X149883042Y-78307957D01*
X149802613Y-78150109D01*
X149698483Y-78006786D01*
X149573214Y-77881517D01*
X149429890Y-77777386D01*
X149272042Y-77696957D01*
X149272039Y-77696956D01*
X149103556Y-77642214D01*
X149016067Y-77628357D01*
X148928579Y-77614500D01*
X148751421Y-77614500D01*
X148693095Y-77623738D01*
X148576443Y-77642214D01*
X148407960Y-77696956D01*
X148407957Y-77696957D01*
X148250109Y-77777386D01*
X148191572Y-77819916D01*
X148106786Y-77881517D01*
X148106784Y-77881519D01*
X148106783Y-77881519D01*
X147981519Y-78006783D01*
X147981519Y-78006784D01*
X147981517Y-78006786D01*
X147965833Y-78028373D01*
X147877386Y-78150109D01*
X147796957Y-78307957D01*
X147796956Y-78307960D01*
X147742214Y-78476443D01*
X147714500Y-78651421D01*
X146010500Y-78651421D01*
X146010500Y-78592494D01*
X145971993Y-78300007D01*
X145895639Y-78015048D01*
X145883814Y-77986501D01*
X145840329Y-77881519D01*
X145782743Y-77742493D01*
X145769888Y-77720228D01*
X145635238Y-77487006D01*
X145455647Y-77252959D01*
X145455641Y-77252952D01*
X145247047Y-77044358D01*
X145247040Y-77044352D01*
X145012993Y-76864761D01*
X144757510Y-76717258D01*
X144757500Y-76717254D01*
X144484961Y-76604364D01*
X144484954Y-76604362D01*
X144484952Y-76604361D01*
X144199993Y-76528007D01*
X144151113Y-76521571D01*
X143907513Y-76489500D01*
X143907506Y-76489500D01*
X143612494Y-76489500D01*
X143612486Y-76489500D01*
X143334085Y-76526153D01*
X143320007Y-76528007D01*
X143035048Y-76604361D01*
X143035038Y-76604364D01*
X142762499Y-76717254D01*
X142762489Y-76717258D01*
X142507006Y-76864761D01*
X142272959Y-77044352D01*
X142272952Y-77044358D01*
X142064358Y-77252952D01*
X142064352Y-77252959D01*
X141884761Y-77487006D01*
X141737258Y-77742489D01*
X141737254Y-77742499D01*
X141624364Y-78015038D01*
X141624361Y-78015048D01*
X141588172Y-78150110D01*
X141548008Y-78300004D01*
X141548006Y-78300015D01*
X141509500Y-78592486D01*
X140550500Y-78592486D01*
X140550500Y-77931636D01*
X140570185Y-77864597D01*
X140620698Y-77819916D01*
X140827704Y-77720228D01*
X141044479Y-77572433D01*
X141236805Y-77393981D01*
X141400386Y-77188857D01*
X141531568Y-76961643D01*
X141627420Y-76717416D01*
X141685802Y-76461630D01*
X141702750Y-76235468D01*
X141705408Y-76200004D01*
X141705408Y-76199995D01*
X141685803Y-75938379D01*
X141685802Y-75938374D01*
X141685802Y-75938370D01*
X141627420Y-75682584D01*
X141531568Y-75438357D01*
X141400386Y-75211143D01*
X141236805Y-75006019D01*
X141236804Y-75006018D01*
X141236801Y-75006014D01*
X141044479Y-74827567D01*
X140862232Y-74703313D01*
X140827704Y-74679772D01*
X140827701Y-74679771D01*
X140827699Y-74679769D01*
X140620698Y-74580083D01*
X140568839Y-74533261D01*
X140550500Y-74468363D01*
X140550500Y-73659995D01*
X144544592Y-73659995D01*
X144544592Y-73660004D01*
X144564196Y-73921620D01*
X144564197Y-73921625D01*
X144622576Y-74177402D01*
X144622578Y-74177411D01*
X144622580Y-74177416D01*
X144718432Y-74421643D01*
X144849614Y-74648857D01*
X144981736Y-74814533D01*
X145013198Y-74853985D01*
X145095125Y-74930001D01*
X145205521Y-75032433D01*
X145422296Y-75180228D01*
X145422301Y-75180230D01*
X145422302Y-75180231D01*
X145422303Y-75180232D01*
X145547843Y-75240688D01*
X145658673Y-75294061D01*
X145658674Y-75294061D01*
X145658677Y-75294063D01*
X145909385Y-75371396D01*
X146168818Y-75410500D01*
X146431182Y-75410500D01*
X146690615Y-75371396D01*
X146941323Y-75294063D01*
X147177704Y-75180228D01*
X147394479Y-75032433D01*
X147504878Y-74929998D01*
X151979532Y-74929998D01*
X151979532Y-74930001D01*
X151999364Y-75156686D01*
X151999366Y-75156697D01*
X152058258Y-75376488D01*
X152058261Y-75376497D01*
X152154431Y-75582732D01*
X152154432Y-75582734D01*
X152284954Y-75769141D01*
X152445858Y-75930045D01*
X152457753Y-75938374D01*
X152632266Y-76060568D01*
X152838504Y-76156739D01*
X153058308Y-76215635D01*
X153220230Y-76229801D01*
X153284998Y-76235468D01*
X153285000Y-76235468D01*
X153285002Y-76235468D01*
X153341673Y-76230509D01*
X153511692Y-76215635D01*
X153731496Y-76156739D01*
X153937734Y-76060568D01*
X154124139Y-75930047D01*
X154285047Y-75769139D01*
X154415568Y-75582734D01*
X154511739Y-75376496D01*
X154570635Y-75156692D01*
X154590468Y-74930000D01*
X154570635Y-74703308D01*
X154511739Y-74483504D01*
X154415568Y-74277266D01*
X154285047Y-74090861D01*
X154285045Y-74090858D01*
X154124141Y-73929954D01*
X153937734Y-73799432D01*
X153937732Y-73799431D01*
X153731497Y-73703261D01*
X153731488Y-73703258D01*
X153511697Y-73644366D01*
X153511693Y-73644365D01*
X153511692Y-73644365D01*
X153511691Y-73644364D01*
X153511686Y-73644364D01*
X153285002Y-73624532D01*
X153284998Y-73624532D01*
X153058313Y-73644364D01*
X153058302Y-73644366D01*
X152838511Y-73703258D01*
X152838502Y-73703261D01*
X152632267Y-73799431D01*
X152632265Y-73799432D01*
X152445858Y-73929954D01*
X152284954Y-74090858D01*
X152154432Y-74277265D01*
X152154431Y-74277267D01*
X152058261Y-74483502D01*
X152058258Y-74483511D01*
X151999366Y-74703302D01*
X151999364Y-74703313D01*
X151979532Y-74929998D01*
X147504878Y-74929998D01*
X147586805Y-74853981D01*
X147750386Y-74648857D01*
X147881568Y-74421643D01*
X147977420Y-74177416D01*
X148035802Y-73921630D01*
X148035803Y-73921620D01*
X148055408Y-73660004D01*
X148055408Y-73659995D01*
X148035803Y-73398379D01*
X148035802Y-73398374D01*
X148035802Y-73398370D01*
X147977420Y-73142584D01*
X147881568Y-72898357D01*
X147750386Y-72671143D01*
X147586805Y-72466019D01*
X147586804Y-72466018D01*
X147586801Y-72466014D01*
X147394479Y-72287567D01*
X147177704Y-72139772D01*
X147177700Y-72139770D01*
X147177697Y-72139768D01*
X147177696Y-72139767D01*
X146941325Y-72025938D01*
X146941327Y-72025938D01*
X146690623Y-71948606D01*
X146690619Y-71948605D01*
X146690615Y-71948604D01*
X146565823Y-71929794D01*
X146431187Y-71909500D01*
X146431182Y-71909500D01*
X146168818Y-71909500D01*
X146168812Y-71909500D01*
X146007247Y-71933853D01*
X145909385Y-71948604D01*
X145909382Y-71948605D01*
X145909376Y-71948606D01*
X145658673Y-72025938D01*
X145422303Y-72139767D01*
X145422302Y-72139768D01*
X145205520Y-72287567D01*
X145013198Y-72466014D01*
X144849614Y-72671143D01*
X144718432Y-72898356D01*
X144622582Y-73142578D01*
X144622576Y-73142597D01*
X144564197Y-73398374D01*
X144564196Y-73398379D01*
X144544592Y-73659995D01*
X140550500Y-73659995D01*
X140550500Y-62652135D01*
X151984500Y-62652135D01*
X151984500Y-64347870D01*
X151984501Y-64347876D01*
X151990908Y-64407483D01*
X152041202Y-64542328D01*
X152041206Y-64542335D01*
X152127452Y-64657544D01*
X152127455Y-64657547D01*
X152242664Y-64743793D01*
X152242671Y-64743797D01*
X152377517Y-64794091D01*
X152377516Y-64794091D01*
X152384444Y-64794835D01*
X152437127Y-64800500D01*
X154132872Y-64800499D01*
X154192483Y-64794091D01*
X154327331Y-64743796D01*
X154442546Y-64657546D01*
X154528796Y-64542331D01*
X154579091Y-64407483D01*
X154585500Y-64347873D01*
X154585499Y-62652128D01*
X154579091Y-62592517D01*
X154528796Y-62457669D01*
X154528795Y-62457668D01*
X154528793Y-62457664D01*
X154442547Y-62342455D01*
X154442544Y-62342452D01*
X154327335Y-62256206D01*
X154327328Y-62256202D01*
X154192482Y-62205908D01*
X154192483Y-62205908D01*
X154132883Y-62199501D01*
X154132881Y-62199500D01*
X154132873Y-62199500D01*
X154132864Y-62199500D01*
X152437129Y-62199500D01*
X152437123Y-62199501D01*
X152377516Y-62205908D01*
X152242671Y-62256202D01*
X152242664Y-62256206D01*
X152127455Y-62342452D01*
X152127452Y-62342455D01*
X152041206Y-62457664D01*
X152041202Y-62457671D01*
X151990908Y-62592517D01*
X151984501Y-62652116D01*
X151984501Y-62652123D01*
X151984500Y-62652135D01*
X140550500Y-62652135D01*
X140550500Y-59542486D01*
X141509500Y-59542486D01*
X141509500Y-59837513D01*
X141524778Y-59953555D01*
X141548007Y-60129993D01*
X141624361Y-60414951D01*
X141624364Y-60414961D01*
X141737254Y-60687500D01*
X141737258Y-60687510D01*
X141884761Y-60942993D01*
X142064352Y-61177040D01*
X142064358Y-61177047D01*
X142272952Y-61385641D01*
X142272959Y-61385647D01*
X142507006Y-61565238D01*
X142762489Y-61712741D01*
X142762490Y-61712741D01*
X142762493Y-61712743D01*
X143035048Y-61825639D01*
X143320007Y-61901993D01*
X143612494Y-61940500D01*
X143612501Y-61940500D01*
X143907499Y-61940500D01*
X143907506Y-61940500D01*
X144199993Y-61901993D01*
X144484952Y-61825639D01*
X144757507Y-61712743D01*
X145012994Y-61565238D01*
X145247042Y-61385646D01*
X145455646Y-61177042D01*
X145635238Y-60942994D01*
X145782743Y-60687507D01*
X145895639Y-60414952D01*
X145971993Y-60129993D01*
X146010500Y-59837506D01*
X146010500Y-59601421D01*
X147714500Y-59601421D01*
X147714500Y-59778578D01*
X147742214Y-59953556D01*
X147796956Y-60122039D01*
X147796957Y-60122042D01*
X147877386Y-60279890D01*
X147981517Y-60423214D01*
X148106786Y-60548483D01*
X148250110Y-60652614D01*
X148318577Y-60687500D01*
X148407957Y-60733042D01*
X148407960Y-60733043D01*
X148492201Y-60760414D01*
X148576445Y-60787786D01*
X148751421Y-60815500D01*
X148751422Y-60815500D01*
X148928578Y-60815500D01*
X148928579Y-60815500D01*
X149103555Y-60787786D01*
X149272042Y-60733042D01*
X149429890Y-60652614D01*
X149573214Y-60548483D01*
X149698483Y-60423214D01*
X149802614Y-60279890D01*
X149883042Y-60122042D01*
X149937786Y-59953555D01*
X149965500Y-59778579D01*
X149965500Y-59601421D01*
X149937786Y-59426445D01*
X149883042Y-59257958D01*
X149883042Y-59257957D01*
X149802613Y-59100109D01*
X149698483Y-58956786D01*
X149573214Y-58831517D01*
X149429890Y-58727386D01*
X149272042Y-58646957D01*
X149272039Y-58646956D01*
X149103556Y-58592214D01*
X149016067Y-58578357D01*
X148928579Y-58564500D01*
X148751421Y-58564500D01*
X148693095Y-58573738D01*
X148576443Y-58592214D01*
X148407960Y-58646956D01*
X148407957Y-58646957D01*
X148250109Y-58727386D01*
X148191572Y-58769916D01*
X148106786Y-58831517D01*
X148106784Y-58831519D01*
X148106783Y-58831519D01*
X147981519Y-58956783D01*
X147981519Y-58956784D01*
X147981517Y-58956786D01*
X147965833Y-58978373D01*
X147877386Y-59100109D01*
X147796957Y-59257957D01*
X147796956Y-59257960D01*
X147742214Y-59426443D01*
X147714500Y-59601421D01*
X146010500Y-59601421D01*
X146010500Y-59542494D01*
X145971993Y-59250007D01*
X145895639Y-58965048D01*
X145883814Y-58936501D01*
X145840329Y-58831519D01*
X145782743Y-58692493D01*
X145769888Y-58670228D01*
X145635238Y-58437006D01*
X145455647Y-58202959D01*
X145455641Y-58202952D01*
X145247047Y-57994358D01*
X145247040Y-57994352D01*
X145012993Y-57814761D01*
X144757510Y-57667258D01*
X144757500Y-57667254D01*
X144484961Y-57554364D01*
X144484954Y-57554362D01*
X144484952Y-57554361D01*
X144199993Y-57478007D01*
X144151113Y-57471571D01*
X143907513Y-57439500D01*
X143907506Y-57439500D01*
X143612494Y-57439500D01*
X143612486Y-57439500D01*
X143334085Y-57476153D01*
X143320007Y-57478007D01*
X143035048Y-57554361D01*
X143035038Y-57554364D01*
X142762499Y-57667254D01*
X142762489Y-57667258D01*
X142507006Y-57814761D01*
X142272959Y-57994352D01*
X142272952Y-57994358D01*
X142064358Y-58202952D01*
X142064352Y-58202959D01*
X141884761Y-58437006D01*
X141737258Y-58692489D01*
X141737254Y-58692499D01*
X141624364Y-58965038D01*
X141624361Y-58965048D01*
X141588172Y-59100110D01*
X141548008Y-59250004D01*
X141548006Y-59250015D01*
X141509500Y-59542486D01*
X140550500Y-59542486D01*
X140550500Y-58881636D01*
X140570185Y-58814597D01*
X140620698Y-58769916D01*
X140827704Y-58670228D01*
X141044479Y-58522433D01*
X141236805Y-58343981D01*
X141400386Y-58138857D01*
X141531568Y-57911643D01*
X141627420Y-57667416D01*
X141685802Y-57411630D01*
X141702750Y-57185468D01*
X141705408Y-57150004D01*
X141705408Y-57149995D01*
X141685803Y-56888379D01*
X141685802Y-56888374D01*
X141685802Y-56888370D01*
X141627420Y-56632584D01*
X141531568Y-56388357D01*
X141400386Y-56161143D01*
X141236805Y-55956019D01*
X141236804Y-55956018D01*
X141236801Y-55956014D01*
X141044479Y-55777567D01*
X140862232Y-55653313D01*
X140827704Y-55629772D01*
X140827701Y-55629771D01*
X140827699Y-55629769D01*
X140620698Y-55530083D01*
X140568839Y-55483261D01*
X140550500Y-55418363D01*
X140550500Y-54609995D01*
X144544592Y-54609995D01*
X144544592Y-54610004D01*
X144564196Y-54871620D01*
X144564197Y-54871625D01*
X144622576Y-55127402D01*
X144622578Y-55127411D01*
X144622580Y-55127416D01*
X144718432Y-55371643D01*
X144849614Y-55598857D01*
X144981736Y-55764533D01*
X145013198Y-55803985D01*
X145095125Y-55880001D01*
X145205521Y-55982433D01*
X145422296Y-56130228D01*
X145422301Y-56130230D01*
X145422302Y-56130231D01*
X145422303Y-56130232D01*
X145547843Y-56190688D01*
X145658673Y-56244061D01*
X145658674Y-56244061D01*
X145658677Y-56244063D01*
X145909385Y-56321396D01*
X146168818Y-56360500D01*
X146431182Y-56360500D01*
X146690615Y-56321396D01*
X146941323Y-56244063D01*
X147177704Y-56130228D01*
X147394479Y-55982433D01*
X147504878Y-55879998D01*
X151979532Y-55879998D01*
X151979532Y-55880001D01*
X151999364Y-56106686D01*
X151999366Y-56106697D01*
X152058258Y-56326488D01*
X152058261Y-56326497D01*
X152154431Y-56532732D01*
X152154432Y-56532734D01*
X152284954Y-56719141D01*
X152445858Y-56880045D01*
X152457753Y-56888374D01*
X152632266Y-57010568D01*
X152838504Y-57106739D01*
X153058308Y-57165635D01*
X153220230Y-57179801D01*
X153284998Y-57185468D01*
X153285000Y-57185468D01*
X153285002Y-57185468D01*
X153341673Y-57180509D01*
X153511692Y-57165635D01*
X153731496Y-57106739D01*
X153937734Y-57010568D01*
X154124139Y-56880047D01*
X154285047Y-56719139D01*
X154415568Y-56532734D01*
X154511739Y-56326496D01*
X154570635Y-56106692D01*
X154590468Y-55880000D01*
X154570635Y-55653308D01*
X154511739Y-55433504D01*
X154415568Y-55227266D01*
X154285047Y-55040861D01*
X154285045Y-55040858D01*
X154124141Y-54879954D01*
X153937734Y-54749432D01*
X153937732Y-54749431D01*
X153731497Y-54653261D01*
X153731488Y-54653258D01*
X153511697Y-54594366D01*
X153511693Y-54594365D01*
X153511692Y-54594365D01*
X153511691Y-54594364D01*
X153511686Y-54594364D01*
X153285002Y-54574532D01*
X153284998Y-54574532D01*
X153058313Y-54594364D01*
X153058302Y-54594366D01*
X152838511Y-54653258D01*
X152838502Y-54653261D01*
X152632267Y-54749431D01*
X152632265Y-54749432D01*
X152445858Y-54879954D01*
X152284954Y-55040858D01*
X152154432Y-55227265D01*
X152154431Y-55227267D01*
X152058261Y-55433502D01*
X152058258Y-55433511D01*
X151999366Y-55653302D01*
X151999364Y-55653313D01*
X151979532Y-55879998D01*
X147504878Y-55879998D01*
X147586805Y-55803981D01*
X147750386Y-55598857D01*
X147881568Y-55371643D01*
X147977420Y-55127416D01*
X148035802Y-54871630D01*
X148035803Y-54871620D01*
X148055408Y-54610004D01*
X148055408Y-54609995D01*
X148035803Y-54348379D01*
X148035802Y-54348374D01*
X148035802Y-54348370D01*
X147977420Y-54092584D01*
X147881568Y-53848357D01*
X147750386Y-53621143D01*
X147586805Y-53416019D01*
X147586804Y-53416018D01*
X147586801Y-53416014D01*
X147394479Y-53237567D01*
X147314545Y-53183069D01*
X147177704Y-53089772D01*
X147177700Y-53089770D01*
X147177697Y-53089768D01*
X147177696Y-53089767D01*
X146941325Y-52975938D01*
X146941327Y-52975938D01*
X146690623Y-52898606D01*
X146690619Y-52898605D01*
X146690615Y-52898604D01*
X146565823Y-52879794D01*
X146431187Y-52859500D01*
X146431182Y-52859500D01*
X146168818Y-52859500D01*
X146168812Y-52859500D01*
X146007247Y-52883853D01*
X145909385Y-52898604D01*
X145909382Y-52898605D01*
X145909376Y-52898606D01*
X145658673Y-52975938D01*
X145422303Y-53089767D01*
X145422302Y-53089768D01*
X145205520Y-53237567D01*
X145013198Y-53416014D01*
X144849614Y-53621143D01*
X144718432Y-53848356D01*
X144622582Y-54092578D01*
X144622576Y-54092597D01*
X144564197Y-54348374D01*
X144564196Y-54348379D01*
X144544592Y-54609995D01*
X140550500Y-54609995D01*
X140550500Y-51893847D01*
X140570185Y-51826808D01*
X140586819Y-51806166D01*
X141591167Y-50801819D01*
X141652490Y-50768334D01*
X141678848Y-50765500D01*
X159079652Y-50765500D01*
X159146691Y-50785185D01*
X159192446Y-50837989D01*
X159202390Y-50907147D01*
X159173365Y-50970703D01*
X159167333Y-50977181D01*
X158519481Y-51625032D01*
X158519475Y-51625040D01*
X158473227Y-51705146D01*
X158473227Y-51705147D01*
X158440423Y-51761965D01*
X158399499Y-51914693D01*
X158399499Y-51914695D01*
X158399499Y-52082796D01*
X158399500Y-52082809D01*
X158399500Y-55418363D01*
X158379815Y-55485402D01*
X158329302Y-55530083D01*
X158122300Y-55629769D01*
X157905520Y-55777567D01*
X157713198Y-55956014D01*
X157549614Y-56161143D01*
X157418432Y-56388356D01*
X157322582Y-56632578D01*
X157322576Y-56632597D01*
X157264197Y-56888374D01*
X157264196Y-56888379D01*
X157244592Y-57149995D01*
X157244592Y-57150004D01*
X157264196Y-57411620D01*
X157264197Y-57411625D01*
X157322576Y-57667402D01*
X157322578Y-57667411D01*
X157322580Y-57667416D01*
X157418432Y-57911643D01*
X157549614Y-58138857D01*
X157600733Y-58202958D01*
X157713197Y-58343984D01*
X157719377Y-58349717D01*
X157755133Y-58409744D01*
X157752760Y-58479574D01*
X157713011Y-58537035D01*
X157648506Y-58563884D01*
X157644788Y-58564234D01*
X157641428Y-58564498D01*
X157466443Y-58592214D01*
X157297960Y-58646956D01*
X157297957Y-58646957D01*
X157140109Y-58727386D01*
X157081572Y-58769916D01*
X156996786Y-58831517D01*
X156996784Y-58831519D01*
X156996783Y-58831519D01*
X156871519Y-58956783D01*
X156871519Y-58956784D01*
X156871517Y-58956786D01*
X156855833Y-58978373D01*
X156767386Y-59100109D01*
X156686957Y-59257957D01*
X156686956Y-59257960D01*
X156632214Y-59426443D01*
X156604500Y-59601421D01*
X156604500Y-59778578D01*
X156632214Y-59953556D01*
X156686956Y-60122039D01*
X156686957Y-60122042D01*
X156767386Y-60279890D01*
X156871517Y-60423214D01*
X156996786Y-60548483D01*
X157140110Y-60652614D01*
X157208577Y-60687500D01*
X157297957Y-60733042D01*
X157297960Y-60733043D01*
X157382201Y-60760414D01*
X157466445Y-60787786D01*
X157641421Y-60815500D01*
X157641422Y-60815500D01*
X157818578Y-60815500D01*
X157818579Y-60815500D01*
X157993555Y-60787786D01*
X158162042Y-60733042D01*
X158219205Y-60703915D01*
X158287873Y-60691019D01*
X158352613Y-60717294D01*
X158392871Y-60774400D01*
X158399500Y-60814400D01*
X158399500Y-74468363D01*
X158379815Y-74535402D01*
X158329302Y-74580083D01*
X158122300Y-74679769D01*
X157905520Y-74827567D01*
X157713198Y-75006014D01*
X157549614Y-75211143D01*
X157418432Y-75438356D01*
X157322582Y-75682578D01*
X157322576Y-75682597D01*
X157264197Y-75938374D01*
X157264196Y-75938379D01*
X157244592Y-76199995D01*
X157244592Y-76200004D01*
X157264196Y-76461620D01*
X157264197Y-76461625D01*
X157322576Y-76717402D01*
X157322578Y-76717411D01*
X157322580Y-76717416D01*
X157418432Y-76961643D01*
X157549614Y-77188857D01*
X157600733Y-77252958D01*
X157713197Y-77393984D01*
X157719377Y-77399717D01*
X157755133Y-77459744D01*
X157752760Y-77529574D01*
X157713011Y-77587035D01*
X157648506Y-77613884D01*
X157644788Y-77614234D01*
X157641428Y-77614498D01*
X157466443Y-77642214D01*
X157297960Y-77696956D01*
X157297957Y-77696957D01*
X157140109Y-77777386D01*
X157081572Y-77819916D01*
X156996786Y-77881517D01*
X156996784Y-77881519D01*
X156996783Y-77881519D01*
X156871519Y-78006783D01*
X156871519Y-78006784D01*
X156871517Y-78006786D01*
X156855833Y-78028373D01*
X156767386Y-78150109D01*
X156686957Y-78307957D01*
X156686956Y-78307960D01*
X156632214Y-78476443D01*
X156604500Y-78651421D01*
X156604500Y-78828578D01*
X156632214Y-79003556D01*
X156686956Y-79172039D01*
X156686957Y-79172042D01*
X156767386Y-79329890D01*
X156871517Y-79473214D01*
X156996786Y-79598483D01*
X157140110Y-79702614D01*
X157208577Y-79737500D01*
X157297957Y-79783042D01*
X157297960Y-79783043D01*
X157382201Y-79810414D01*
X157466445Y-79837786D01*
X157641421Y-79865500D01*
X157641422Y-79865500D01*
X157818578Y-79865500D01*
X157818579Y-79865500D01*
X157993555Y-79837786D01*
X158162042Y-79783042D01*
X158219205Y-79753915D01*
X158287873Y-79741019D01*
X158352613Y-79767294D01*
X158392871Y-79824400D01*
X158399500Y-79864400D01*
X158399500Y-93518363D01*
X158379815Y-93585402D01*
X158329302Y-93630083D01*
X158122300Y-93729769D01*
X157905520Y-93877567D01*
X157713198Y-94056014D01*
X157549614Y-94261143D01*
X157418432Y-94488356D01*
X157322582Y-94732578D01*
X157322576Y-94732597D01*
X157264197Y-94988374D01*
X157264196Y-94988379D01*
X157244592Y-95249995D01*
X157244592Y-95250004D01*
X157264196Y-95511620D01*
X157264197Y-95511625D01*
X157322576Y-95767402D01*
X157322578Y-95767411D01*
X157322580Y-95767416D01*
X157418432Y-96011643D01*
X157549614Y-96238857D01*
X157600733Y-96302958D01*
X157713197Y-96443984D01*
X157719377Y-96449717D01*
X157755133Y-96509744D01*
X157752760Y-96579574D01*
X157713011Y-96637035D01*
X157648506Y-96663884D01*
X157644788Y-96664234D01*
X157641428Y-96664498D01*
X157466443Y-96692214D01*
X157297960Y-96746956D01*
X157297957Y-96746957D01*
X157140109Y-96827386D01*
X157062104Y-96884061D01*
X156996786Y-96931517D01*
X156996784Y-96931519D01*
X156996783Y-96931519D01*
X156871519Y-97056783D01*
X156871519Y-97056784D01*
X156871517Y-97056786D01*
X156855833Y-97078373D01*
X156767386Y-97200109D01*
X156686957Y-97357957D01*
X156686956Y-97357960D01*
X156632214Y-97526443D01*
X156604500Y-97701421D01*
X156604500Y-97878578D01*
X156632214Y-98053556D01*
X156686956Y-98222039D01*
X156686957Y-98222042D01*
X156767386Y-98379890D01*
X156871517Y-98523214D01*
X156996786Y-98648483D01*
X157140110Y-98752614D01*
X157208577Y-98787500D01*
X157297957Y-98833042D01*
X157297960Y-98833043D01*
X157382201Y-98860414D01*
X157466445Y-98887786D01*
X157641421Y-98915500D01*
X157641422Y-98915500D01*
X157818578Y-98915500D01*
X157818579Y-98915500D01*
X157993555Y-98887786D01*
X158162042Y-98833042D01*
X158319890Y-98752614D01*
X158463214Y-98648483D01*
X158588483Y-98523214D01*
X158692614Y-98379890D01*
X158773042Y-98222042D01*
X158827786Y-98053555D01*
X158855500Y-97878579D01*
X158855500Y-97701421D01*
X158846165Y-97642486D01*
X160559500Y-97642486D01*
X160559500Y-97937513D01*
X160574778Y-98053555D01*
X160598007Y-98229993D01*
X160674361Y-98514951D01*
X160674364Y-98514961D01*
X160787254Y-98787500D01*
X160787258Y-98787510D01*
X160934761Y-99042993D01*
X161114352Y-99277040D01*
X161114358Y-99277047D01*
X161322952Y-99485641D01*
X161322959Y-99485647D01*
X161557006Y-99665238D01*
X161812489Y-99812741D01*
X161812490Y-99812741D01*
X161812493Y-99812743D01*
X162085048Y-99925639D01*
X162370007Y-100001993D01*
X162662494Y-100040500D01*
X162662501Y-100040500D01*
X162957499Y-100040500D01*
X162957506Y-100040500D01*
X163249993Y-100001993D01*
X163534952Y-99925639D01*
X163807507Y-99812743D01*
X164062994Y-99665238D01*
X164297042Y-99485646D01*
X164505646Y-99277042D01*
X164685238Y-99042994D01*
X164832743Y-98787507D01*
X164945639Y-98514952D01*
X165021993Y-98229993D01*
X165060500Y-97937506D01*
X165060500Y-97701421D01*
X166764500Y-97701421D01*
X166764500Y-97878578D01*
X166792214Y-98053556D01*
X166846956Y-98222039D01*
X166846957Y-98222042D01*
X166927386Y-98379890D01*
X167031517Y-98523214D01*
X167156786Y-98648483D01*
X167300110Y-98752614D01*
X167368577Y-98787500D01*
X167457957Y-98833042D01*
X167457960Y-98833043D01*
X167542201Y-98860414D01*
X167626445Y-98887786D01*
X167801421Y-98915500D01*
X167801422Y-98915500D01*
X167978578Y-98915500D01*
X167978579Y-98915500D01*
X168153555Y-98887786D01*
X168322042Y-98833042D01*
X168479890Y-98752614D01*
X168623214Y-98648483D01*
X168748483Y-98523214D01*
X168852614Y-98379890D01*
X168933042Y-98222042D01*
X168987786Y-98053555D01*
X169015500Y-97878579D01*
X169015500Y-97701421D01*
X168987786Y-97526445D01*
X168933042Y-97357958D01*
X168933042Y-97357957D01*
X168852613Y-97200109D01*
X168842201Y-97185778D01*
X168748483Y-97056786D01*
X168623214Y-96931517D01*
X168479890Y-96827386D01*
X168322042Y-96746957D01*
X168322039Y-96746956D01*
X168153556Y-96692214D01*
X168066067Y-96678357D01*
X167978579Y-96664500D01*
X167801421Y-96664500D01*
X167743095Y-96673738D01*
X167626443Y-96692214D01*
X167457960Y-96746956D01*
X167457957Y-96746957D01*
X167300109Y-96827386D01*
X167222104Y-96884061D01*
X167156786Y-96931517D01*
X167156784Y-96931519D01*
X167156783Y-96931519D01*
X167031519Y-97056783D01*
X167031519Y-97056784D01*
X167031517Y-97056786D01*
X167015833Y-97078373D01*
X166927386Y-97200109D01*
X166846957Y-97357957D01*
X166846956Y-97357960D01*
X166792214Y-97526443D01*
X166764500Y-97701421D01*
X165060500Y-97701421D01*
X165060500Y-97642494D01*
X165021993Y-97350007D01*
X164945639Y-97065048D01*
X164933814Y-97036501D01*
X164890329Y-96931519D01*
X164832743Y-96792493D01*
X164819888Y-96770228D01*
X164685238Y-96537006D01*
X164505647Y-96302959D01*
X164505641Y-96302952D01*
X164297047Y-96094358D01*
X164297040Y-96094352D01*
X164062993Y-95914761D01*
X163807510Y-95767258D01*
X163807500Y-95767254D01*
X163534961Y-95654364D01*
X163534954Y-95654362D01*
X163534952Y-95654361D01*
X163249993Y-95578007D01*
X163201113Y-95571571D01*
X162957513Y-95539500D01*
X162957506Y-95539500D01*
X162662494Y-95539500D01*
X162662486Y-95539500D01*
X162384085Y-95576153D01*
X162370007Y-95578007D01*
X162085048Y-95654361D01*
X162085038Y-95654364D01*
X161812499Y-95767254D01*
X161812489Y-95767258D01*
X161557006Y-95914761D01*
X161322959Y-96094352D01*
X161322952Y-96094358D01*
X161114358Y-96302952D01*
X161114352Y-96302959D01*
X160934761Y-96537006D01*
X160787258Y-96792489D01*
X160787254Y-96792499D01*
X160674364Y-97065038D01*
X160674361Y-97065048D01*
X160638172Y-97200110D01*
X160598008Y-97350004D01*
X160598006Y-97350015D01*
X160559500Y-97642486D01*
X158846165Y-97642486D01*
X158827786Y-97526445D01*
X158773042Y-97357958D01*
X158773042Y-97357957D01*
X158745190Y-97303295D01*
X158692614Y-97200110D01*
X158691529Y-97198617D01*
X158682202Y-97185778D01*
X158658722Y-97119972D01*
X158674548Y-97051918D01*
X158724654Y-97003223D01*
X158793132Y-96989348D01*
X158800992Y-96990276D01*
X158868818Y-97000500D01*
X159131182Y-97000500D01*
X159390615Y-96961396D01*
X159641323Y-96884063D01*
X159877704Y-96770228D01*
X160094479Y-96622433D01*
X160286805Y-96443981D01*
X160450386Y-96238857D01*
X160581568Y-96011643D01*
X160677420Y-95767416D01*
X160735802Y-95511630D01*
X160752750Y-95285468D01*
X160755408Y-95250004D01*
X160755408Y-95249995D01*
X160735803Y-94988379D01*
X160735802Y-94988374D01*
X160735802Y-94988370D01*
X160677420Y-94732584D01*
X160581568Y-94488357D01*
X160450386Y-94261143D01*
X160286805Y-94056019D01*
X160286804Y-94056018D01*
X160286801Y-94056014D01*
X160094479Y-93877567D01*
X159912232Y-93753313D01*
X159877704Y-93729772D01*
X159877701Y-93729771D01*
X159877699Y-93729769D01*
X159670698Y-93630083D01*
X159618839Y-93583261D01*
X159600500Y-93518363D01*
X159600500Y-92709995D01*
X163594592Y-92709995D01*
X163594592Y-92710004D01*
X163614196Y-92971620D01*
X163614197Y-92971625D01*
X163672576Y-93227402D01*
X163672578Y-93227411D01*
X163672580Y-93227416D01*
X163768432Y-93471643D01*
X163899614Y-93698857D01*
X164031736Y-93864533D01*
X164063198Y-93903985D01*
X164145125Y-93980001D01*
X164255521Y-94082433D01*
X164472296Y-94230228D01*
X164472301Y-94230230D01*
X164472302Y-94230231D01*
X164472303Y-94230232D01*
X164597843Y-94290688D01*
X164708673Y-94344061D01*
X164708674Y-94344061D01*
X164708677Y-94344063D01*
X164959385Y-94421396D01*
X165218818Y-94460500D01*
X165481182Y-94460500D01*
X165740615Y-94421396D01*
X165991323Y-94344063D01*
X166227704Y-94230228D01*
X166444479Y-94082433D01*
X166554878Y-93979998D01*
X171029532Y-93979998D01*
X171029532Y-93980001D01*
X171049364Y-94206686D01*
X171049366Y-94206697D01*
X171108258Y-94426488D01*
X171108261Y-94426497D01*
X171204431Y-94632732D01*
X171204432Y-94632734D01*
X171334954Y-94819141D01*
X171495858Y-94980045D01*
X171507753Y-94988374D01*
X171682266Y-95110568D01*
X171888504Y-95206739D01*
X172108308Y-95265635D01*
X172270230Y-95279801D01*
X172334998Y-95285468D01*
X172335000Y-95285468D01*
X172335002Y-95285468D01*
X172391673Y-95280509D01*
X172561692Y-95265635D01*
X172781496Y-95206739D01*
X172987734Y-95110568D01*
X173174139Y-94980047D01*
X173335047Y-94819139D01*
X173465568Y-94632734D01*
X173561739Y-94426496D01*
X173620635Y-94206692D01*
X173640468Y-93980000D01*
X173620635Y-93753308D01*
X173561739Y-93533504D01*
X173465568Y-93327266D01*
X173335047Y-93140861D01*
X173335045Y-93140858D01*
X173174141Y-92979954D01*
X172987734Y-92849432D01*
X172987732Y-92849431D01*
X172781497Y-92753261D01*
X172781488Y-92753258D01*
X172561697Y-92694366D01*
X172561693Y-92694365D01*
X172561692Y-92694365D01*
X172561691Y-92694364D01*
X172561686Y-92694364D01*
X172335002Y-92674532D01*
X172334998Y-92674532D01*
X172108313Y-92694364D01*
X172108302Y-92694366D01*
X171888511Y-92753258D01*
X171888502Y-92753261D01*
X171682267Y-92849431D01*
X171682265Y-92849432D01*
X171495858Y-92979954D01*
X171334954Y-93140858D01*
X171204432Y-93327265D01*
X171204431Y-93327267D01*
X171108261Y-93533502D01*
X171108258Y-93533511D01*
X171049366Y-93753302D01*
X171049364Y-93753313D01*
X171029532Y-93979998D01*
X166554878Y-93979998D01*
X166636805Y-93903981D01*
X166800386Y-93698857D01*
X166931568Y-93471643D01*
X167027420Y-93227416D01*
X167085802Y-92971630D01*
X167085803Y-92971620D01*
X167105408Y-92710004D01*
X167105408Y-92709995D01*
X167085803Y-92448379D01*
X167085802Y-92448374D01*
X167085802Y-92448370D01*
X167027420Y-92192584D01*
X166931568Y-91948357D01*
X166800386Y-91721143D01*
X166636805Y-91516019D01*
X166636804Y-91516018D01*
X166636801Y-91516014D01*
X166444479Y-91337567D01*
X166227704Y-91189772D01*
X166227700Y-91189770D01*
X166227697Y-91189768D01*
X166227696Y-91189767D01*
X165991325Y-91075938D01*
X165991327Y-91075938D01*
X165740623Y-90998606D01*
X165740619Y-90998605D01*
X165740615Y-90998604D01*
X165615823Y-90979794D01*
X165481187Y-90959500D01*
X165481182Y-90959500D01*
X165218818Y-90959500D01*
X165218812Y-90959500D01*
X165057247Y-90983853D01*
X164959385Y-90998604D01*
X164959382Y-90998605D01*
X164959376Y-90998606D01*
X164708673Y-91075938D01*
X164472303Y-91189767D01*
X164472302Y-91189768D01*
X164255520Y-91337567D01*
X164063198Y-91516014D01*
X163899614Y-91721143D01*
X163768432Y-91948356D01*
X163672582Y-92192578D01*
X163672576Y-92192597D01*
X163614197Y-92448374D01*
X163614196Y-92448379D01*
X163594592Y-92709995D01*
X159600500Y-92709995D01*
X159600500Y-78592486D01*
X160559500Y-78592486D01*
X160559500Y-78887513D01*
X160574778Y-79003555D01*
X160598007Y-79179993D01*
X160674361Y-79464951D01*
X160674364Y-79464961D01*
X160787254Y-79737500D01*
X160787258Y-79737510D01*
X160934761Y-79992993D01*
X161114352Y-80227040D01*
X161114358Y-80227047D01*
X161322952Y-80435641D01*
X161322959Y-80435647D01*
X161557006Y-80615238D01*
X161812489Y-80762741D01*
X161812490Y-80762741D01*
X161812493Y-80762743D01*
X162085048Y-80875639D01*
X162370007Y-80951993D01*
X162662494Y-80990500D01*
X162662501Y-80990500D01*
X162957499Y-80990500D01*
X162957506Y-80990500D01*
X163249993Y-80951993D01*
X163534952Y-80875639D01*
X163807507Y-80762743D01*
X164062994Y-80615238D01*
X164297042Y-80435646D01*
X164505646Y-80227042D01*
X164685238Y-79992994D01*
X164832743Y-79737507D01*
X164945639Y-79464952D01*
X165021993Y-79179993D01*
X165060500Y-78887506D01*
X165060500Y-78651421D01*
X166764500Y-78651421D01*
X166764500Y-78828578D01*
X166792214Y-79003556D01*
X166846956Y-79172039D01*
X166846957Y-79172042D01*
X166927386Y-79329890D01*
X167031517Y-79473214D01*
X167156786Y-79598483D01*
X167300110Y-79702614D01*
X167368577Y-79737500D01*
X167457957Y-79783042D01*
X167457960Y-79783043D01*
X167542201Y-79810414D01*
X167626445Y-79837786D01*
X167801421Y-79865500D01*
X167801422Y-79865500D01*
X167978578Y-79865500D01*
X167978579Y-79865500D01*
X168153555Y-79837786D01*
X168322042Y-79783042D01*
X168479890Y-79702614D01*
X168623214Y-79598483D01*
X168748483Y-79473214D01*
X168852614Y-79329890D01*
X168933042Y-79172042D01*
X168987786Y-79003555D01*
X169015500Y-78828579D01*
X169015500Y-78651421D01*
X168987786Y-78476445D01*
X168933042Y-78307958D01*
X168933042Y-78307957D01*
X168852613Y-78150109D01*
X168748483Y-78006786D01*
X168623214Y-77881517D01*
X168479890Y-77777386D01*
X168322042Y-77696957D01*
X168322039Y-77696956D01*
X168153556Y-77642214D01*
X168066067Y-77628357D01*
X167978579Y-77614500D01*
X167801421Y-77614500D01*
X167743095Y-77623738D01*
X167626443Y-77642214D01*
X167457960Y-77696956D01*
X167457957Y-77696957D01*
X167300109Y-77777386D01*
X167241572Y-77819916D01*
X167156786Y-77881517D01*
X167156784Y-77881519D01*
X167156783Y-77881519D01*
X167031519Y-78006783D01*
X167031519Y-78006784D01*
X167031517Y-78006786D01*
X167015833Y-78028373D01*
X166927386Y-78150109D01*
X166846957Y-78307957D01*
X166846956Y-78307960D01*
X166792214Y-78476443D01*
X166764500Y-78651421D01*
X165060500Y-78651421D01*
X165060500Y-78592494D01*
X165021993Y-78300007D01*
X164945639Y-78015048D01*
X164933814Y-77986501D01*
X164890329Y-77881519D01*
X164832743Y-77742493D01*
X164819888Y-77720228D01*
X164685238Y-77487006D01*
X164505647Y-77252959D01*
X164505641Y-77252952D01*
X164297047Y-77044358D01*
X164297040Y-77044352D01*
X164062993Y-76864761D01*
X163807510Y-76717258D01*
X163807500Y-76717254D01*
X163534961Y-76604364D01*
X163534954Y-76604362D01*
X163534952Y-76604361D01*
X163249993Y-76528007D01*
X163201113Y-76521571D01*
X162957513Y-76489500D01*
X162957506Y-76489500D01*
X162662494Y-76489500D01*
X162662486Y-76489500D01*
X162384085Y-76526153D01*
X162370007Y-76528007D01*
X162085048Y-76604361D01*
X162085038Y-76604364D01*
X161812499Y-76717254D01*
X161812489Y-76717258D01*
X161557006Y-76864761D01*
X161322959Y-77044352D01*
X161322952Y-77044358D01*
X161114358Y-77252952D01*
X161114352Y-77252959D01*
X160934761Y-77487006D01*
X160787258Y-77742489D01*
X160787254Y-77742499D01*
X160674364Y-78015038D01*
X160674361Y-78015048D01*
X160638172Y-78150110D01*
X160598008Y-78300004D01*
X160598006Y-78300015D01*
X160559500Y-78592486D01*
X159600500Y-78592486D01*
X159600500Y-77931636D01*
X159620185Y-77864597D01*
X159670698Y-77819916D01*
X159877704Y-77720228D01*
X160094479Y-77572433D01*
X160286805Y-77393981D01*
X160450386Y-77188857D01*
X160581568Y-76961643D01*
X160677420Y-76717416D01*
X160735802Y-76461630D01*
X160752750Y-76235468D01*
X160755408Y-76200004D01*
X160755408Y-76199995D01*
X160735803Y-75938379D01*
X160735802Y-75938374D01*
X160735802Y-75938370D01*
X160677420Y-75682584D01*
X160581568Y-75438357D01*
X160450386Y-75211143D01*
X160286805Y-75006019D01*
X160286804Y-75006018D01*
X160286801Y-75006014D01*
X160094479Y-74827567D01*
X159912232Y-74703313D01*
X159877704Y-74679772D01*
X159877701Y-74679771D01*
X159877699Y-74679769D01*
X159670698Y-74580083D01*
X159618839Y-74533261D01*
X159600500Y-74468363D01*
X159600500Y-73659995D01*
X163594592Y-73659995D01*
X163594592Y-73660004D01*
X163614196Y-73921620D01*
X163614197Y-73921625D01*
X163672576Y-74177402D01*
X163672578Y-74177411D01*
X163672580Y-74177416D01*
X163768432Y-74421643D01*
X163899614Y-74648857D01*
X164031736Y-74814533D01*
X164063198Y-74853985D01*
X164145125Y-74930001D01*
X164255521Y-75032433D01*
X164472296Y-75180228D01*
X164472301Y-75180230D01*
X164472302Y-75180231D01*
X164472303Y-75180232D01*
X164597843Y-75240688D01*
X164708673Y-75294061D01*
X164708674Y-75294061D01*
X164708677Y-75294063D01*
X164959385Y-75371396D01*
X165218818Y-75410500D01*
X165481182Y-75410500D01*
X165740615Y-75371396D01*
X165991323Y-75294063D01*
X166227704Y-75180228D01*
X166444479Y-75032433D01*
X166554878Y-74929998D01*
X171029532Y-74929998D01*
X171029532Y-74930001D01*
X171049364Y-75156686D01*
X171049366Y-75156697D01*
X171108258Y-75376488D01*
X171108261Y-75376497D01*
X171204431Y-75582732D01*
X171204432Y-75582734D01*
X171334954Y-75769141D01*
X171495858Y-75930045D01*
X171507753Y-75938374D01*
X171682266Y-76060568D01*
X171888504Y-76156739D01*
X172108308Y-76215635D01*
X172270230Y-76229801D01*
X172334998Y-76235468D01*
X172335000Y-76235468D01*
X172335002Y-76235468D01*
X172391673Y-76230509D01*
X172561692Y-76215635D01*
X172781496Y-76156739D01*
X172987734Y-76060568D01*
X173174139Y-75930047D01*
X173335047Y-75769139D01*
X173465568Y-75582734D01*
X173561739Y-75376496D01*
X173620635Y-75156692D01*
X173640468Y-74930000D01*
X173620635Y-74703308D01*
X173561739Y-74483504D01*
X173465568Y-74277266D01*
X173335047Y-74090861D01*
X173335045Y-74090858D01*
X173174141Y-73929954D01*
X172987734Y-73799432D01*
X172987732Y-73799431D01*
X172781497Y-73703261D01*
X172781488Y-73703258D01*
X172561697Y-73644366D01*
X172561693Y-73644365D01*
X172561692Y-73644365D01*
X172561691Y-73644364D01*
X172561686Y-73644364D01*
X172335002Y-73624532D01*
X172334998Y-73624532D01*
X172108313Y-73644364D01*
X172108302Y-73644366D01*
X171888511Y-73703258D01*
X171888502Y-73703261D01*
X171682267Y-73799431D01*
X171682265Y-73799432D01*
X171495858Y-73929954D01*
X171334954Y-74090858D01*
X171204432Y-74277265D01*
X171204431Y-74277267D01*
X171108261Y-74483502D01*
X171108258Y-74483511D01*
X171049366Y-74703302D01*
X171049364Y-74703313D01*
X171029532Y-74929998D01*
X166554878Y-74929998D01*
X166636805Y-74853981D01*
X166800386Y-74648857D01*
X166931568Y-74421643D01*
X167027420Y-74177416D01*
X167085802Y-73921630D01*
X167085803Y-73921620D01*
X167105408Y-73660004D01*
X167105408Y-73659995D01*
X167085803Y-73398379D01*
X167085802Y-73398374D01*
X167085802Y-73398370D01*
X167027420Y-73142584D01*
X166931568Y-72898357D01*
X166800386Y-72671143D01*
X166636805Y-72466019D01*
X166636804Y-72466018D01*
X166636801Y-72466014D01*
X166444479Y-72287567D01*
X166227704Y-72139772D01*
X166227700Y-72139770D01*
X166227697Y-72139768D01*
X166227696Y-72139767D01*
X165991325Y-72025938D01*
X165991327Y-72025938D01*
X165740623Y-71948606D01*
X165740619Y-71948605D01*
X165740615Y-71948604D01*
X165615823Y-71929794D01*
X165481187Y-71909500D01*
X165481182Y-71909500D01*
X165218818Y-71909500D01*
X165218812Y-71909500D01*
X165057247Y-71933853D01*
X164959385Y-71948604D01*
X164959382Y-71948605D01*
X164959376Y-71948606D01*
X164708673Y-72025938D01*
X164472303Y-72139767D01*
X164472302Y-72139768D01*
X164255520Y-72287567D01*
X164063198Y-72466014D01*
X163899614Y-72671143D01*
X163768432Y-72898356D01*
X163672582Y-73142578D01*
X163672576Y-73142597D01*
X163614197Y-73398374D01*
X163614196Y-73398379D01*
X163594592Y-73659995D01*
X159600500Y-73659995D01*
X159600500Y-62652135D01*
X171034500Y-62652135D01*
X171034500Y-64347870D01*
X171034501Y-64347876D01*
X171040908Y-64407483D01*
X171091202Y-64542328D01*
X171091206Y-64542335D01*
X171177452Y-64657544D01*
X171177455Y-64657547D01*
X171292664Y-64743793D01*
X171292671Y-64743797D01*
X171427517Y-64794091D01*
X171427516Y-64794091D01*
X171434444Y-64794835D01*
X171487127Y-64800500D01*
X173182872Y-64800499D01*
X173242483Y-64794091D01*
X173377331Y-64743796D01*
X173492546Y-64657546D01*
X173578796Y-64542331D01*
X173629091Y-64407483D01*
X173635500Y-64347873D01*
X173635499Y-62652128D01*
X173629091Y-62592517D01*
X173578796Y-62457669D01*
X173578795Y-62457668D01*
X173578793Y-62457664D01*
X173492547Y-62342455D01*
X173492544Y-62342452D01*
X173377335Y-62256206D01*
X173377328Y-62256202D01*
X173242482Y-62205908D01*
X173242483Y-62205908D01*
X173182883Y-62199501D01*
X173182881Y-62199500D01*
X173182873Y-62199500D01*
X173182864Y-62199500D01*
X171487129Y-62199500D01*
X171487123Y-62199501D01*
X171427516Y-62205908D01*
X171292671Y-62256202D01*
X171292664Y-62256206D01*
X171177455Y-62342452D01*
X171177452Y-62342455D01*
X171091206Y-62457664D01*
X171091202Y-62457671D01*
X171040908Y-62592517D01*
X171034501Y-62652116D01*
X171034501Y-62652123D01*
X171034500Y-62652135D01*
X159600500Y-62652135D01*
X159600500Y-59542486D01*
X160559500Y-59542486D01*
X160559500Y-59837513D01*
X160574778Y-59953555D01*
X160598007Y-60129993D01*
X160674361Y-60414951D01*
X160674364Y-60414961D01*
X160787254Y-60687500D01*
X160787258Y-60687510D01*
X160934761Y-60942993D01*
X161114352Y-61177040D01*
X161114358Y-61177047D01*
X161322952Y-61385641D01*
X161322959Y-61385647D01*
X161557006Y-61565238D01*
X161812489Y-61712741D01*
X161812490Y-61712741D01*
X161812493Y-61712743D01*
X162085048Y-61825639D01*
X162370007Y-61901993D01*
X162662494Y-61940500D01*
X162662501Y-61940500D01*
X162957499Y-61940500D01*
X162957506Y-61940500D01*
X163249993Y-61901993D01*
X163534952Y-61825639D01*
X163807507Y-61712743D01*
X164062994Y-61565238D01*
X164297042Y-61385646D01*
X164505646Y-61177042D01*
X164685238Y-60942994D01*
X164832743Y-60687507D01*
X164945639Y-60414952D01*
X165021993Y-60129993D01*
X165060500Y-59837506D01*
X165060500Y-59601421D01*
X166764500Y-59601421D01*
X166764500Y-59778578D01*
X166792214Y-59953556D01*
X166846956Y-60122039D01*
X166846957Y-60122042D01*
X166927386Y-60279890D01*
X167031517Y-60423214D01*
X167156786Y-60548483D01*
X167300110Y-60652614D01*
X167368577Y-60687500D01*
X167457957Y-60733042D01*
X167457960Y-60733043D01*
X167542201Y-60760414D01*
X167626445Y-60787786D01*
X167801421Y-60815500D01*
X167801422Y-60815500D01*
X167978578Y-60815500D01*
X167978579Y-60815500D01*
X168153555Y-60787786D01*
X168322042Y-60733042D01*
X168479890Y-60652614D01*
X168623214Y-60548483D01*
X168748483Y-60423214D01*
X168852614Y-60279890D01*
X168933042Y-60122042D01*
X168987786Y-59953555D01*
X169015500Y-59778579D01*
X169015500Y-59601421D01*
X168987786Y-59426445D01*
X168933042Y-59257958D01*
X168933042Y-59257957D01*
X168852613Y-59100109D01*
X168748483Y-58956786D01*
X168623214Y-58831517D01*
X168479890Y-58727386D01*
X168322042Y-58646957D01*
X168322039Y-58646956D01*
X168153556Y-58592214D01*
X168066067Y-58578357D01*
X167978579Y-58564500D01*
X167801421Y-58564500D01*
X167743095Y-58573738D01*
X167626443Y-58592214D01*
X167457960Y-58646956D01*
X167457957Y-58646957D01*
X167300109Y-58727386D01*
X167241572Y-58769916D01*
X167156786Y-58831517D01*
X167156784Y-58831519D01*
X167156783Y-58831519D01*
X167031519Y-58956783D01*
X167031519Y-58956784D01*
X167031517Y-58956786D01*
X167015833Y-58978373D01*
X166927386Y-59100109D01*
X166846957Y-59257957D01*
X166846956Y-59257960D01*
X166792214Y-59426443D01*
X166764500Y-59601421D01*
X165060500Y-59601421D01*
X165060500Y-59542494D01*
X165021993Y-59250007D01*
X164945639Y-58965048D01*
X164933814Y-58936501D01*
X164890329Y-58831519D01*
X164832743Y-58692493D01*
X164819888Y-58670228D01*
X164685238Y-58437006D01*
X164505647Y-58202959D01*
X164505641Y-58202952D01*
X164297047Y-57994358D01*
X164297040Y-57994352D01*
X164062993Y-57814761D01*
X163807510Y-57667258D01*
X163807500Y-57667254D01*
X163534961Y-57554364D01*
X163534954Y-57554362D01*
X163534952Y-57554361D01*
X163249993Y-57478007D01*
X163201113Y-57471571D01*
X162957513Y-57439500D01*
X162957506Y-57439500D01*
X162662494Y-57439500D01*
X162662486Y-57439500D01*
X162384085Y-57476153D01*
X162370007Y-57478007D01*
X162085048Y-57554361D01*
X162085038Y-57554364D01*
X161812499Y-57667254D01*
X161812489Y-57667258D01*
X161557006Y-57814761D01*
X161322959Y-57994352D01*
X161322952Y-57994358D01*
X161114358Y-58202952D01*
X161114352Y-58202959D01*
X160934761Y-58437006D01*
X160787258Y-58692489D01*
X160787254Y-58692499D01*
X160674364Y-58965038D01*
X160674361Y-58965048D01*
X160638172Y-59100110D01*
X160598008Y-59250004D01*
X160598006Y-59250015D01*
X160559500Y-59542486D01*
X159600500Y-59542486D01*
X159600500Y-58881636D01*
X159620185Y-58814597D01*
X159670698Y-58769916D01*
X159877704Y-58670228D01*
X160094479Y-58522433D01*
X160286805Y-58343981D01*
X160450386Y-58138857D01*
X160581568Y-57911643D01*
X160677420Y-57667416D01*
X160735802Y-57411630D01*
X160752750Y-57185468D01*
X160755408Y-57150004D01*
X160755408Y-57149995D01*
X160735803Y-56888379D01*
X160735802Y-56888374D01*
X160735802Y-56888370D01*
X160677420Y-56632584D01*
X160581568Y-56388357D01*
X160450386Y-56161143D01*
X160286805Y-55956019D01*
X160286804Y-55956018D01*
X160286801Y-55956014D01*
X160094479Y-55777567D01*
X159912232Y-55653313D01*
X159877704Y-55629772D01*
X159877701Y-55629771D01*
X159877699Y-55629769D01*
X159670698Y-55530083D01*
X159618839Y-55483261D01*
X159600500Y-55418363D01*
X159600500Y-54609995D01*
X163594592Y-54609995D01*
X163594592Y-54610004D01*
X163614196Y-54871620D01*
X163614197Y-54871625D01*
X163672576Y-55127402D01*
X163672578Y-55127411D01*
X163672580Y-55127416D01*
X163768432Y-55371643D01*
X163899614Y-55598857D01*
X164031736Y-55764533D01*
X164063198Y-55803985D01*
X164145125Y-55880001D01*
X164255521Y-55982433D01*
X164472296Y-56130228D01*
X164472301Y-56130230D01*
X164472302Y-56130231D01*
X164472303Y-56130232D01*
X164597843Y-56190688D01*
X164708673Y-56244061D01*
X164708674Y-56244061D01*
X164708677Y-56244063D01*
X164959385Y-56321396D01*
X165218818Y-56360500D01*
X165481182Y-56360500D01*
X165740615Y-56321396D01*
X165991323Y-56244063D01*
X166227704Y-56130228D01*
X166444479Y-55982433D01*
X166554878Y-55879998D01*
X171029532Y-55879998D01*
X171029532Y-55880001D01*
X171049364Y-56106686D01*
X171049366Y-56106697D01*
X171108258Y-56326488D01*
X171108261Y-56326497D01*
X171204431Y-56532732D01*
X171204432Y-56532734D01*
X171334954Y-56719141D01*
X171495858Y-56880045D01*
X171507753Y-56888374D01*
X171682266Y-57010568D01*
X171888504Y-57106739D01*
X172108308Y-57165635D01*
X172270230Y-57179801D01*
X172334998Y-57185468D01*
X172335000Y-57185468D01*
X172335002Y-57185468D01*
X172391673Y-57180509D01*
X172561692Y-57165635D01*
X172781496Y-57106739D01*
X172987734Y-57010568D01*
X173174139Y-56880047D01*
X173335047Y-56719139D01*
X173465568Y-56532734D01*
X173561739Y-56326496D01*
X173620635Y-56106692D01*
X173640468Y-55880000D01*
X173620635Y-55653308D01*
X173561739Y-55433504D01*
X173465568Y-55227266D01*
X173335047Y-55040861D01*
X173335045Y-55040858D01*
X173174141Y-54879954D01*
X172987734Y-54749432D01*
X172987732Y-54749431D01*
X172781497Y-54653261D01*
X172781488Y-54653258D01*
X172561697Y-54594366D01*
X172561693Y-54594365D01*
X172561692Y-54594365D01*
X172561691Y-54594364D01*
X172561686Y-54594364D01*
X172335002Y-54574532D01*
X172334998Y-54574532D01*
X172108313Y-54594364D01*
X172108302Y-54594366D01*
X171888511Y-54653258D01*
X171888502Y-54653261D01*
X171682267Y-54749431D01*
X171682265Y-54749432D01*
X171495858Y-54879954D01*
X171334954Y-55040858D01*
X171204432Y-55227265D01*
X171204431Y-55227267D01*
X171108261Y-55433502D01*
X171108258Y-55433511D01*
X171049366Y-55653302D01*
X171049364Y-55653313D01*
X171029532Y-55879998D01*
X166554878Y-55879998D01*
X166636805Y-55803981D01*
X166800386Y-55598857D01*
X166931568Y-55371643D01*
X167027420Y-55127416D01*
X167085802Y-54871630D01*
X167085803Y-54871620D01*
X167105408Y-54610004D01*
X167105408Y-54609995D01*
X167085803Y-54348379D01*
X167085802Y-54348374D01*
X167085802Y-54348370D01*
X167027420Y-54092584D01*
X166931568Y-53848357D01*
X166800386Y-53621143D01*
X166636805Y-53416019D01*
X166636804Y-53416018D01*
X166636801Y-53416014D01*
X166444479Y-53237567D01*
X166364545Y-53183069D01*
X166227704Y-53089772D01*
X166227700Y-53089770D01*
X166227697Y-53089768D01*
X166227696Y-53089767D01*
X165991325Y-52975938D01*
X165991327Y-52975938D01*
X165740623Y-52898606D01*
X165740619Y-52898605D01*
X165740615Y-52898604D01*
X165615823Y-52879794D01*
X165481187Y-52859500D01*
X165481182Y-52859500D01*
X165218818Y-52859500D01*
X165218812Y-52859500D01*
X165057247Y-52883853D01*
X164959385Y-52898604D01*
X164959382Y-52898605D01*
X164959376Y-52898606D01*
X164708673Y-52975938D01*
X164472303Y-53089767D01*
X164472302Y-53089768D01*
X164255520Y-53237567D01*
X164063198Y-53416014D01*
X163899614Y-53621143D01*
X163768432Y-53848356D01*
X163672582Y-54092578D01*
X163672576Y-54092597D01*
X163614197Y-54348374D01*
X163614196Y-54348379D01*
X163594592Y-54609995D01*
X159600500Y-54609995D01*
X159600500Y-52293847D01*
X159620185Y-52226808D01*
X159636819Y-52206166D01*
X160641167Y-51201819D01*
X160702490Y-51168334D01*
X160728848Y-51165500D01*
X173793351Y-51165500D01*
X173860390Y-51185185D01*
X173906145Y-51237989D01*
X173916571Y-51303384D01*
X173910685Y-51355622D01*
X173910685Y-51355628D01*
X173930880Y-51534874D01*
X173930881Y-51534879D01*
X173990461Y-51705148D01*
X174026161Y-51761963D01*
X174076756Y-51842485D01*
X174086435Y-51857888D01*
X174088695Y-51860722D01*
X174089584Y-51862900D01*
X174090139Y-51863783D01*
X174089984Y-51863880D01*
X174115105Y-51925408D01*
X174115750Y-51938037D01*
X174115750Y-79868652D01*
X174096065Y-79935691D01*
X174079431Y-79956333D01*
X172822582Y-81213181D01*
X172761259Y-81246666D01*
X172734901Y-81249500D01*
X171487129Y-81249500D01*
X171487123Y-81249501D01*
X171427516Y-81255908D01*
X171292671Y-81306202D01*
X171292664Y-81306206D01*
X171177455Y-81392452D01*
X171177452Y-81392455D01*
X171091206Y-81507664D01*
X171091202Y-81507671D01*
X171040908Y-81642517D01*
X171034501Y-81702116D01*
X171034501Y-81702123D01*
X171034500Y-81702135D01*
X171034500Y-83397870D01*
X171034501Y-83397876D01*
X171040908Y-83457483D01*
X171091202Y-83592328D01*
X171091206Y-83592335D01*
X171177452Y-83707544D01*
X171177455Y-83707547D01*
X171292664Y-83793793D01*
X171292671Y-83793797D01*
X171427517Y-83844091D01*
X171427516Y-83844091D01*
X171434444Y-83844835D01*
X171487127Y-83850500D01*
X173182872Y-83850499D01*
X173242483Y-83844091D01*
X173377331Y-83793796D01*
X173492546Y-83707546D01*
X173578796Y-83592331D01*
X173629091Y-83457483D01*
X173635500Y-83397873D01*
X173635499Y-82150096D01*
X173655184Y-82083058D01*
X173671818Y-82062416D01*
X174032118Y-81702116D01*
X174304070Y-81430164D01*
X174365392Y-81396680D01*
X174435084Y-81401664D01*
X174491017Y-81443536D01*
X174515434Y-81509000D01*
X174515750Y-81517846D01*
X174515750Y-98518652D01*
X174496065Y-98585691D01*
X174479431Y-98606333D01*
X172822582Y-100263181D01*
X172761259Y-100296666D01*
X172734901Y-100299500D01*
X171487129Y-100299500D01*
X171487123Y-100299501D01*
X171427516Y-100305908D01*
X171292671Y-100356202D01*
X171292664Y-100356206D01*
X171177455Y-100442452D01*
X171177452Y-100442455D01*
X171091206Y-100557664D01*
X171091202Y-100557671D01*
X171040908Y-100692517D01*
X171034501Y-100752116D01*
X171034501Y-100752123D01*
X171034500Y-100752135D01*
X171034500Y-102447870D01*
X171034501Y-102447876D01*
X171040908Y-102507483D01*
X171091202Y-102642328D01*
X171091206Y-102642335D01*
X171177452Y-102757544D01*
X171177455Y-102757547D01*
X171292664Y-102843793D01*
X171292671Y-102843797D01*
X171427517Y-102894091D01*
X171427516Y-102894091D01*
X171434444Y-102894835D01*
X171487127Y-102900500D01*
X173182872Y-102900499D01*
X173242483Y-102894091D01*
X173377331Y-102843796D01*
X173492546Y-102757546D01*
X173578796Y-102642331D01*
X173629091Y-102507483D01*
X173635500Y-102447873D01*
X173635499Y-101200095D01*
X173655184Y-101133057D01*
X173671813Y-101112420D01*
X174032098Y-100752135D01*
X190084500Y-100752135D01*
X190084500Y-102447870D01*
X190084501Y-102447876D01*
X190090908Y-102507483D01*
X190141202Y-102642328D01*
X190141206Y-102642335D01*
X190227452Y-102757544D01*
X190227455Y-102757547D01*
X190342664Y-102843793D01*
X190342671Y-102843797D01*
X190477517Y-102894091D01*
X190477516Y-102894091D01*
X190484444Y-102894835D01*
X190537127Y-102900500D01*
X192232872Y-102900499D01*
X192292483Y-102894091D01*
X192427331Y-102843796D01*
X192542546Y-102757546D01*
X192628796Y-102642331D01*
X192679091Y-102507483D01*
X192685500Y-102447873D01*
X192685499Y-100752135D01*
X209134500Y-100752135D01*
X209134500Y-102447870D01*
X209134501Y-102447876D01*
X209140908Y-102507483D01*
X209191202Y-102642328D01*
X209191206Y-102642335D01*
X209277452Y-102757544D01*
X209277455Y-102757547D01*
X209392664Y-102843793D01*
X209392671Y-102843797D01*
X209527517Y-102894091D01*
X209527516Y-102894091D01*
X209534444Y-102894835D01*
X209587127Y-102900500D01*
X211282872Y-102900499D01*
X211342483Y-102894091D01*
X211477331Y-102843796D01*
X211592546Y-102757546D01*
X211678796Y-102642331D01*
X211729091Y-102507483D01*
X211735500Y-102447873D01*
X211735499Y-100752128D01*
X211729091Y-100692517D01*
X211678796Y-100557669D01*
X211678795Y-100557668D01*
X211678793Y-100557664D01*
X211592547Y-100442455D01*
X211592544Y-100442452D01*
X211477335Y-100356206D01*
X211477328Y-100356202D01*
X211342482Y-100305908D01*
X211342483Y-100305908D01*
X211282883Y-100299501D01*
X211282881Y-100299500D01*
X211282873Y-100299500D01*
X211282864Y-100299500D01*
X209587129Y-100299500D01*
X209587123Y-100299501D01*
X209527516Y-100305908D01*
X209392671Y-100356202D01*
X209392664Y-100356206D01*
X209277455Y-100442452D01*
X209277452Y-100442455D01*
X209191206Y-100557664D01*
X209191202Y-100557671D01*
X209140908Y-100692517D01*
X209134501Y-100752116D01*
X209134501Y-100752123D01*
X209134500Y-100752135D01*
X192685499Y-100752135D01*
X192685499Y-100752128D01*
X192679091Y-100692517D01*
X192628796Y-100557669D01*
X192628795Y-100557668D01*
X192628793Y-100557664D01*
X192542547Y-100442455D01*
X192542544Y-100442452D01*
X192427335Y-100356206D01*
X192427328Y-100356202D01*
X192292482Y-100305908D01*
X192292483Y-100305908D01*
X192232883Y-100299501D01*
X192232881Y-100299500D01*
X192232873Y-100299500D01*
X192232864Y-100299500D01*
X190537129Y-100299500D01*
X190537123Y-100299501D01*
X190477516Y-100305908D01*
X190342671Y-100356202D01*
X190342664Y-100356206D01*
X190227455Y-100442452D01*
X190227452Y-100442455D01*
X190141206Y-100557664D01*
X190141202Y-100557671D01*
X190090908Y-100692517D01*
X190084501Y-100752116D01*
X190084501Y-100752123D01*
X190084500Y-100752135D01*
X174032098Y-100752135D01*
X175474756Y-99309478D01*
X175474761Y-99309474D01*
X175484964Y-99299270D01*
X175484966Y-99299270D01*
X175596770Y-99187466D01*
X175675827Y-99050534D01*
X175716750Y-98897807D01*
X175716750Y-98617809D01*
X175736435Y-98550770D01*
X175789239Y-98505015D01*
X175858397Y-98495071D01*
X175921953Y-98524096D01*
X175928431Y-98530128D01*
X176046786Y-98648483D01*
X176190110Y-98752614D01*
X176258577Y-98787500D01*
X176347957Y-98833042D01*
X176347960Y-98833043D01*
X176432201Y-98860414D01*
X176516445Y-98887786D01*
X176691421Y-98915500D01*
X176691422Y-98915500D01*
X176868578Y-98915500D01*
X176868579Y-98915500D01*
X177043555Y-98887786D01*
X177212042Y-98833042D01*
X177369890Y-98752614D01*
X177513214Y-98648483D01*
X177638483Y-98523214D01*
X177742614Y-98379890D01*
X177823042Y-98222042D01*
X177877786Y-98053555D01*
X177905500Y-97878579D01*
X177905500Y-97701421D01*
X177896165Y-97642486D01*
X179609500Y-97642486D01*
X179609500Y-97937513D01*
X179624778Y-98053555D01*
X179648007Y-98229993D01*
X179724361Y-98514951D01*
X179724364Y-98514961D01*
X179837254Y-98787500D01*
X179837258Y-98787510D01*
X179984761Y-99042993D01*
X180164352Y-99277040D01*
X180164358Y-99277047D01*
X180372952Y-99485641D01*
X180372959Y-99485647D01*
X180607006Y-99665238D01*
X180862489Y-99812741D01*
X180862490Y-99812741D01*
X180862493Y-99812743D01*
X181135048Y-99925639D01*
X181420007Y-100001993D01*
X181712494Y-100040500D01*
X181712501Y-100040500D01*
X182007499Y-100040500D01*
X182007506Y-100040500D01*
X182299993Y-100001993D01*
X182584952Y-99925639D01*
X182857507Y-99812743D01*
X183112994Y-99665238D01*
X183347042Y-99485646D01*
X183555646Y-99277042D01*
X183735238Y-99042994D01*
X183882743Y-98787507D01*
X183995639Y-98514952D01*
X184071993Y-98229993D01*
X184110500Y-97937506D01*
X184110500Y-97701421D01*
X185814500Y-97701421D01*
X185814500Y-97878578D01*
X185842214Y-98053556D01*
X185896956Y-98222039D01*
X185896957Y-98222042D01*
X185977386Y-98379890D01*
X186081517Y-98523214D01*
X186206786Y-98648483D01*
X186350110Y-98752614D01*
X186418577Y-98787500D01*
X186507957Y-98833042D01*
X186507960Y-98833043D01*
X186592201Y-98860414D01*
X186676445Y-98887786D01*
X186851421Y-98915500D01*
X186851422Y-98915500D01*
X187028578Y-98915500D01*
X187028579Y-98915500D01*
X187203555Y-98887786D01*
X187372042Y-98833042D01*
X187529890Y-98752614D01*
X187673214Y-98648483D01*
X187798483Y-98523214D01*
X187902614Y-98379890D01*
X187983042Y-98222042D01*
X188037786Y-98053555D01*
X188065500Y-97878579D01*
X188065500Y-97701421D01*
X188037786Y-97526445D01*
X187983042Y-97357958D01*
X187983042Y-97357957D01*
X187902613Y-97200109D01*
X187892201Y-97185778D01*
X187798483Y-97056786D01*
X187673214Y-96931517D01*
X187529890Y-96827386D01*
X187372042Y-96746957D01*
X187372039Y-96746956D01*
X187203556Y-96692214D01*
X187116067Y-96678357D01*
X187028579Y-96664500D01*
X186851421Y-96664500D01*
X186793095Y-96673738D01*
X186676443Y-96692214D01*
X186507960Y-96746956D01*
X186507957Y-96746957D01*
X186350109Y-96827386D01*
X186272104Y-96884061D01*
X186206786Y-96931517D01*
X186206784Y-96931519D01*
X186206783Y-96931519D01*
X186081519Y-97056783D01*
X186081519Y-97056784D01*
X186081517Y-97056786D01*
X186065833Y-97078373D01*
X185977386Y-97200109D01*
X185896957Y-97357957D01*
X185896956Y-97357960D01*
X185842214Y-97526443D01*
X185814500Y-97701421D01*
X184110500Y-97701421D01*
X184110500Y-97642494D01*
X184071993Y-97350007D01*
X183995639Y-97065048D01*
X183983814Y-97036501D01*
X183940329Y-96931519D01*
X183882743Y-96792493D01*
X183869888Y-96770228D01*
X183735238Y-96537006D01*
X183555647Y-96302959D01*
X183555641Y-96302952D01*
X183347047Y-96094358D01*
X183347040Y-96094352D01*
X183112993Y-95914761D01*
X182857510Y-95767258D01*
X182857500Y-95767254D01*
X182584961Y-95654364D01*
X182584954Y-95654362D01*
X182584952Y-95654361D01*
X182299993Y-95578007D01*
X182251113Y-95571571D01*
X182007513Y-95539500D01*
X182007506Y-95539500D01*
X181712494Y-95539500D01*
X181712486Y-95539500D01*
X181434085Y-95576153D01*
X181420007Y-95578007D01*
X181135048Y-95654361D01*
X181135038Y-95654364D01*
X180862499Y-95767254D01*
X180862489Y-95767258D01*
X180607006Y-95914761D01*
X180372959Y-96094352D01*
X180372952Y-96094358D01*
X180164358Y-96302952D01*
X180164352Y-96302959D01*
X179984761Y-96537006D01*
X179837258Y-96792489D01*
X179837254Y-96792499D01*
X179724364Y-97065038D01*
X179724361Y-97065048D01*
X179688172Y-97200110D01*
X179648008Y-97350004D01*
X179648006Y-97350015D01*
X179609500Y-97642486D01*
X177896165Y-97642486D01*
X177877786Y-97526445D01*
X177823042Y-97357958D01*
X177823042Y-97357957D01*
X177795190Y-97303295D01*
X177742614Y-97200110D01*
X177741529Y-97198617D01*
X177732202Y-97185778D01*
X177708722Y-97119972D01*
X177724548Y-97051918D01*
X177774654Y-97003223D01*
X177843132Y-96989348D01*
X177850992Y-96990276D01*
X177918818Y-97000500D01*
X178181182Y-97000500D01*
X178440615Y-96961396D01*
X178691323Y-96884063D01*
X178927704Y-96770228D01*
X179144479Y-96622433D01*
X179336805Y-96443981D01*
X179500386Y-96238857D01*
X179631568Y-96011643D01*
X179727420Y-95767416D01*
X179785802Y-95511630D01*
X179802750Y-95285468D01*
X179805408Y-95250004D01*
X179805408Y-95249995D01*
X179785803Y-94988379D01*
X179785802Y-94988374D01*
X179785802Y-94988370D01*
X179727420Y-94732584D01*
X179631568Y-94488357D01*
X179500386Y-94261143D01*
X179336805Y-94056019D01*
X179336804Y-94056018D01*
X179336801Y-94056014D01*
X179144479Y-93877567D01*
X178962232Y-93753313D01*
X178927704Y-93729772D01*
X178927701Y-93729771D01*
X178927699Y-93729769D01*
X178720698Y-93630083D01*
X178668839Y-93583261D01*
X178650500Y-93518363D01*
X178650500Y-92709995D01*
X182644592Y-92709995D01*
X182644592Y-92710004D01*
X182664196Y-92971620D01*
X182664197Y-92971625D01*
X182722576Y-93227402D01*
X182722578Y-93227411D01*
X182722580Y-93227416D01*
X182818432Y-93471643D01*
X182949614Y-93698857D01*
X183081736Y-93864533D01*
X183113198Y-93903985D01*
X183195125Y-93980001D01*
X183305521Y-94082433D01*
X183522296Y-94230228D01*
X183522301Y-94230230D01*
X183522302Y-94230231D01*
X183522303Y-94230232D01*
X183647843Y-94290688D01*
X183758673Y-94344061D01*
X183758674Y-94344061D01*
X183758677Y-94344063D01*
X184009385Y-94421396D01*
X184268818Y-94460500D01*
X184531182Y-94460500D01*
X184790615Y-94421396D01*
X185041323Y-94344063D01*
X185277704Y-94230228D01*
X185494479Y-94082433D01*
X185604878Y-93979998D01*
X190079532Y-93979998D01*
X190079532Y-93980001D01*
X190099364Y-94206686D01*
X190099366Y-94206697D01*
X190158258Y-94426488D01*
X190158261Y-94426497D01*
X190254431Y-94632732D01*
X190254432Y-94632734D01*
X190384954Y-94819141D01*
X190545858Y-94980045D01*
X190557753Y-94988374D01*
X190732266Y-95110568D01*
X190938504Y-95206739D01*
X191158308Y-95265635D01*
X191320230Y-95279801D01*
X191384998Y-95285468D01*
X191385000Y-95285468D01*
X191385002Y-95285468D01*
X191441673Y-95280509D01*
X191611692Y-95265635D01*
X191831496Y-95206739D01*
X192037734Y-95110568D01*
X192224139Y-94980047D01*
X192385047Y-94819139D01*
X192515568Y-94632734D01*
X192611739Y-94426496D01*
X192670635Y-94206692D01*
X192690468Y-93980000D01*
X192670635Y-93753308D01*
X192611739Y-93533504D01*
X192515568Y-93327266D01*
X192385047Y-93140861D01*
X192385045Y-93140858D01*
X192224141Y-92979954D01*
X192037734Y-92849432D01*
X192037732Y-92849431D01*
X191831497Y-92753261D01*
X191831488Y-92753258D01*
X191611697Y-92694366D01*
X191611693Y-92694365D01*
X191611692Y-92694365D01*
X191611691Y-92694364D01*
X191611686Y-92694364D01*
X191385002Y-92674532D01*
X191384998Y-92674532D01*
X191158313Y-92694364D01*
X191158302Y-92694366D01*
X190938511Y-92753258D01*
X190938502Y-92753261D01*
X190732267Y-92849431D01*
X190732265Y-92849432D01*
X190545858Y-92979954D01*
X190384954Y-93140858D01*
X190254432Y-93327265D01*
X190254431Y-93327267D01*
X190158261Y-93533502D01*
X190158258Y-93533511D01*
X190099366Y-93753302D01*
X190099364Y-93753313D01*
X190079532Y-93979998D01*
X185604878Y-93979998D01*
X185686805Y-93903981D01*
X185850386Y-93698857D01*
X185981568Y-93471643D01*
X186077420Y-93227416D01*
X186135802Y-92971630D01*
X186135803Y-92971620D01*
X186155408Y-92710004D01*
X186155408Y-92709995D01*
X186135803Y-92448379D01*
X186135802Y-92448374D01*
X186135802Y-92448370D01*
X186077420Y-92192584D01*
X185981568Y-91948357D01*
X185850386Y-91721143D01*
X185686805Y-91516019D01*
X185686804Y-91516018D01*
X185686801Y-91516014D01*
X185494479Y-91337567D01*
X185277704Y-91189772D01*
X185277700Y-91189770D01*
X185277697Y-91189768D01*
X185277696Y-91189767D01*
X185041325Y-91075938D01*
X185041327Y-91075938D01*
X184790623Y-90998606D01*
X184790619Y-90998605D01*
X184790615Y-90998604D01*
X184665823Y-90979794D01*
X184531187Y-90959500D01*
X184531182Y-90959500D01*
X184268818Y-90959500D01*
X184268812Y-90959500D01*
X184107247Y-90983853D01*
X184009385Y-90998604D01*
X184009382Y-90998605D01*
X184009376Y-90998606D01*
X183758673Y-91075938D01*
X183522303Y-91189767D01*
X183522302Y-91189768D01*
X183305520Y-91337567D01*
X183113198Y-91516014D01*
X182949614Y-91721143D01*
X182818432Y-91948356D01*
X182722582Y-92192578D01*
X182722576Y-92192597D01*
X182664197Y-92448374D01*
X182664196Y-92448379D01*
X182644592Y-92709995D01*
X178650500Y-92709995D01*
X178650500Y-81702135D01*
X190084500Y-81702135D01*
X190084500Y-83397870D01*
X190084501Y-83397876D01*
X190090908Y-83457483D01*
X190141202Y-83592328D01*
X190141206Y-83592335D01*
X190227452Y-83707544D01*
X190227455Y-83707547D01*
X190342664Y-83793793D01*
X190342671Y-83793797D01*
X190477517Y-83844091D01*
X190477516Y-83844091D01*
X190484444Y-83844835D01*
X190537127Y-83850500D01*
X192232872Y-83850499D01*
X192292483Y-83844091D01*
X192427331Y-83793796D01*
X192542546Y-83707546D01*
X192628796Y-83592331D01*
X192679091Y-83457483D01*
X192685500Y-83397873D01*
X192685499Y-81702128D01*
X192679091Y-81642517D01*
X192629292Y-81509000D01*
X192628797Y-81507671D01*
X192628793Y-81507664D01*
X192542547Y-81392455D01*
X192542544Y-81392452D01*
X192427335Y-81306206D01*
X192427328Y-81306202D01*
X192292482Y-81255908D01*
X192292483Y-81255908D01*
X192232883Y-81249501D01*
X192232881Y-81249500D01*
X192232873Y-81249500D01*
X192232864Y-81249500D01*
X190537129Y-81249500D01*
X190537123Y-81249501D01*
X190477516Y-81255908D01*
X190342671Y-81306202D01*
X190342664Y-81306206D01*
X190227455Y-81392452D01*
X190227452Y-81392455D01*
X190141206Y-81507664D01*
X190141202Y-81507671D01*
X190090908Y-81642517D01*
X190084501Y-81702116D01*
X190084501Y-81702123D01*
X190084500Y-81702135D01*
X178650500Y-81702135D01*
X178650500Y-78592486D01*
X179609500Y-78592486D01*
X179609500Y-78887513D01*
X179624778Y-79003555D01*
X179648007Y-79179993D01*
X179724361Y-79464951D01*
X179724364Y-79464961D01*
X179837254Y-79737500D01*
X179837258Y-79737510D01*
X179984761Y-79992993D01*
X180164352Y-80227040D01*
X180164358Y-80227047D01*
X180372952Y-80435641D01*
X180372959Y-80435647D01*
X180607006Y-80615238D01*
X180862489Y-80762741D01*
X180862490Y-80762741D01*
X180862493Y-80762743D01*
X181135048Y-80875639D01*
X181420007Y-80951993D01*
X181712494Y-80990500D01*
X181712501Y-80990500D01*
X182007499Y-80990500D01*
X182007506Y-80990500D01*
X182299993Y-80951993D01*
X182584952Y-80875639D01*
X182857507Y-80762743D01*
X183112994Y-80615238D01*
X183347042Y-80435646D01*
X183555646Y-80227042D01*
X183735238Y-79992994D01*
X183882743Y-79737507D01*
X183995639Y-79464952D01*
X184071993Y-79179993D01*
X184110500Y-78887506D01*
X184110500Y-78651421D01*
X185814500Y-78651421D01*
X185814500Y-78828578D01*
X185842214Y-79003556D01*
X185896956Y-79172039D01*
X185896957Y-79172042D01*
X185977386Y-79329890D01*
X186081517Y-79473214D01*
X186206786Y-79598483D01*
X186350110Y-79702614D01*
X186418577Y-79737500D01*
X186507957Y-79783042D01*
X186507960Y-79783043D01*
X186592201Y-79810414D01*
X186676445Y-79837786D01*
X186851421Y-79865500D01*
X186851422Y-79865500D01*
X187028578Y-79865500D01*
X187028579Y-79865500D01*
X187203555Y-79837786D01*
X187372042Y-79783042D01*
X187529890Y-79702614D01*
X187673214Y-79598483D01*
X187798483Y-79473214D01*
X187902614Y-79329890D01*
X187983042Y-79172042D01*
X188037786Y-79003555D01*
X188065500Y-78828579D01*
X188065500Y-78651421D01*
X188037786Y-78476445D01*
X187983042Y-78307958D01*
X187983042Y-78307957D01*
X187902613Y-78150109D01*
X187798483Y-78006786D01*
X187673214Y-77881517D01*
X187529890Y-77777386D01*
X187372042Y-77696957D01*
X187372039Y-77696956D01*
X187203556Y-77642214D01*
X187116067Y-77628357D01*
X187028579Y-77614500D01*
X186851421Y-77614500D01*
X186793095Y-77623738D01*
X186676443Y-77642214D01*
X186507960Y-77696956D01*
X186507957Y-77696957D01*
X186350109Y-77777386D01*
X186291572Y-77819916D01*
X186206786Y-77881517D01*
X186206784Y-77881519D01*
X186206783Y-77881519D01*
X186081519Y-78006783D01*
X186081519Y-78006784D01*
X186081517Y-78006786D01*
X186065833Y-78028373D01*
X185977386Y-78150109D01*
X185896957Y-78307957D01*
X185896956Y-78307960D01*
X185842214Y-78476443D01*
X185814500Y-78651421D01*
X184110500Y-78651421D01*
X184110500Y-78592494D01*
X184071993Y-78300007D01*
X183995639Y-78015048D01*
X183983814Y-77986501D01*
X183940329Y-77881519D01*
X183882743Y-77742493D01*
X183869888Y-77720228D01*
X183735238Y-77487006D01*
X183555647Y-77252959D01*
X183555641Y-77252952D01*
X183347047Y-77044358D01*
X183347040Y-77044352D01*
X183112993Y-76864761D01*
X182857510Y-76717258D01*
X182857500Y-76717254D01*
X182584961Y-76604364D01*
X182584954Y-76604362D01*
X182584952Y-76604361D01*
X182299993Y-76528007D01*
X182251113Y-76521571D01*
X182007513Y-76489500D01*
X182007506Y-76489500D01*
X181712494Y-76489500D01*
X181712486Y-76489500D01*
X181434085Y-76526153D01*
X181420007Y-76528007D01*
X181135048Y-76604361D01*
X181135038Y-76604364D01*
X180862499Y-76717254D01*
X180862489Y-76717258D01*
X180607006Y-76864761D01*
X180372959Y-77044352D01*
X180372952Y-77044358D01*
X180164358Y-77252952D01*
X180164352Y-77252959D01*
X179984761Y-77487006D01*
X179837258Y-77742489D01*
X179837254Y-77742499D01*
X179724364Y-78015038D01*
X179724361Y-78015048D01*
X179688172Y-78150110D01*
X179648008Y-78300004D01*
X179648006Y-78300015D01*
X179609500Y-78592486D01*
X178650500Y-78592486D01*
X178650500Y-77931636D01*
X178670185Y-77864597D01*
X178720698Y-77819916D01*
X178927704Y-77720228D01*
X179144479Y-77572433D01*
X179336805Y-77393981D01*
X179500386Y-77188857D01*
X179631568Y-76961643D01*
X179727420Y-76717416D01*
X179785802Y-76461630D01*
X179802750Y-76235468D01*
X179805408Y-76200004D01*
X179805408Y-76199995D01*
X179785803Y-75938379D01*
X179785802Y-75938374D01*
X179785802Y-75938370D01*
X179727420Y-75682584D01*
X179631568Y-75438357D01*
X179500386Y-75211143D01*
X179336805Y-75006019D01*
X179336804Y-75006018D01*
X179336801Y-75006014D01*
X179144479Y-74827567D01*
X178962232Y-74703313D01*
X178927704Y-74679772D01*
X178927701Y-74679771D01*
X178927699Y-74679769D01*
X178720698Y-74580083D01*
X178668839Y-74533261D01*
X178650500Y-74468363D01*
X178650500Y-73659995D01*
X182644592Y-73659995D01*
X182644592Y-73660004D01*
X182664196Y-73921620D01*
X182664197Y-73921625D01*
X182722576Y-74177402D01*
X182722578Y-74177411D01*
X182722580Y-74177416D01*
X182818432Y-74421643D01*
X182949614Y-74648857D01*
X183081736Y-74814533D01*
X183113198Y-74853985D01*
X183195125Y-74930001D01*
X183305521Y-75032433D01*
X183522296Y-75180228D01*
X183522301Y-75180230D01*
X183522302Y-75180231D01*
X183522303Y-75180232D01*
X183647843Y-75240688D01*
X183758673Y-75294061D01*
X183758674Y-75294061D01*
X183758677Y-75294063D01*
X184009385Y-75371396D01*
X184268818Y-75410500D01*
X184531182Y-75410500D01*
X184790615Y-75371396D01*
X185041323Y-75294063D01*
X185277704Y-75180228D01*
X185494479Y-75032433D01*
X185604878Y-74929998D01*
X190079532Y-74929998D01*
X190079532Y-74930001D01*
X190099364Y-75156686D01*
X190099366Y-75156697D01*
X190158258Y-75376488D01*
X190158261Y-75376497D01*
X190254431Y-75582732D01*
X190254432Y-75582734D01*
X190384954Y-75769141D01*
X190545858Y-75930045D01*
X190557753Y-75938374D01*
X190732266Y-76060568D01*
X190938504Y-76156739D01*
X191158308Y-76215635D01*
X191320230Y-76229801D01*
X191384998Y-76235468D01*
X191385000Y-76235468D01*
X191385002Y-76235468D01*
X191441673Y-76230509D01*
X191611692Y-76215635D01*
X191831496Y-76156739D01*
X192037734Y-76060568D01*
X192224139Y-75930047D01*
X192385047Y-75769139D01*
X192515568Y-75582734D01*
X192611739Y-75376496D01*
X192670635Y-75156692D01*
X192690468Y-74930000D01*
X192670635Y-74703308D01*
X192611739Y-74483504D01*
X192515568Y-74277266D01*
X192385047Y-74090861D01*
X192385045Y-74090858D01*
X192224141Y-73929954D01*
X192037734Y-73799432D01*
X192037732Y-73799431D01*
X191831497Y-73703261D01*
X191831488Y-73703258D01*
X191611697Y-73644366D01*
X191611693Y-73644365D01*
X191611692Y-73644365D01*
X191611691Y-73644364D01*
X191611686Y-73644364D01*
X191385002Y-73624532D01*
X191384998Y-73624532D01*
X191158313Y-73644364D01*
X191158302Y-73644366D01*
X190938511Y-73703258D01*
X190938502Y-73703261D01*
X190732267Y-73799431D01*
X190732265Y-73799432D01*
X190545858Y-73929954D01*
X190384954Y-74090858D01*
X190254432Y-74277265D01*
X190254431Y-74277267D01*
X190158261Y-74483502D01*
X190158258Y-74483511D01*
X190099366Y-74703302D01*
X190099364Y-74703313D01*
X190079532Y-74929998D01*
X185604878Y-74929998D01*
X185686805Y-74853981D01*
X185850386Y-74648857D01*
X185981568Y-74421643D01*
X186077420Y-74177416D01*
X186135802Y-73921630D01*
X186135803Y-73921620D01*
X186155408Y-73660004D01*
X186155408Y-73659995D01*
X186135803Y-73398379D01*
X186135802Y-73398374D01*
X186135802Y-73398370D01*
X186077420Y-73142584D01*
X185981568Y-72898357D01*
X185850386Y-72671143D01*
X185686805Y-72466019D01*
X185686804Y-72466018D01*
X185686801Y-72466014D01*
X185494479Y-72287567D01*
X185277704Y-72139772D01*
X185277700Y-72139770D01*
X185277697Y-72139768D01*
X185277696Y-72139767D01*
X185041325Y-72025938D01*
X185041327Y-72025938D01*
X184790623Y-71948606D01*
X184790619Y-71948605D01*
X184790615Y-71948604D01*
X184665823Y-71929794D01*
X184531187Y-71909500D01*
X184531182Y-71909500D01*
X184268818Y-71909500D01*
X184268812Y-71909500D01*
X184107247Y-71933853D01*
X184009385Y-71948604D01*
X184009382Y-71948605D01*
X184009376Y-71948606D01*
X183758673Y-72025938D01*
X183522303Y-72139767D01*
X183522302Y-72139768D01*
X183305520Y-72287567D01*
X183113198Y-72466014D01*
X182949614Y-72671143D01*
X182818432Y-72898356D01*
X182722582Y-73142578D01*
X182722576Y-73142597D01*
X182664197Y-73398374D01*
X182664196Y-73398379D01*
X182644592Y-73659995D01*
X178650500Y-73659995D01*
X178650500Y-62652135D01*
X190084500Y-62652135D01*
X190084500Y-64347870D01*
X190084501Y-64347876D01*
X190090908Y-64407483D01*
X190141202Y-64542328D01*
X190141206Y-64542335D01*
X190227452Y-64657544D01*
X190227455Y-64657547D01*
X190342664Y-64743793D01*
X190342671Y-64743797D01*
X190477517Y-64794091D01*
X190477516Y-64794091D01*
X190484444Y-64794835D01*
X190537127Y-64800500D01*
X192232872Y-64800499D01*
X192292483Y-64794091D01*
X192427331Y-64743796D01*
X192542546Y-64657546D01*
X192628796Y-64542331D01*
X192679091Y-64407483D01*
X192685500Y-64347873D01*
X192685499Y-62652128D01*
X192679091Y-62592517D01*
X192628796Y-62457669D01*
X192628795Y-62457668D01*
X192628793Y-62457664D01*
X192542547Y-62342455D01*
X192542544Y-62342452D01*
X192427335Y-62256206D01*
X192427328Y-62256202D01*
X192292482Y-62205908D01*
X192292483Y-62205908D01*
X192232883Y-62199501D01*
X192232881Y-62199500D01*
X192232873Y-62199500D01*
X192232864Y-62199500D01*
X190537129Y-62199500D01*
X190537123Y-62199501D01*
X190477516Y-62205908D01*
X190342671Y-62256202D01*
X190342664Y-62256206D01*
X190227455Y-62342452D01*
X190227452Y-62342455D01*
X190141206Y-62457664D01*
X190141202Y-62457671D01*
X190090908Y-62592517D01*
X190084501Y-62652116D01*
X190084501Y-62652123D01*
X190084500Y-62652135D01*
X178650500Y-62652135D01*
X178650500Y-59542486D01*
X179609500Y-59542486D01*
X179609500Y-59837513D01*
X179624778Y-59953555D01*
X179648007Y-60129993D01*
X179724361Y-60414951D01*
X179724364Y-60414961D01*
X179837254Y-60687500D01*
X179837258Y-60687510D01*
X179984761Y-60942993D01*
X180164352Y-61177040D01*
X180164358Y-61177047D01*
X180372952Y-61385641D01*
X180372959Y-61385647D01*
X180607006Y-61565238D01*
X180862489Y-61712741D01*
X180862490Y-61712741D01*
X180862493Y-61712743D01*
X181135048Y-61825639D01*
X181420007Y-61901993D01*
X181712494Y-61940500D01*
X181712501Y-61940500D01*
X182007499Y-61940500D01*
X182007506Y-61940500D01*
X182299993Y-61901993D01*
X182584952Y-61825639D01*
X182857507Y-61712743D01*
X183112994Y-61565238D01*
X183347042Y-61385646D01*
X183555646Y-61177042D01*
X183735238Y-60942994D01*
X183882743Y-60687507D01*
X183995639Y-60414952D01*
X184071993Y-60129993D01*
X184110500Y-59837506D01*
X184110500Y-59601421D01*
X185814500Y-59601421D01*
X185814500Y-59778578D01*
X185842214Y-59953556D01*
X185896956Y-60122039D01*
X185896957Y-60122042D01*
X185977386Y-60279890D01*
X186081517Y-60423214D01*
X186206786Y-60548483D01*
X186350110Y-60652614D01*
X186418577Y-60687500D01*
X186507957Y-60733042D01*
X186507960Y-60733043D01*
X186592201Y-60760414D01*
X186676445Y-60787786D01*
X186851421Y-60815500D01*
X186851422Y-60815500D01*
X187028578Y-60815500D01*
X187028579Y-60815500D01*
X187203555Y-60787786D01*
X187372042Y-60733042D01*
X187529890Y-60652614D01*
X187673214Y-60548483D01*
X187798483Y-60423214D01*
X187902614Y-60279890D01*
X187983042Y-60122042D01*
X188037786Y-59953555D01*
X188065500Y-59778579D01*
X188065500Y-59601421D01*
X188037786Y-59426445D01*
X187983042Y-59257958D01*
X187983042Y-59257957D01*
X187902613Y-59100109D01*
X187798483Y-58956786D01*
X187673214Y-58831517D01*
X187529890Y-58727386D01*
X187372042Y-58646957D01*
X187372039Y-58646956D01*
X187203556Y-58592214D01*
X187116067Y-58578357D01*
X187028579Y-58564500D01*
X186851421Y-58564500D01*
X186793095Y-58573738D01*
X186676443Y-58592214D01*
X186507960Y-58646956D01*
X186507957Y-58646957D01*
X186350109Y-58727386D01*
X186291572Y-58769916D01*
X186206786Y-58831517D01*
X186206784Y-58831519D01*
X186206783Y-58831519D01*
X186081519Y-58956783D01*
X186081519Y-58956784D01*
X186081517Y-58956786D01*
X186065833Y-58978373D01*
X185977386Y-59100109D01*
X185896957Y-59257957D01*
X185896956Y-59257960D01*
X185842214Y-59426443D01*
X185814500Y-59601421D01*
X184110500Y-59601421D01*
X184110500Y-59542494D01*
X184071993Y-59250007D01*
X183995639Y-58965048D01*
X183983814Y-58936501D01*
X183940329Y-58831519D01*
X183882743Y-58692493D01*
X183869888Y-58670228D01*
X183735238Y-58437006D01*
X183555647Y-58202959D01*
X183555641Y-58202952D01*
X183347047Y-57994358D01*
X183347040Y-57994352D01*
X183112993Y-57814761D01*
X182857510Y-57667258D01*
X182857500Y-57667254D01*
X182584961Y-57554364D01*
X182584954Y-57554362D01*
X182584952Y-57554361D01*
X182299993Y-57478007D01*
X182251113Y-57471571D01*
X182007513Y-57439500D01*
X182007506Y-57439500D01*
X181712494Y-57439500D01*
X181712486Y-57439500D01*
X181434085Y-57476153D01*
X181420007Y-57478007D01*
X181135048Y-57554361D01*
X181135038Y-57554364D01*
X180862499Y-57667254D01*
X180862489Y-57667258D01*
X180607006Y-57814761D01*
X180372959Y-57994352D01*
X180372952Y-57994358D01*
X180164358Y-58202952D01*
X180164352Y-58202959D01*
X179984761Y-58437006D01*
X179837258Y-58692489D01*
X179837254Y-58692499D01*
X179724364Y-58965038D01*
X179724361Y-58965048D01*
X179688172Y-59100110D01*
X179648008Y-59250004D01*
X179648006Y-59250015D01*
X179609500Y-59542486D01*
X178650500Y-59542486D01*
X178650500Y-58881636D01*
X178670185Y-58814597D01*
X178720698Y-58769916D01*
X178927704Y-58670228D01*
X179144479Y-58522433D01*
X179336805Y-58343981D01*
X179500386Y-58138857D01*
X179631568Y-57911643D01*
X179727420Y-57667416D01*
X179785802Y-57411630D01*
X179802750Y-57185468D01*
X179805408Y-57150004D01*
X179805408Y-57149995D01*
X179785803Y-56888379D01*
X179785802Y-56888374D01*
X179785802Y-56888370D01*
X179727420Y-56632584D01*
X179631568Y-56388357D01*
X179500386Y-56161143D01*
X179336805Y-55956019D01*
X179336804Y-55956018D01*
X179336801Y-55956014D01*
X179144479Y-55777567D01*
X178962232Y-55653313D01*
X178927704Y-55629772D01*
X178927701Y-55629771D01*
X178927699Y-55629769D01*
X178720698Y-55530083D01*
X178668839Y-55483261D01*
X178650500Y-55418363D01*
X178650500Y-54609995D01*
X182644592Y-54609995D01*
X182644592Y-54610004D01*
X182664196Y-54871620D01*
X182664197Y-54871625D01*
X182722576Y-55127402D01*
X182722578Y-55127411D01*
X182722580Y-55127416D01*
X182818432Y-55371643D01*
X182949614Y-55598857D01*
X183081736Y-55764533D01*
X183113198Y-55803985D01*
X183195125Y-55880001D01*
X183305521Y-55982433D01*
X183522296Y-56130228D01*
X183522301Y-56130230D01*
X183522302Y-56130231D01*
X183522303Y-56130232D01*
X183647843Y-56190688D01*
X183758673Y-56244061D01*
X183758674Y-56244061D01*
X183758677Y-56244063D01*
X184009385Y-56321396D01*
X184268818Y-56360500D01*
X184531182Y-56360500D01*
X184790615Y-56321396D01*
X185041323Y-56244063D01*
X185277704Y-56130228D01*
X185494479Y-55982433D01*
X185604878Y-55879998D01*
X190079532Y-55879998D01*
X190079532Y-55880001D01*
X190099364Y-56106686D01*
X190099366Y-56106697D01*
X190158258Y-56326488D01*
X190158261Y-56326497D01*
X190254431Y-56532732D01*
X190254432Y-56532734D01*
X190384954Y-56719141D01*
X190545858Y-56880045D01*
X190557753Y-56888374D01*
X190732266Y-57010568D01*
X190938504Y-57106739D01*
X191158308Y-57165635D01*
X191320230Y-57179801D01*
X191384998Y-57185468D01*
X191385000Y-57185468D01*
X191385002Y-57185468D01*
X191441673Y-57180509D01*
X191611692Y-57165635D01*
X191831496Y-57106739D01*
X192037734Y-57010568D01*
X192224139Y-56880047D01*
X192385047Y-56719139D01*
X192515568Y-56532734D01*
X192611739Y-56326496D01*
X192670635Y-56106692D01*
X192690468Y-55880000D01*
X192670635Y-55653308D01*
X192611739Y-55433504D01*
X192515568Y-55227266D01*
X192385047Y-55040861D01*
X192385045Y-55040858D01*
X192224141Y-54879954D01*
X192037734Y-54749432D01*
X192037732Y-54749431D01*
X191831497Y-54653261D01*
X191831488Y-54653258D01*
X191611697Y-54594366D01*
X191611693Y-54594365D01*
X191611692Y-54594365D01*
X191611691Y-54594364D01*
X191611686Y-54594364D01*
X191385002Y-54574532D01*
X191384998Y-54574532D01*
X191158313Y-54594364D01*
X191158302Y-54594366D01*
X190938511Y-54653258D01*
X190938502Y-54653261D01*
X190732267Y-54749431D01*
X190732265Y-54749432D01*
X190545858Y-54879954D01*
X190384954Y-55040858D01*
X190254432Y-55227265D01*
X190254431Y-55227267D01*
X190158261Y-55433502D01*
X190158258Y-55433511D01*
X190099366Y-55653302D01*
X190099364Y-55653313D01*
X190079532Y-55879998D01*
X185604878Y-55879998D01*
X185686805Y-55803981D01*
X185850386Y-55598857D01*
X185981568Y-55371643D01*
X186077420Y-55127416D01*
X186135802Y-54871630D01*
X186135803Y-54871620D01*
X186155408Y-54610004D01*
X186155408Y-54609995D01*
X186135803Y-54348379D01*
X186135802Y-54348374D01*
X186135802Y-54348370D01*
X186077420Y-54092584D01*
X185981568Y-53848357D01*
X185850386Y-53621143D01*
X185686805Y-53416019D01*
X185686804Y-53416018D01*
X185686801Y-53416014D01*
X185494479Y-53237567D01*
X185414545Y-53183069D01*
X185277704Y-53089772D01*
X185277700Y-53089770D01*
X185277697Y-53089768D01*
X185277696Y-53089767D01*
X185041325Y-52975938D01*
X185041327Y-52975938D01*
X184790623Y-52898606D01*
X184790619Y-52898605D01*
X184790615Y-52898604D01*
X184665823Y-52879794D01*
X184531187Y-52859500D01*
X184531182Y-52859500D01*
X184268818Y-52859500D01*
X184268812Y-52859500D01*
X184107247Y-52883853D01*
X184009385Y-52898604D01*
X184009382Y-52898605D01*
X184009376Y-52898606D01*
X183758673Y-52975938D01*
X183522303Y-53089767D01*
X183522302Y-53089768D01*
X183305520Y-53237567D01*
X183113198Y-53416014D01*
X182949614Y-53621143D01*
X182818432Y-53848356D01*
X182722582Y-54092578D01*
X182722576Y-54092597D01*
X182664197Y-54348374D01*
X182664196Y-54348379D01*
X182644592Y-54609995D01*
X178650500Y-54609995D01*
X178650500Y-52693847D01*
X178670185Y-52626808D01*
X178686819Y-52606166D01*
X179691167Y-51601819D01*
X179752490Y-51568334D01*
X179778848Y-51565500D01*
X181608331Y-51565500D01*
X181608347Y-51565501D01*
X181615943Y-51565501D01*
X181774054Y-51565501D01*
X181774057Y-51565501D01*
X181926785Y-51524577D01*
X181976904Y-51495639D01*
X182063716Y-51445520D01*
X182175520Y-51333716D01*
X182175520Y-51333714D01*
X182185728Y-51323507D01*
X182185730Y-51323504D01*
X183258814Y-50250419D01*
X183320135Y-50216936D01*
X183386757Y-50220821D01*
X183425857Y-50234245D01*
X183650915Y-50271800D01*
X183879085Y-50271800D01*
X184104143Y-50234245D01*
X184319950Y-50160158D01*
X184520619Y-50051561D01*
X184700677Y-49911417D01*
X184855213Y-49743547D01*
X184931191Y-49627252D01*
X184984337Y-49581896D01*
X185053568Y-49572472D01*
X185116904Y-49601973D01*
X185138809Y-49627253D01*
X185214787Y-49743548D01*
X185369319Y-49911413D01*
X185369323Y-49911417D01*
X185549381Y-50051561D01*
X185750050Y-50160158D01*
X185965857Y-50234245D01*
X186190915Y-50271800D01*
X186419085Y-50271800D01*
X186644143Y-50234245D01*
X186683242Y-50220821D01*
X186753038Y-50217670D01*
X186811186Y-50250421D01*
X189471389Y-52910624D01*
X189471399Y-52910635D01*
X189475729Y-52914965D01*
X189475730Y-52914966D01*
X189587534Y-53026770D01*
X189674345Y-53076889D01*
X189674347Y-53076891D01*
X189724463Y-53105826D01*
X189724465Y-53105827D01*
X189877192Y-53146750D01*
X189877193Y-53146750D01*
X195847403Y-53146750D01*
X195914442Y-53166435D01*
X195935084Y-53183069D01*
X196463181Y-53711166D01*
X196496666Y-53772489D01*
X196499500Y-53798847D01*
X196499500Y-55418363D01*
X196479815Y-55485402D01*
X196429302Y-55530083D01*
X196222300Y-55629769D01*
X196005520Y-55777567D01*
X195813198Y-55956014D01*
X195649614Y-56161143D01*
X195518432Y-56388356D01*
X195422582Y-56632578D01*
X195422576Y-56632597D01*
X195364197Y-56888374D01*
X195364196Y-56888379D01*
X195344592Y-57149995D01*
X195344592Y-57150004D01*
X195364196Y-57411620D01*
X195364197Y-57411625D01*
X195422576Y-57667402D01*
X195422578Y-57667411D01*
X195422580Y-57667416D01*
X195518432Y-57911643D01*
X195649614Y-58138857D01*
X195700733Y-58202958D01*
X195813197Y-58343984D01*
X195819377Y-58349717D01*
X195855133Y-58409744D01*
X195852760Y-58479574D01*
X195813011Y-58537035D01*
X195748506Y-58563884D01*
X195744788Y-58564234D01*
X195741428Y-58564498D01*
X195566443Y-58592214D01*
X195397960Y-58646956D01*
X195397957Y-58646957D01*
X195240109Y-58727386D01*
X195181572Y-58769916D01*
X195096786Y-58831517D01*
X195096784Y-58831519D01*
X195096783Y-58831519D01*
X194971519Y-58956783D01*
X194971519Y-58956784D01*
X194971517Y-58956786D01*
X194955833Y-58978373D01*
X194867386Y-59100109D01*
X194786957Y-59257957D01*
X194786956Y-59257960D01*
X194732214Y-59426443D01*
X194704500Y-59601421D01*
X194704500Y-59778578D01*
X194732214Y-59953556D01*
X194786956Y-60122039D01*
X194786957Y-60122042D01*
X194867386Y-60279890D01*
X194971517Y-60423214D01*
X195096786Y-60548483D01*
X195240110Y-60652614D01*
X195308577Y-60687500D01*
X195397957Y-60733042D01*
X195397960Y-60733043D01*
X195482201Y-60760414D01*
X195566445Y-60787786D01*
X195741421Y-60815500D01*
X195741422Y-60815500D01*
X195918578Y-60815500D01*
X195918579Y-60815500D01*
X196093555Y-60787786D01*
X196262042Y-60733042D01*
X196319205Y-60703915D01*
X196387873Y-60691019D01*
X196452613Y-60717294D01*
X196492871Y-60774400D01*
X196499500Y-60814400D01*
X196499500Y-74468363D01*
X196479815Y-74535402D01*
X196429302Y-74580083D01*
X196222300Y-74679769D01*
X196005520Y-74827567D01*
X195813198Y-75006014D01*
X195649614Y-75211143D01*
X195518432Y-75438356D01*
X195422582Y-75682578D01*
X195422576Y-75682597D01*
X195364197Y-75938374D01*
X195364196Y-75938379D01*
X195344592Y-76199995D01*
X195344592Y-76200004D01*
X195364196Y-76461620D01*
X195364197Y-76461625D01*
X195422576Y-76717402D01*
X195422578Y-76717411D01*
X195422580Y-76717416D01*
X195518432Y-76961643D01*
X195649614Y-77188857D01*
X195700733Y-77252958D01*
X195813197Y-77393984D01*
X195819377Y-77399717D01*
X195855133Y-77459744D01*
X195852760Y-77529574D01*
X195813011Y-77587035D01*
X195748506Y-77613884D01*
X195744788Y-77614234D01*
X195741428Y-77614498D01*
X195566443Y-77642214D01*
X195397960Y-77696956D01*
X195397957Y-77696957D01*
X195240109Y-77777386D01*
X195181572Y-77819916D01*
X195096786Y-77881517D01*
X195096784Y-77881519D01*
X195096783Y-77881519D01*
X194971519Y-78006783D01*
X194971519Y-78006784D01*
X194971517Y-78006786D01*
X194955833Y-78028373D01*
X194867386Y-78150109D01*
X194786957Y-78307957D01*
X194786956Y-78307960D01*
X194732214Y-78476443D01*
X194704500Y-78651421D01*
X194704500Y-78828578D01*
X194732214Y-79003556D01*
X194786956Y-79172039D01*
X194786957Y-79172042D01*
X194867386Y-79329890D01*
X194971517Y-79473214D01*
X195096786Y-79598483D01*
X195240110Y-79702614D01*
X195308577Y-79737500D01*
X195397957Y-79783042D01*
X195397960Y-79783043D01*
X195482201Y-79810414D01*
X195566445Y-79837786D01*
X195741421Y-79865500D01*
X195741422Y-79865500D01*
X195918578Y-79865500D01*
X195918579Y-79865500D01*
X196093555Y-79837786D01*
X196262042Y-79783042D01*
X196319205Y-79753915D01*
X196387873Y-79741019D01*
X196452613Y-79767294D01*
X196492871Y-79824400D01*
X196499500Y-79864400D01*
X196499500Y-93518363D01*
X196479815Y-93585402D01*
X196429302Y-93630083D01*
X196222300Y-93729769D01*
X196005520Y-93877567D01*
X195813198Y-94056014D01*
X195649614Y-94261143D01*
X195518432Y-94488356D01*
X195422582Y-94732578D01*
X195422576Y-94732597D01*
X195364197Y-94988374D01*
X195364196Y-94988379D01*
X195344592Y-95249995D01*
X195344592Y-95250004D01*
X195364196Y-95511620D01*
X195364197Y-95511625D01*
X195422576Y-95767402D01*
X195422578Y-95767411D01*
X195422580Y-95767416D01*
X195518432Y-96011643D01*
X195649614Y-96238857D01*
X195700733Y-96302958D01*
X195813197Y-96443984D01*
X195819377Y-96449717D01*
X195855133Y-96509744D01*
X195852760Y-96579574D01*
X195813011Y-96637035D01*
X195748506Y-96663884D01*
X195744788Y-96664234D01*
X195741428Y-96664498D01*
X195566443Y-96692214D01*
X195397960Y-96746956D01*
X195397957Y-96746957D01*
X195240109Y-96827386D01*
X195162104Y-96884061D01*
X195096786Y-96931517D01*
X195096784Y-96931519D01*
X195096783Y-96931519D01*
X194971519Y-97056783D01*
X194971519Y-97056784D01*
X194971517Y-97056786D01*
X194955833Y-97078373D01*
X194867386Y-97200109D01*
X194786957Y-97357957D01*
X194786956Y-97357960D01*
X194732214Y-97526443D01*
X194704500Y-97701421D01*
X194704500Y-97878578D01*
X194732214Y-98053556D01*
X194786956Y-98222039D01*
X194786957Y-98222042D01*
X194867386Y-98379890D01*
X194971517Y-98523214D01*
X195096786Y-98648483D01*
X195240110Y-98752614D01*
X195308577Y-98787500D01*
X195397957Y-98833042D01*
X195397960Y-98833043D01*
X195482201Y-98860414D01*
X195566445Y-98887786D01*
X195741421Y-98915500D01*
X195741422Y-98915500D01*
X195918578Y-98915500D01*
X195918579Y-98915500D01*
X196093555Y-98887786D01*
X196262042Y-98833042D01*
X196419890Y-98752614D01*
X196563214Y-98648483D01*
X196688483Y-98523214D01*
X196792614Y-98379890D01*
X196873042Y-98222042D01*
X196927786Y-98053555D01*
X196955500Y-97878579D01*
X196955500Y-97701421D01*
X196946165Y-97642486D01*
X198659500Y-97642486D01*
X198659500Y-97937513D01*
X198674778Y-98053555D01*
X198698007Y-98229993D01*
X198774361Y-98514951D01*
X198774364Y-98514961D01*
X198887254Y-98787500D01*
X198887258Y-98787510D01*
X199034761Y-99042993D01*
X199214352Y-99277040D01*
X199214358Y-99277047D01*
X199422952Y-99485641D01*
X199422959Y-99485647D01*
X199657006Y-99665238D01*
X199912489Y-99812741D01*
X199912490Y-99812741D01*
X199912493Y-99812743D01*
X200185048Y-99925639D01*
X200470007Y-100001993D01*
X200762494Y-100040500D01*
X200762501Y-100040500D01*
X201057499Y-100040500D01*
X201057506Y-100040500D01*
X201349993Y-100001993D01*
X201634952Y-99925639D01*
X201907507Y-99812743D01*
X202162994Y-99665238D01*
X202397042Y-99485646D01*
X202605646Y-99277042D01*
X202785238Y-99042994D01*
X202932743Y-98787507D01*
X203045639Y-98514952D01*
X203121993Y-98229993D01*
X203160500Y-97937506D01*
X203160500Y-97701421D01*
X204864500Y-97701421D01*
X204864500Y-97878578D01*
X204892214Y-98053556D01*
X204946956Y-98222039D01*
X204946957Y-98222042D01*
X205027386Y-98379890D01*
X205131517Y-98523214D01*
X205256786Y-98648483D01*
X205400110Y-98752614D01*
X205468577Y-98787500D01*
X205557957Y-98833042D01*
X205557960Y-98833043D01*
X205642201Y-98860414D01*
X205726445Y-98887786D01*
X205901421Y-98915500D01*
X205901422Y-98915500D01*
X206078578Y-98915500D01*
X206078579Y-98915500D01*
X206253555Y-98887786D01*
X206422042Y-98833042D01*
X206579890Y-98752614D01*
X206723214Y-98648483D01*
X206848483Y-98523214D01*
X206952614Y-98379890D01*
X207033042Y-98222042D01*
X207087786Y-98053555D01*
X207115500Y-97878579D01*
X207115500Y-97701421D01*
X207087786Y-97526445D01*
X207033042Y-97357958D01*
X207033042Y-97357957D01*
X206952613Y-97200109D01*
X206942201Y-97185778D01*
X206848483Y-97056786D01*
X206723214Y-96931517D01*
X206579890Y-96827386D01*
X206422042Y-96746957D01*
X206422039Y-96746956D01*
X206253556Y-96692214D01*
X206166067Y-96678357D01*
X206078579Y-96664500D01*
X205901421Y-96664500D01*
X205843095Y-96673738D01*
X205726443Y-96692214D01*
X205557960Y-96746956D01*
X205557957Y-96746957D01*
X205400109Y-96827386D01*
X205322104Y-96884061D01*
X205256786Y-96931517D01*
X205256784Y-96931519D01*
X205256783Y-96931519D01*
X205131519Y-97056783D01*
X205131519Y-97056784D01*
X205131517Y-97056786D01*
X205115833Y-97078373D01*
X205027386Y-97200109D01*
X204946957Y-97357957D01*
X204946956Y-97357960D01*
X204892214Y-97526443D01*
X204864500Y-97701421D01*
X203160500Y-97701421D01*
X203160500Y-97642494D01*
X203121993Y-97350007D01*
X203045639Y-97065048D01*
X203033814Y-97036501D01*
X202990329Y-96931519D01*
X202932743Y-96792493D01*
X202919888Y-96770228D01*
X202785238Y-96537006D01*
X202605647Y-96302959D01*
X202605641Y-96302952D01*
X202397047Y-96094358D01*
X202397040Y-96094352D01*
X202162993Y-95914761D01*
X201907510Y-95767258D01*
X201907500Y-95767254D01*
X201634961Y-95654364D01*
X201634954Y-95654362D01*
X201634952Y-95654361D01*
X201349993Y-95578007D01*
X201301113Y-95571571D01*
X201057513Y-95539500D01*
X201057506Y-95539500D01*
X200762494Y-95539500D01*
X200762486Y-95539500D01*
X200484085Y-95576153D01*
X200470007Y-95578007D01*
X200185048Y-95654361D01*
X200185038Y-95654364D01*
X199912499Y-95767254D01*
X199912489Y-95767258D01*
X199657006Y-95914761D01*
X199422959Y-96094352D01*
X199422952Y-96094358D01*
X199214358Y-96302952D01*
X199214352Y-96302959D01*
X199034761Y-96537006D01*
X198887258Y-96792489D01*
X198887254Y-96792499D01*
X198774364Y-97065038D01*
X198774361Y-97065048D01*
X198738172Y-97200110D01*
X198698008Y-97350004D01*
X198698006Y-97350015D01*
X198659500Y-97642486D01*
X196946165Y-97642486D01*
X196927786Y-97526445D01*
X196873042Y-97357958D01*
X196873042Y-97357957D01*
X196845190Y-97303295D01*
X196792614Y-97200110D01*
X196791529Y-97198617D01*
X196782202Y-97185778D01*
X196758722Y-97119972D01*
X196774548Y-97051918D01*
X196824654Y-97003223D01*
X196893132Y-96989348D01*
X196900992Y-96990276D01*
X196968818Y-97000500D01*
X197231182Y-97000500D01*
X197490615Y-96961396D01*
X197741323Y-96884063D01*
X197977704Y-96770228D01*
X198194479Y-96622433D01*
X198386805Y-96443981D01*
X198550386Y-96238857D01*
X198681568Y-96011643D01*
X198777420Y-95767416D01*
X198835802Y-95511630D01*
X198852750Y-95285468D01*
X198855408Y-95250004D01*
X198855408Y-95249995D01*
X198835803Y-94988379D01*
X198835802Y-94988374D01*
X198835802Y-94988370D01*
X198777420Y-94732584D01*
X198681568Y-94488357D01*
X198550386Y-94261143D01*
X198386805Y-94056019D01*
X198386804Y-94056018D01*
X198386801Y-94056014D01*
X198194479Y-93877567D01*
X198012232Y-93753313D01*
X197977704Y-93729772D01*
X197977701Y-93729771D01*
X197977699Y-93729769D01*
X197770698Y-93630083D01*
X197718839Y-93583261D01*
X197700500Y-93518363D01*
X197700500Y-92709995D01*
X201694592Y-92709995D01*
X201694592Y-92710004D01*
X201714196Y-92971620D01*
X201714197Y-92971625D01*
X201772576Y-93227402D01*
X201772578Y-93227411D01*
X201772580Y-93227416D01*
X201868432Y-93471643D01*
X201999614Y-93698857D01*
X202131736Y-93864533D01*
X202163198Y-93903985D01*
X202245125Y-93980001D01*
X202355521Y-94082433D01*
X202572296Y-94230228D01*
X202572301Y-94230230D01*
X202572302Y-94230231D01*
X202572303Y-94230232D01*
X202697843Y-94290688D01*
X202808673Y-94344061D01*
X202808674Y-94344061D01*
X202808677Y-94344063D01*
X203059385Y-94421396D01*
X203318818Y-94460500D01*
X203581182Y-94460500D01*
X203840615Y-94421396D01*
X204091323Y-94344063D01*
X204327704Y-94230228D01*
X204544479Y-94082433D01*
X204654878Y-93979998D01*
X209129532Y-93979998D01*
X209129532Y-93980001D01*
X209149364Y-94206686D01*
X209149366Y-94206697D01*
X209208258Y-94426488D01*
X209208261Y-94426497D01*
X209304431Y-94632732D01*
X209304432Y-94632734D01*
X209434954Y-94819141D01*
X209595858Y-94980045D01*
X209607753Y-94988374D01*
X209782266Y-95110568D01*
X209988504Y-95206739D01*
X210208308Y-95265635D01*
X210370230Y-95279801D01*
X210434998Y-95285468D01*
X210435000Y-95285468D01*
X210435002Y-95285468D01*
X210491673Y-95280509D01*
X210661692Y-95265635D01*
X210881496Y-95206739D01*
X211087734Y-95110568D01*
X211274139Y-94980047D01*
X211435047Y-94819139D01*
X211565568Y-94632734D01*
X211661739Y-94426496D01*
X211720635Y-94206692D01*
X211740468Y-93980000D01*
X211720635Y-93753308D01*
X211661739Y-93533504D01*
X211565568Y-93327266D01*
X211435047Y-93140861D01*
X211435045Y-93140858D01*
X211274141Y-92979954D01*
X211087734Y-92849432D01*
X211087732Y-92849431D01*
X210881497Y-92753261D01*
X210881488Y-92753258D01*
X210661697Y-92694366D01*
X210661693Y-92694365D01*
X210661692Y-92694365D01*
X210661691Y-92694364D01*
X210661686Y-92694364D01*
X210435002Y-92674532D01*
X210434998Y-92674532D01*
X210208313Y-92694364D01*
X210208302Y-92694366D01*
X209988511Y-92753258D01*
X209988502Y-92753261D01*
X209782267Y-92849431D01*
X209782265Y-92849432D01*
X209595858Y-92979954D01*
X209434954Y-93140858D01*
X209304432Y-93327265D01*
X209304431Y-93327267D01*
X209208261Y-93533502D01*
X209208258Y-93533511D01*
X209149366Y-93753302D01*
X209149364Y-93753313D01*
X209129532Y-93979998D01*
X204654878Y-93979998D01*
X204736805Y-93903981D01*
X204900386Y-93698857D01*
X205031568Y-93471643D01*
X205127420Y-93227416D01*
X205185802Y-92971630D01*
X205185803Y-92971620D01*
X205205408Y-92710004D01*
X205205408Y-92709995D01*
X205185803Y-92448379D01*
X205185802Y-92448374D01*
X205185802Y-92448370D01*
X205127420Y-92192584D01*
X205031568Y-91948357D01*
X204900386Y-91721143D01*
X204736805Y-91516019D01*
X204736804Y-91516018D01*
X204736801Y-91516014D01*
X204544479Y-91337567D01*
X204327704Y-91189772D01*
X204327700Y-91189770D01*
X204327697Y-91189768D01*
X204327696Y-91189767D01*
X204091325Y-91075938D01*
X204091327Y-91075938D01*
X203840623Y-90998606D01*
X203840619Y-90998605D01*
X203840615Y-90998604D01*
X203715823Y-90979794D01*
X203581187Y-90959500D01*
X203581182Y-90959500D01*
X203318818Y-90959500D01*
X203318812Y-90959500D01*
X203157247Y-90983853D01*
X203059385Y-90998604D01*
X203059382Y-90998605D01*
X203059376Y-90998606D01*
X202808673Y-91075938D01*
X202572303Y-91189767D01*
X202572302Y-91189768D01*
X202355520Y-91337567D01*
X202163198Y-91516014D01*
X201999614Y-91721143D01*
X201868432Y-91948356D01*
X201772582Y-92192578D01*
X201772576Y-92192597D01*
X201714197Y-92448374D01*
X201714196Y-92448379D01*
X201694592Y-92709995D01*
X197700500Y-92709995D01*
X197700500Y-81702135D01*
X209134500Y-81702135D01*
X209134500Y-83397870D01*
X209134501Y-83397876D01*
X209140908Y-83457483D01*
X209191202Y-83592328D01*
X209191206Y-83592335D01*
X209277452Y-83707544D01*
X209277455Y-83707547D01*
X209392664Y-83793793D01*
X209392671Y-83793797D01*
X209527517Y-83844091D01*
X209527516Y-83844091D01*
X209534444Y-83844835D01*
X209587127Y-83850500D01*
X211282872Y-83850499D01*
X211342483Y-83844091D01*
X211477331Y-83793796D01*
X211592546Y-83707546D01*
X211678796Y-83592331D01*
X211729091Y-83457483D01*
X211735500Y-83397873D01*
X211735499Y-81702128D01*
X211729091Y-81642517D01*
X211679292Y-81509000D01*
X211678797Y-81507671D01*
X211678793Y-81507664D01*
X211592547Y-81392455D01*
X211592544Y-81392452D01*
X211477335Y-81306206D01*
X211477328Y-81306202D01*
X211342482Y-81255908D01*
X211342483Y-81255908D01*
X211282883Y-81249501D01*
X211282881Y-81249500D01*
X211282873Y-81249500D01*
X211282864Y-81249500D01*
X209587129Y-81249500D01*
X209587123Y-81249501D01*
X209527516Y-81255908D01*
X209392671Y-81306202D01*
X209392664Y-81306206D01*
X209277455Y-81392452D01*
X209277452Y-81392455D01*
X209191206Y-81507664D01*
X209191202Y-81507671D01*
X209140908Y-81642517D01*
X209134501Y-81702116D01*
X209134501Y-81702123D01*
X209134500Y-81702135D01*
X197700500Y-81702135D01*
X197700500Y-78592486D01*
X198659500Y-78592486D01*
X198659500Y-78887513D01*
X198674778Y-79003555D01*
X198698007Y-79179993D01*
X198774361Y-79464951D01*
X198774364Y-79464961D01*
X198887254Y-79737500D01*
X198887258Y-79737510D01*
X199034761Y-79992993D01*
X199214352Y-80227040D01*
X199214358Y-80227047D01*
X199422952Y-80435641D01*
X199422959Y-80435647D01*
X199657006Y-80615238D01*
X199912489Y-80762741D01*
X199912490Y-80762741D01*
X199912493Y-80762743D01*
X200185048Y-80875639D01*
X200470007Y-80951993D01*
X200762494Y-80990500D01*
X200762501Y-80990500D01*
X201057499Y-80990500D01*
X201057506Y-80990500D01*
X201349993Y-80951993D01*
X201634952Y-80875639D01*
X201907507Y-80762743D01*
X202162994Y-80615238D01*
X202397042Y-80435646D01*
X202605646Y-80227042D01*
X202785238Y-79992994D01*
X202932743Y-79737507D01*
X203045639Y-79464952D01*
X203121993Y-79179993D01*
X203160500Y-78887506D01*
X203160500Y-78651421D01*
X204864500Y-78651421D01*
X204864500Y-78828578D01*
X204892214Y-79003556D01*
X204946956Y-79172039D01*
X204946957Y-79172042D01*
X205027386Y-79329890D01*
X205131517Y-79473214D01*
X205256786Y-79598483D01*
X205400110Y-79702614D01*
X205468577Y-79737500D01*
X205557957Y-79783042D01*
X205557960Y-79783043D01*
X205642201Y-79810414D01*
X205726445Y-79837786D01*
X205901421Y-79865500D01*
X205901422Y-79865500D01*
X206078578Y-79865500D01*
X206078579Y-79865500D01*
X206253555Y-79837786D01*
X206422042Y-79783042D01*
X206579890Y-79702614D01*
X206723214Y-79598483D01*
X206848483Y-79473214D01*
X206952614Y-79329890D01*
X207033042Y-79172042D01*
X207087786Y-79003555D01*
X207115500Y-78828579D01*
X207115500Y-78651421D01*
X207087786Y-78476445D01*
X207033042Y-78307958D01*
X207033042Y-78307957D01*
X206952613Y-78150109D01*
X206848483Y-78006786D01*
X206723214Y-77881517D01*
X206579890Y-77777386D01*
X206422042Y-77696957D01*
X206422039Y-77696956D01*
X206253556Y-77642214D01*
X206166067Y-77628357D01*
X206078579Y-77614500D01*
X205901421Y-77614500D01*
X205843095Y-77623738D01*
X205726443Y-77642214D01*
X205557960Y-77696956D01*
X205557957Y-77696957D01*
X205400109Y-77777386D01*
X205341572Y-77819916D01*
X205256786Y-77881517D01*
X205256784Y-77881519D01*
X205256783Y-77881519D01*
X205131519Y-78006783D01*
X205131519Y-78006784D01*
X205131517Y-78006786D01*
X205115833Y-78028373D01*
X205027386Y-78150109D01*
X204946957Y-78307957D01*
X204946956Y-78307960D01*
X204892214Y-78476443D01*
X204864500Y-78651421D01*
X203160500Y-78651421D01*
X203160500Y-78592494D01*
X203121993Y-78300007D01*
X203045639Y-78015048D01*
X203033814Y-77986501D01*
X202990329Y-77881519D01*
X202932743Y-77742493D01*
X202919888Y-77720228D01*
X202785238Y-77487006D01*
X202605647Y-77252959D01*
X202605641Y-77252952D01*
X202397047Y-77044358D01*
X202397040Y-77044352D01*
X202162993Y-76864761D01*
X201907510Y-76717258D01*
X201907500Y-76717254D01*
X201634961Y-76604364D01*
X201634954Y-76604362D01*
X201634952Y-76604361D01*
X201349993Y-76528007D01*
X201301113Y-76521571D01*
X201057513Y-76489500D01*
X201057506Y-76489500D01*
X200762494Y-76489500D01*
X200762486Y-76489500D01*
X200484085Y-76526153D01*
X200470007Y-76528007D01*
X200185048Y-76604361D01*
X200185038Y-76604364D01*
X199912499Y-76717254D01*
X199912489Y-76717258D01*
X199657006Y-76864761D01*
X199422959Y-77044352D01*
X199422952Y-77044358D01*
X199214358Y-77252952D01*
X199214352Y-77252959D01*
X199034761Y-77487006D01*
X198887258Y-77742489D01*
X198887254Y-77742499D01*
X198774364Y-78015038D01*
X198774361Y-78015048D01*
X198738172Y-78150110D01*
X198698008Y-78300004D01*
X198698006Y-78300015D01*
X198659500Y-78592486D01*
X197700500Y-78592486D01*
X197700500Y-77931636D01*
X197720185Y-77864597D01*
X197770698Y-77819916D01*
X197977704Y-77720228D01*
X198194479Y-77572433D01*
X198386805Y-77393981D01*
X198550386Y-77188857D01*
X198681568Y-76961643D01*
X198777420Y-76717416D01*
X198835802Y-76461630D01*
X198852750Y-76235468D01*
X198855408Y-76200004D01*
X198855408Y-76199995D01*
X198835803Y-75938379D01*
X198835802Y-75938374D01*
X198835802Y-75938370D01*
X198777420Y-75682584D01*
X198681568Y-75438357D01*
X198550386Y-75211143D01*
X198386805Y-75006019D01*
X198386804Y-75006018D01*
X198386801Y-75006014D01*
X198194479Y-74827567D01*
X198012232Y-74703313D01*
X197977704Y-74679772D01*
X197977701Y-74679771D01*
X197977699Y-74679769D01*
X197770698Y-74580083D01*
X197718839Y-74533261D01*
X197700500Y-74468363D01*
X197700500Y-73659995D01*
X201694592Y-73659995D01*
X201694592Y-73660004D01*
X201714196Y-73921620D01*
X201714197Y-73921625D01*
X201772576Y-74177402D01*
X201772578Y-74177411D01*
X201772580Y-74177416D01*
X201868432Y-74421643D01*
X201999614Y-74648857D01*
X202131736Y-74814533D01*
X202163198Y-74853985D01*
X202245125Y-74930001D01*
X202355521Y-75032433D01*
X202572296Y-75180228D01*
X202572301Y-75180230D01*
X202572302Y-75180231D01*
X202572303Y-75180232D01*
X202697843Y-75240688D01*
X202808673Y-75294061D01*
X202808674Y-75294061D01*
X202808677Y-75294063D01*
X203059385Y-75371396D01*
X203318818Y-75410500D01*
X203581182Y-75410500D01*
X203840615Y-75371396D01*
X204091323Y-75294063D01*
X204327704Y-75180228D01*
X204544479Y-75032433D01*
X204654878Y-74929998D01*
X209129532Y-74929998D01*
X209129532Y-74930001D01*
X209149364Y-75156686D01*
X209149366Y-75156697D01*
X209208258Y-75376488D01*
X209208261Y-75376497D01*
X209304431Y-75582732D01*
X209304432Y-75582734D01*
X209434954Y-75769141D01*
X209595858Y-75930045D01*
X209607753Y-75938374D01*
X209782266Y-76060568D01*
X209988504Y-76156739D01*
X210208308Y-76215635D01*
X210370230Y-76229801D01*
X210434998Y-76235468D01*
X210435000Y-76235468D01*
X210435002Y-76235468D01*
X210491673Y-76230509D01*
X210661692Y-76215635D01*
X210881496Y-76156739D01*
X211087734Y-76060568D01*
X211274139Y-75930047D01*
X211435047Y-75769139D01*
X211565568Y-75582734D01*
X211661739Y-75376496D01*
X211720635Y-75156692D01*
X211740468Y-74930000D01*
X211720635Y-74703308D01*
X211661739Y-74483504D01*
X211565568Y-74277266D01*
X211435047Y-74090861D01*
X211435045Y-74090858D01*
X211274141Y-73929954D01*
X211087734Y-73799432D01*
X211087732Y-73799431D01*
X210881497Y-73703261D01*
X210881488Y-73703258D01*
X210661697Y-73644366D01*
X210661693Y-73644365D01*
X210661692Y-73644365D01*
X210661691Y-73644364D01*
X210661686Y-73644364D01*
X210435002Y-73624532D01*
X210434998Y-73624532D01*
X210208313Y-73644364D01*
X210208302Y-73644366D01*
X209988511Y-73703258D01*
X209988502Y-73703261D01*
X209782267Y-73799431D01*
X209782265Y-73799432D01*
X209595858Y-73929954D01*
X209434954Y-74090858D01*
X209304432Y-74277265D01*
X209304431Y-74277267D01*
X209208261Y-74483502D01*
X209208258Y-74483511D01*
X209149366Y-74703302D01*
X209149364Y-74703313D01*
X209129532Y-74929998D01*
X204654878Y-74929998D01*
X204736805Y-74853981D01*
X204900386Y-74648857D01*
X205031568Y-74421643D01*
X205127420Y-74177416D01*
X205185802Y-73921630D01*
X205185803Y-73921620D01*
X205205408Y-73660004D01*
X205205408Y-73659995D01*
X205185803Y-73398379D01*
X205185802Y-73398374D01*
X205185802Y-73398370D01*
X205127420Y-73142584D01*
X205031568Y-72898357D01*
X204900386Y-72671143D01*
X204736805Y-72466019D01*
X204736804Y-72466018D01*
X204736801Y-72466014D01*
X204544479Y-72287567D01*
X204327704Y-72139772D01*
X204327700Y-72139770D01*
X204327697Y-72139768D01*
X204327696Y-72139767D01*
X204091325Y-72025938D01*
X204091327Y-72025938D01*
X203840623Y-71948606D01*
X203840619Y-71948605D01*
X203840615Y-71948604D01*
X203715823Y-71929794D01*
X203581187Y-71909500D01*
X203581182Y-71909500D01*
X203318818Y-71909500D01*
X203318812Y-71909500D01*
X203157247Y-71933853D01*
X203059385Y-71948604D01*
X203059382Y-71948605D01*
X203059376Y-71948606D01*
X202808673Y-72025938D01*
X202572303Y-72139767D01*
X202572302Y-72139768D01*
X202355520Y-72287567D01*
X202163198Y-72466014D01*
X201999614Y-72671143D01*
X201868432Y-72898356D01*
X201772582Y-73142578D01*
X201772576Y-73142597D01*
X201714197Y-73398374D01*
X201714196Y-73398379D01*
X201694592Y-73659995D01*
X197700500Y-73659995D01*
X197700500Y-62652135D01*
X209134500Y-62652135D01*
X209134500Y-64347870D01*
X209134501Y-64347876D01*
X209140908Y-64407483D01*
X209191202Y-64542328D01*
X209191206Y-64542335D01*
X209277452Y-64657544D01*
X209277455Y-64657547D01*
X209392664Y-64743793D01*
X209392671Y-64743797D01*
X209527517Y-64794091D01*
X209527516Y-64794091D01*
X209534444Y-64794835D01*
X209587127Y-64800500D01*
X211282872Y-64800499D01*
X211342483Y-64794091D01*
X211477331Y-64743796D01*
X211592546Y-64657546D01*
X211678796Y-64542331D01*
X211729091Y-64407483D01*
X211735500Y-64347873D01*
X211735499Y-62652128D01*
X211729091Y-62592517D01*
X211678796Y-62457669D01*
X211678795Y-62457668D01*
X211678793Y-62457664D01*
X211592547Y-62342455D01*
X211592544Y-62342452D01*
X211477335Y-62256206D01*
X211477328Y-62256202D01*
X211342482Y-62205908D01*
X211342483Y-62205908D01*
X211282883Y-62199501D01*
X211282881Y-62199500D01*
X211282873Y-62199500D01*
X211282864Y-62199500D01*
X209587129Y-62199500D01*
X209587123Y-62199501D01*
X209527516Y-62205908D01*
X209392671Y-62256202D01*
X209392664Y-62256206D01*
X209277455Y-62342452D01*
X209277452Y-62342455D01*
X209191206Y-62457664D01*
X209191202Y-62457671D01*
X209140908Y-62592517D01*
X209134501Y-62652116D01*
X209134501Y-62652123D01*
X209134500Y-62652135D01*
X197700500Y-62652135D01*
X197700500Y-59542486D01*
X198659500Y-59542486D01*
X198659500Y-59837513D01*
X198674778Y-59953555D01*
X198698007Y-60129993D01*
X198774361Y-60414951D01*
X198774364Y-60414961D01*
X198887254Y-60687500D01*
X198887258Y-60687510D01*
X199034761Y-60942993D01*
X199214352Y-61177040D01*
X199214358Y-61177047D01*
X199422952Y-61385641D01*
X199422959Y-61385647D01*
X199657006Y-61565238D01*
X199912489Y-61712741D01*
X199912490Y-61712741D01*
X199912493Y-61712743D01*
X200185048Y-61825639D01*
X200470007Y-61901993D01*
X200762494Y-61940500D01*
X200762501Y-61940500D01*
X201057499Y-61940500D01*
X201057506Y-61940500D01*
X201349993Y-61901993D01*
X201634952Y-61825639D01*
X201907507Y-61712743D01*
X202162994Y-61565238D01*
X202397042Y-61385646D01*
X202605646Y-61177042D01*
X202785238Y-60942994D01*
X202932743Y-60687507D01*
X203045639Y-60414952D01*
X203121993Y-60129993D01*
X203160500Y-59837506D01*
X203160500Y-59601421D01*
X204864500Y-59601421D01*
X204864500Y-59778578D01*
X204892214Y-59953556D01*
X204946956Y-60122039D01*
X204946957Y-60122042D01*
X205027386Y-60279890D01*
X205131517Y-60423214D01*
X205256786Y-60548483D01*
X205400110Y-60652614D01*
X205468577Y-60687500D01*
X205557957Y-60733042D01*
X205557960Y-60733043D01*
X205642201Y-60760414D01*
X205726445Y-60787786D01*
X205901421Y-60815500D01*
X205901422Y-60815500D01*
X206078578Y-60815500D01*
X206078579Y-60815500D01*
X206253555Y-60787786D01*
X206422042Y-60733042D01*
X206579890Y-60652614D01*
X206723214Y-60548483D01*
X206848483Y-60423214D01*
X206952614Y-60279890D01*
X207033042Y-60122042D01*
X207087786Y-59953555D01*
X207115500Y-59778579D01*
X207115500Y-59601421D01*
X207087786Y-59426445D01*
X207033042Y-59257958D01*
X207033042Y-59257957D01*
X206952613Y-59100109D01*
X206848483Y-58956786D01*
X206723214Y-58831517D01*
X206579890Y-58727386D01*
X206422042Y-58646957D01*
X206422039Y-58646956D01*
X206253556Y-58592214D01*
X206166067Y-58578357D01*
X206078579Y-58564500D01*
X205901421Y-58564500D01*
X205843095Y-58573738D01*
X205726443Y-58592214D01*
X205557960Y-58646956D01*
X205557957Y-58646957D01*
X205400109Y-58727386D01*
X205341572Y-58769916D01*
X205256786Y-58831517D01*
X205256784Y-58831519D01*
X205256783Y-58831519D01*
X205131519Y-58956783D01*
X205131519Y-58956784D01*
X205131517Y-58956786D01*
X205115833Y-58978373D01*
X205027386Y-59100109D01*
X204946957Y-59257957D01*
X204946956Y-59257960D01*
X204892214Y-59426443D01*
X204864500Y-59601421D01*
X203160500Y-59601421D01*
X203160500Y-59542494D01*
X203121993Y-59250007D01*
X203045639Y-58965048D01*
X203033814Y-58936501D01*
X202990329Y-58831519D01*
X202932743Y-58692493D01*
X202919888Y-58670228D01*
X202785238Y-58437006D01*
X202605647Y-58202959D01*
X202605641Y-58202952D01*
X202397047Y-57994358D01*
X202397040Y-57994352D01*
X202162993Y-57814761D01*
X201907510Y-57667258D01*
X201907500Y-57667254D01*
X201634961Y-57554364D01*
X201634954Y-57554362D01*
X201634952Y-57554361D01*
X201349993Y-57478007D01*
X201301113Y-57471571D01*
X201057513Y-57439500D01*
X201057506Y-57439500D01*
X200762494Y-57439500D01*
X200762486Y-57439500D01*
X200484085Y-57476153D01*
X200470007Y-57478007D01*
X200185048Y-57554361D01*
X200185038Y-57554364D01*
X199912499Y-57667254D01*
X199912489Y-57667258D01*
X199657006Y-57814761D01*
X199422959Y-57994352D01*
X199422952Y-57994358D01*
X199214358Y-58202952D01*
X199214352Y-58202959D01*
X199034761Y-58437006D01*
X198887258Y-58692489D01*
X198887254Y-58692499D01*
X198774364Y-58965038D01*
X198774361Y-58965048D01*
X198738172Y-59100110D01*
X198698008Y-59250004D01*
X198698006Y-59250015D01*
X198659500Y-59542486D01*
X197700500Y-59542486D01*
X197700500Y-58881636D01*
X197720185Y-58814597D01*
X197770698Y-58769916D01*
X197977704Y-58670228D01*
X198194479Y-58522433D01*
X198386805Y-58343981D01*
X198550386Y-58138857D01*
X198681568Y-57911643D01*
X198777420Y-57667416D01*
X198835802Y-57411630D01*
X198852750Y-57185468D01*
X198855408Y-57150004D01*
X198855408Y-57149995D01*
X198835803Y-56888379D01*
X198835802Y-56888374D01*
X198835802Y-56888370D01*
X198777420Y-56632584D01*
X198681568Y-56388357D01*
X198550386Y-56161143D01*
X198386805Y-55956019D01*
X198386804Y-55956018D01*
X198386801Y-55956014D01*
X198194479Y-55777567D01*
X198012232Y-55653313D01*
X197977704Y-55629772D01*
X197977701Y-55629771D01*
X197977699Y-55629769D01*
X197770698Y-55530083D01*
X197718839Y-55483261D01*
X197700500Y-55418363D01*
X197700500Y-54609995D01*
X201694592Y-54609995D01*
X201694592Y-54610004D01*
X201714196Y-54871620D01*
X201714197Y-54871625D01*
X201772576Y-55127402D01*
X201772578Y-55127411D01*
X201772580Y-55127416D01*
X201868432Y-55371643D01*
X201999614Y-55598857D01*
X202131736Y-55764533D01*
X202163198Y-55803985D01*
X202245125Y-55880001D01*
X202355521Y-55982433D01*
X202572296Y-56130228D01*
X202572301Y-56130230D01*
X202572302Y-56130231D01*
X202572303Y-56130232D01*
X202697843Y-56190688D01*
X202808673Y-56244061D01*
X202808674Y-56244061D01*
X202808677Y-56244063D01*
X203059385Y-56321396D01*
X203318818Y-56360500D01*
X203581182Y-56360500D01*
X203840615Y-56321396D01*
X204091323Y-56244063D01*
X204327704Y-56130228D01*
X204544479Y-55982433D01*
X204654878Y-55879998D01*
X209129532Y-55879998D01*
X209129532Y-55880001D01*
X209149364Y-56106686D01*
X209149366Y-56106697D01*
X209208258Y-56326488D01*
X209208261Y-56326497D01*
X209304431Y-56532732D01*
X209304432Y-56532734D01*
X209434954Y-56719141D01*
X209595858Y-56880045D01*
X209607753Y-56888374D01*
X209782266Y-57010568D01*
X209988504Y-57106739D01*
X210208308Y-57165635D01*
X210370230Y-57179801D01*
X210434998Y-57185468D01*
X210435000Y-57185468D01*
X210435002Y-57185468D01*
X210491673Y-57180509D01*
X210661692Y-57165635D01*
X210881496Y-57106739D01*
X211087734Y-57010568D01*
X211274139Y-56880047D01*
X211435047Y-56719139D01*
X211565568Y-56532734D01*
X211661739Y-56326496D01*
X211720635Y-56106692D01*
X211740468Y-55880000D01*
X211720635Y-55653308D01*
X211661739Y-55433504D01*
X211565568Y-55227266D01*
X211435047Y-55040861D01*
X211435045Y-55040858D01*
X211274141Y-54879954D01*
X211087734Y-54749432D01*
X211087732Y-54749431D01*
X210881497Y-54653261D01*
X210881488Y-54653258D01*
X210661697Y-54594366D01*
X210661693Y-54594365D01*
X210661692Y-54594365D01*
X210661691Y-54594364D01*
X210661686Y-54594364D01*
X210435002Y-54574532D01*
X210434998Y-54574532D01*
X210208313Y-54594364D01*
X210208302Y-54594366D01*
X209988511Y-54653258D01*
X209988502Y-54653261D01*
X209782267Y-54749431D01*
X209782265Y-54749432D01*
X209595858Y-54879954D01*
X209434954Y-55040858D01*
X209304432Y-55227265D01*
X209304431Y-55227267D01*
X209208261Y-55433502D01*
X209208258Y-55433511D01*
X209149366Y-55653302D01*
X209149364Y-55653313D01*
X209129532Y-55879998D01*
X204654878Y-55879998D01*
X204736805Y-55803981D01*
X204900386Y-55598857D01*
X205031568Y-55371643D01*
X205127420Y-55127416D01*
X205185802Y-54871630D01*
X205185803Y-54871620D01*
X205205408Y-54610004D01*
X205205408Y-54609995D01*
X205185803Y-54348379D01*
X205185802Y-54348374D01*
X205185802Y-54348370D01*
X205127420Y-54092584D01*
X205031568Y-53848357D01*
X204900386Y-53621143D01*
X204736805Y-53416019D01*
X204736804Y-53416018D01*
X204736801Y-53416014D01*
X204544479Y-53237567D01*
X204464545Y-53183069D01*
X204327704Y-53089772D01*
X204327700Y-53089770D01*
X204327697Y-53089768D01*
X204327696Y-53089767D01*
X204091325Y-52975938D01*
X204091327Y-52975938D01*
X203840623Y-52898606D01*
X203840619Y-52898605D01*
X203840615Y-52898604D01*
X203715823Y-52879794D01*
X203581187Y-52859500D01*
X203581182Y-52859500D01*
X203318818Y-52859500D01*
X203318812Y-52859500D01*
X203157247Y-52883853D01*
X203059385Y-52898604D01*
X203059382Y-52898605D01*
X203059376Y-52898606D01*
X202808673Y-52975938D01*
X202572303Y-53089767D01*
X202572302Y-53089768D01*
X202355520Y-53237567D01*
X202163198Y-53416014D01*
X201999614Y-53621143D01*
X201868432Y-53848356D01*
X201772582Y-54092578D01*
X201772576Y-54092597D01*
X201714197Y-54348374D01*
X201714196Y-54348379D01*
X201694592Y-54609995D01*
X197700500Y-54609995D01*
X197700500Y-53419695D01*
X197700500Y-53419693D01*
X197659577Y-53266966D01*
X197642604Y-53237567D01*
X197580524Y-53130040D01*
X197580521Y-53130036D01*
X197580520Y-53130034D01*
X197468716Y-53018230D01*
X197468715Y-53018229D01*
X197464385Y-53013899D01*
X197464374Y-53013889D01*
X196635090Y-52184605D01*
X196635088Y-52184602D01*
X196516215Y-52065729D01*
X196485543Y-52048021D01*
X196412976Y-52006125D01*
X196379285Y-51986673D01*
X196226557Y-51945749D01*
X196068443Y-51945749D01*
X196060847Y-51945749D01*
X196060831Y-51945750D01*
X190256347Y-51945750D01*
X190189308Y-51926065D01*
X190168666Y-51909431D01*
X188742716Y-50483481D01*
X188709231Y-50422158D01*
X188714215Y-50352466D01*
X188756087Y-50296533D01*
X188821551Y-50272116D01*
X188830397Y-50271800D01*
X188959085Y-50271800D01*
X189184143Y-50234245D01*
X189399950Y-50160158D01*
X189600619Y-50051561D01*
X189780677Y-49911417D01*
X189935213Y-49743547D01*
X190011191Y-49627252D01*
X190064337Y-49581896D01*
X190133568Y-49572472D01*
X190196904Y-49601973D01*
X190218809Y-49627253D01*
X190294787Y-49743548D01*
X190449319Y-49911413D01*
X190449323Y-49911417D01*
X190629381Y-50051561D01*
X190830050Y-50160158D01*
X191045857Y-50234245D01*
X191270915Y-50271800D01*
X191499085Y-50271800D01*
X191724143Y-50234245D01*
X191939950Y-50160158D01*
X192140619Y-50051561D01*
X192320677Y-49911417D01*
X192475213Y-49743547D01*
X192551191Y-49627252D01*
X192604337Y-49581896D01*
X192673568Y-49572472D01*
X192736904Y-49601973D01*
X192758809Y-49627253D01*
X192834787Y-49743548D01*
X192989319Y-49911413D01*
X192989323Y-49911417D01*
X193169381Y-50051561D01*
X193370050Y-50160158D01*
X193585857Y-50234245D01*
X193810915Y-50271800D01*
X194039085Y-50271800D01*
X194264143Y-50234245D01*
X194479950Y-50160158D01*
X194680619Y-50051561D01*
X194860677Y-49911417D01*
X195015213Y-49743547D01*
X195091191Y-49627252D01*
X195144337Y-49581896D01*
X195213568Y-49572472D01*
X195276904Y-49601973D01*
X195298809Y-49627253D01*
X195374787Y-49743548D01*
X195529319Y-49911413D01*
X195529323Y-49911417D01*
X195709381Y-50051561D01*
X195910050Y-50160158D01*
X196125857Y-50234245D01*
X196350915Y-50271800D01*
X196579085Y-50271800D01*
X196804143Y-50234245D01*
X197019950Y-50160158D01*
X197220619Y-50051561D01*
X197400677Y-49911417D01*
X197555213Y-49743547D01*
X197631191Y-49627252D01*
X197684337Y-49581896D01*
X197753568Y-49572472D01*
X197816904Y-49601973D01*
X197838809Y-49627253D01*
X197914787Y-49743548D01*
X198069319Y-49911413D01*
X198069323Y-49911417D01*
X198249381Y-50051561D01*
X198450050Y-50160158D01*
X198665857Y-50234245D01*
X198890915Y-50271800D01*
X199119085Y-50271800D01*
X199344143Y-50234245D01*
X199559950Y-50160158D01*
X199760619Y-50051561D01*
X199940677Y-49911417D01*
X200095213Y-49743547D01*
X200171191Y-49627252D01*
X200224337Y-49581896D01*
X200293568Y-49572472D01*
X200356904Y-49601973D01*
X200378809Y-49627253D01*
X200454787Y-49743548D01*
X200609319Y-49911413D01*
X200609323Y-49911417D01*
X200789381Y-50051561D01*
X200990050Y-50160158D01*
X201205857Y-50234245D01*
X201430915Y-50271800D01*
X201659085Y-50271800D01*
X201884143Y-50234245D01*
X202099950Y-50160158D01*
X202300619Y-50051561D01*
X202480677Y-49911417D01*
X202635213Y-49743547D01*
X202711191Y-49627252D01*
X202764337Y-49581896D01*
X202833568Y-49572472D01*
X202896904Y-49601973D01*
X202918809Y-49627253D01*
X202994787Y-49743548D01*
X203149319Y-49911413D01*
X203149323Y-49911417D01*
X203329381Y-50051561D01*
X203530050Y-50160158D01*
X203745857Y-50234245D01*
X203970915Y-50271800D01*
X204199085Y-50271800D01*
X204424143Y-50234245D01*
X204639950Y-50160158D01*
X204840619Y-50051561D01*
X205020677Y-49911417D01*
X205175213Y-49743547D01*
X205251191Y-49627252D01*
X205304337Y-49581896D01*
X205373568Y-49572472D01*
X205436904Y-49601973D01*
X205458809Y-49627253D01*
X205534787Y-49743548D01*
X205689319Y-49911413D01*
X205689323Y-49911417D01*
X205869381Y-50051561D01*
X206070050Y-50160158D01*
X206285857Y-50234245D01*
X206510915Y-50271800D01*
X206739085Y-50271800D01*
X206964143Y-50234245D01*
X207179950Y-50160158D01*
X207380619Y-50051561D01*
X207560677Y-49911417D01*
X207715213Y-49743547D01*
X207840010Y-49552530D01*
X207931664Y-49343578D01*
X207987677Y-49122391D01*
X208006519Y-48895000D01*
X207987677Y-48667609D01*
X207931664Y-48446422D01*
X207840010Y-48237470D01*
X207715213Y-48046453D01*
X207715212Y-48046451D01*
X207560680Y-47878586D01*
X207560676Y-47878582D01*
X207383267Y-47740500D01*
X207380619Y-47738439D01*
X207179950Y-47629842D01*
X207179942Y-47629839D01*
X206964145Y-47555755D01*
X206739085Y-47518200D01*
X206510915Y-47518200D01*
X206285854Y-47555755D01*
X206070057Y-47629839D01*
X206070049Y-47629842D01*
X205869379Y-47738440D01*
X205689323Y-47878582D01*
X205689319Y-47878586D01*
X205534787Y-48046451D01*
X205458809Y-48162746D01*
X205405663Y-48208103D01*
X205336431Y-48217527D01*
X205273095Y-48188025D01*
X205251191Y-48162746D01*
X205175212Y-48046451D01*
X205020680Y-47878586D01*
X205020676Y-47878582D01*
X204843267Y-47740500D01*
X204840619Y-47738439D01*
X204639950Y-47629842D01*
X204639942Y-47629839D01*
X204424145Y-47555755D01*
X204199085Y-47518200D01*
X203970915Y-47518200D01*
X203745854Y-47555755D01*
X203530057Y-47629839D01*
X203530049Y-47629842D01*
X203329379Y-47738440D01*
X203149323Y-47878582D01*
X203149319Y-47878586D01*
X202994787Y-48046451D01*
X202918809Y-48162746D01*
X202865663Y-48208103D01*
X202796431Y-48217527D01*
X202733095Y-48188025D01*
X202711191Y-48162746D01*
X202635212Y-48046451D01*
X202480680Y-47878586D01*
X202480676Y-47878582D01*
X202303267Y-47740500D01*
X202300619Y-47738439D01*
X202099950Y-47629842D01*
X202099942Y-47629839D01*
X201884145Y-47555755D01*
X201659085Y-47518200D01*
X201430915Y-47518200D01*
X201205854Y-47555755D01*
X200990057Y-47629839D01*
X200990049Y-47629842D01*
X200789379Y-47738440D01*
X200609323Y-47878582D01*
X200609319Y-47878586D01*
X200454787Y-48046451D01*
X200378809Y-48162746D01*
X200325663Y-48208103D01*
X200256431Y-48217527D01*
X200193095Y-48188025D01*
X200171191Y-48162746D01*
X200095212Y-48046451D01*
X199940680Y-47878586D01*
X199940676Y-47878582D01*
X199763267Y-47740500D01*
X199760619Y-47738439D01*
X199559950Y-47629842D01*
X199559942Y-47629839D01*
X199344145Y-47555755D01*
X199119085Y-47518200D01*
X198890915Y-47518200D01*
X198665854Y-47555755D01*
X198450057Y-47629839D01*
X198450049Y-47629842D01*
X198249379Y-47738440D01*
X198069323Y-47878582D01*
X198069319Y-47878586D01*
X197914787Y-48046451D01*
X197838809Y-48162746D01*
X197785663Y-48208103D01*
X197716431Y-48217527D01*
X197653095Y-48188025D01*
X197631191Y-48162746D01*
X197555212Y-48046451D01*
X197400680Y-47878586D01*
X197400676Y-47878582D01*
X197223267Y-47740500D01*
X197220619Y-47738439D01*
X197019950Y-47629842D01*
X197019942Y-47629839D01*
X196804145Y-47555755D01*
X196579085Y-47518200D01*
X196350915Y-47518200D01*
X196125854Y-47555755D01*
X195910057Y-47629839D01*
X195910049Y-47629842D01*
X195709379Y-47738440D01*
X195529323Y-47878582D01*
X195529319Y-47878586D01*
X195374787Y-48046451D01*
X195298809Y-48162746D01*
X195245663Y-48208103D01*
X195176431Y-48217527D01*
X195113095Y-48188025D01*
X195091191Y-48162746D01*
X195015212Y-48046451D01*
X194860680Y-47878586D01*
X194860676Y-47878582D01*
X194683267Y-47740500D01*
X194680619Y-47738439D01*
X194479950Y-47629842D01*
X194479942Y-47629839D01*
X194264145Y-47555755D01*
X194039085Y-47518200D01*
X193810915Y-47518200D01*
X193585854Y-47555755D01*
X193370057Y-47629839D01*
X193370049Y-47629842D01*
X193169379Y-47738440D01*
X192989323Y-47878582D01*
X192989319Y-47878586D01*
X192834787Y-48046451D01*
X192758809Y-48162746D01*
X192705663Y-48208103D01*
X192636431Y-48217527D01*
X192573095Y-48188025D01*
X192551191Y-48162746D01*
X192475212Y-48046451D01*
X192320680Y-47878586D01*
X192320676Y-47878582D01*
X192143267Y-47740500D01*
X192140619Y-47738439D01*
X191939950Y-47629842D01*
X191939942Y-47629839D01*
X191724145Y-47555755D01*
X191499085Y-47518200D01*
X191270915Y-47518200D01*
X191045854Y-47555755D01*
X190830057Y-47629839D01*
X190830049Y-47629842D01*
X190629379Y-47738440D01*
X190449323Y-47878582D01*
X190449319Y-47878586D01*
X190294787Y-48046451D01*
X190218809Y-48162746D01*
X190165663Y-48208103D01*
X190096431Y-48217527D01*
X190033095Y-48188025D01*
X190011191Y-48162746D01*
X189935212Y-48046451D01*
X189780680Y-47878586D01*
X189780676Y-47878582D01*
X189603267Y-47740500D01*
X189600619Y-47738439D01*
X189399950Y-47629842D01*
X189399942Y-47629839D01*
X189184145Y-47555755D01*
X188959085Y-47518200D01*
X188730915Y-47518200D01*
X188505854Y-47555755D01*
X188290057Y-47629839D01*
X188290049Y-47629842D01*
X188089379Y-47738440D01*
X187909323Y-47878582D01*
X187909319Y-47878586D01*
X187754787Y-48046451D01*
X187678809Y-48162746D01*
X187625663Y-48208103D01*
X187556431Y-48217527D01*
X187493095Y-48188025D01*
X187471191Y-48162746D01*
X187395212Y-48046451D01*
X187240680Y-47878586D01*
X187240676Y-47878582D01*
X187063267Y-47740500D01*
X187060619Y-47738439D01*
X186859950Y-47629842D01*
X186859942Y-47629839D01*
X186644145Y-47555755D01*
X186419085Y-47518200D01*
X186190915Y-47518200D01*
X185965854Y-47555755D01*
X185750057Y-47629839D01*
X185750049Y-47629842D01*
X185549379Y-47738440D01*
X185369323Y-47878582D01*
X185369319Y-47878586D01*
X185214787Y-48046451D01*
X185138809Y-48162746D01*
X185085663Y-48208103D01*
X185016431Y-48217527D01*
X184953095Y-48188025D01*
X184931191Y-48162746D01*
X184855212Y-48046451D01*
X184700680Y-47878586D01*
X184700676Y-47878582D01*
X184523267Y-47740500D01*
X184520619Y-47738439D01*
X184319950Y-47629842D01*
X184319942Y-47629839D01*
X184104145Y-47555755D01*
X183879085Y-47518200D01*
X183650915Y-47518200D01*
X183425854Y-47555755D01*
X183210057Y-47629839D01*
X183210049Y-47629842D01*
X183009379Y-47738440D01*
X182829323Y-47878582D01*
X182829319Y-47878586D01*
X182674787Y-48046451D01*
X182598809Y-48162746D01*
X182545663Y-48208103D01*
X182476431Y-48217527D01*
X182413095Y-48188025D01*
X182391191Y-48162746D01*
X182315212Y-48046451D01*
X182160680Y-47878586D01*
X182160676Y-47878582D01*
X181983267Y-47740500D01*
X181980619Y-47738439D01*
X181779950Y-47629842D01*
X181779942Y-47629839D01*
X181564145Y-47555755D01*
X181339085Y-47518200D01*
X181110915Y-47518200D01*
X180885854Y-47555755D01*
X180670057Y-47629839D01*
X180670049Y-47629842D01*
X180469379Y-47738440D01*
X180289323Y-47878582D01*
X180289319Y-47878586D01*
X180134787Y-48046451D01*
X180058809Y-48162746D01*
X180005663Y-48208103D01*
X179936431Y-48217527D01*
X179873095Y-48188025D01*
X179851191Y-48162746D01*
X179775212Y-48046451D01*
X179620680Y-47878586D01*
X179620676Y-47878582D01*
X179443267Y-47740500D01*
X179440619Y-47738439D01*
X179239950Y-47629842D01*
X179239942Y-47629839D01*
X179024145Y-47555755D01*
X178799085Y-47518200D01*
X178570915Y-47518200D01*
X178345854Y-47555755D01*
X178130057Y-47629839D01*
X178130049Y-47629842D01*
X177929379Y-47738440D01*
X177749323Y-47878582D01*
X177749319Y-47878586D01*
X177594787Y-48046451D01*
X177469989Y-48237470D01*
X177378335Y-48446422D01*
X177322323Y-48667608D01*
X177322321Y-48667616D01*
X177303481Y-48894994D01*
X177303481Y-48895005D01*
X177322321Y-49122383D01*
X177322325Y-49122403D01*
X177362827Y-49282338D01*
X177360203Y-49352159D01*
X177330303Y-49400460D01*
X177202582Y-49528182D01*
X177141262Y-49561666D01*
X177114903Y-49564500D01*
X141465420Y-49564500D01*
X141465404Y-49564499D01*
X141457808Y-49564499D01*
X141299693Y-49564499D01*
X141234768Y-49581896D01*
X141146964Y-49605423D01*
X141146959Y-49605426D01*
X141010040Y-49684475D01*
X141010032Y-49684481D01*
X139469481Y-51225032D01*
X139469480Y-51225034D01*
X139422073Y-51307147D01*
X139419361Y-51311844D01*
X139419359Y-51311846D01*
X139390425Y-51361959D01*
X139390424Y-51361960D01*
X139386346Y-51377181D01*
X139349499Y-51514693D01*
X139349499Y-51514695D01*
X139349499Y-51682796D01*
X139349500Y-51682809D01*
X139349500Y-55418363D01*
X139329815Y-55485402D01*
X139279302Y-55530083D01*
X139072300Y-55629769D01*
X138855520Y-55777567D01*
X138663198Y-55956014D01*
X138499614Y-56161143D01*
X138368432Y-56388356D01*
X138272582Y-56632578D01*
X138272576Y-56632597D01*
X138214197Y-56888374D01*
X138214196Y-56888379D01*
X138194592Y-57149995D01*
X138194592Y-57150004D01*
X138214196Y-57411620D01*
X138214197Y-57411625D01*
X138272576Y-57667402D01*
X138272578Y-57667411D01*
X138272580Y-57667416D01*
X138368432Y-57911643D01*
X138499614Y-58138857D01*
X138550733Y-58202958D01*
X138663197Y-58343984D01*
X138669377Y-58349717D01*
X138705133Y-58409744D01*
X138702760Y-58479574D01*
X138663011Y-58537035D01*
X138598506Y-58563884D01*
X138594788Y-58564234D01*
X138591428Y-58564498D01*
X138416443Y-58592214D01*
X138247960Y-58646956D01*
X138247957Y-58646957D01*
X138090109Y-58727386D01*
X138031572Y-58769916D01*
X137946786Y-58831517D01*
X137946784Y-58831519D01*
X137946783Y-58831519D01*
X137821519Y-58956783D01*
X137821519Y-58956784D01*
X137821517Y-58956786D01*
X137805833Y-58978373D01*
X137717386Y-59100109D01*
X137636957Y-59257957D01*
X137636956Y-59257960D01*
X137582214Y-59426443D01*
X137554500Y-59601421D01*
X133544875Y-59601421D01*
X133544875Y-45192135D01*
X141659500Y-45192135D01*
X141659500Y-47287870D01*
X141659501Y-47287876D01*
X141665908Y-47347483D01*
X141716202Y-47482328D01*
X141716206Y-47482335D01*
X141802452Y-47597544D01*
X141802455Y-47597547D01*
X141917664Y-47683793D01*
X141917671Y-47683797D01*
X142052517Y-47734091D01*
X142052516Y-47734091D01*
X142059444Y-47734835D01*
X142112127Y-47740500D01*
X145407872Y-47740499D01*
X145467483Y-47734091D01*
X145602331Y-47683796D01*
X145717546Y-47597546D01*
X145803796Y-47482331D01*
X145854091Y-47347483D01*
X145860500Y-47287873D01*
X145860499Y-45192128D01*
X145854091Y-45132517D01*
X145803796Y-44997669D01*
X145803795Y-44997668D01*
X145803793Y-44997664D01*
X145717547Y-44882455D01*
X145717544Y-44882452D01*
X145602335Y-44796206D01*
X145602328Y-44796202D01*
X145467482Y-44745908D01*
X145467483Y-44745908D01*
X145407883Y-44739501D01*
X145407881Y-44739500D01*
X145407873Y-44739500D01*
X145407864Y-44739500D01*
X142112129Y-44739500D01*
X142112123Y-44739501D01*
X142052516Y-44745908D01*
X141917671Y-44796202D01*
X141917664Y-44796206D01*
X141802455Y-44882452D01*
X141802452Y-44882455D01*
X141716206Y-44997664D01*
X141716202Y-44997671D01*
X141665908Y-45132517D01*
X141659501Y-45192116D01*
X141659501Y-45192123D01*
X141659500Y-45192135D01*
X133544875Y-45192135D01*
X133544875Y-40639994D01*
X134754357Y-40639994D01*
X134754357Y-40640005D01*
X134774890Y-40887812D01*
X134774892Y-40887824D01*
X134835936Y-41128881D01*
X134935826Y-41356606D01*
X135071833Y-41564782D01*
X135071836Y-41564785D01*
X135240256Y-41747738D01*
X135297312Y-41792147D01*
X135338125Y-41848857D01*
X135341800Y-41918630D01*
X135307169Y-41979313D01*
X135297317Y-41987848D01*
X135257283Y-42019008D01*
X135240257Y-42032261D01*
X135071833Y-42215217D01*
X134935826Y-42423393D01*
X134835936Y-42651118D01*
X134774892Y-42892175D01*
X134774890Y-42892187D01*
X134754357Y-43139994D01*
X134754357Y-43140005D01*
X134774890Y-43387812D01*
X134774892Y-43387824D01*
X134835936Y-43628881D01*
X134935826Y-43856606D01*
X135071833Y-44064782D01*
X135071836Y-44064785D01*
X135240256Y-44247738D01*
X135436491Y-44400474D01*
X135655190Y-44518828D01*
X135890386Y-44599571D01*
X136135665Y-44640500D01*
X136384335Y-44640500D01*
X136629614Y-44599571D01*
X136864810Y-44518828D01*
X137083509Y-44400474D01*
X137279744Y-44247738D01*
X137448164Y-44064785D01*
X137584173Y-43856607D01*
X137684063Y-43628881D01*
X137745108Y-43387821D01*
X137765643Y-43140000D01*
X137765643Y-43139994D01*
X149254357Y-43139994D01*
X149254357Y-43140005D01*
X149274890Y-43387812D01*
X149274892Y-43387824D01*
X149335936Y-43628881D01*
X149435826Y-43856606D01*
X149571833Y-44064782D01*
X149571836Y-44064785D01*
X149740256Y-44247738D01*
X149936491Y-44400474D01*
X150155190Y-44518828D01*
X150390386Y-44599571D01*
X150635665Y-44640500D01*
X150884335Y-44640500D01*
X151129614Y-44599571D01*
X151364810Y-44518828D01*
X151583509Y-44400474D01*
X151779744Y-44247738D01*
X151948164Y-44064785D01*
X152084173Y-43856607D01*
X152184063Y-43628881D01*
X152245108Y-43387821D01*
X152265643Y-43140000D01*
X152245108Y-42892179D01*
X152184063Y-42651119D01*
X152084173Y-42423393D01*
X151948166Y-42215217D01*
X151926557Y-42191744D01*
X151779744Y-42032262D01*
X151583509Y-41879526D01*
X151583507Y-41879525D01*
X151583506Y-41879524D01*
X151364811Y-41761172D01*
X151364802Y-41761169D01*
X151129616Y-41680429D01*
X150884335Y-41639500D01*
X150635665Y-41639500D01*
X150390383Y-41680429D01*
X150155197Y-41761169D01*
X150155188Y-41761172D01*
X149936493Y-41879524D01*
X149740257Y-42032261D01*
X149571833Y-42215217D01*
X149435826Y-42423393D01*
X149335936Y-42651118D01*
X149274892Y-42892175D01*
X149274890Y-42892187D01*
X149254357Y-43139994D01*
X137765643Y-43139994D01*
X137745108Y-42892179D01*
X137684063Y-42651119D01*
X137584173Y-42423393D01*
X137448166Y-42215217D01*
X137419100Y-42183643D01*
X137279744Y-42032262D01*
X137222685Y-41987851D01*
X137181874Y-41931143D01*
X137178199Y-41861370D01*
X137212830Y-41800687D01*
X137222675Y-41792156D01*
X137279744Y-41747738D01*
X137448164Y-41564785D01*
X137584173Y-41356607D01*
X137684063Y-41128881D01*
X137745108Y-40887821D01*
X137765643Y-40640000D01*
X137745108Y-40392179D01*
X137684063Y-40151119D01*
X137584173Y-39923393D01*
X137471916Y-39751570D01*
X137451729Y-39684681D01*
X137470909Y-39617495D01*
X137501414Y-39584482D01*
X137502329Y-39583796D01*
X137502331Y-39583796D01*
X137617546Y-39497546D01*
X137703796Y-39382331D01*
X137754091Y-39247483D01*
X137760500Y-39187873D01*
X137760499Y-38139994D01*
X149254357Y-38139994D01*
X149254357Y-38140005D01*
X149274890Y-38387812D01*
X149274892Y-38387824D01*
X149335936Y-38628881D01*
X149435826Y-38856606D01*
X149571833Y-39064782D01*
X149571836Y-39064785D01*
X149740256Y-39247738D01*
X149936491Y-39400474D01*
X150155190Y-39518828D01*
X150390386Y-39599571D01*
X150635665Y-39640500D01*
X150884335Y-39640500D01*
X151129614Y-39599571D01*
X151364810Y-39518828D01*
X151583509Y-39400474D01*
X151779744Y-39247738D01*
X151948164Y-39064785D01*
X152084173Y-38856607D01*
X152102560Y-38814689D01*
X152147517Y-38761204D01*
X152214253Y-38740514D01*
X152216116Y-38740500D01*
X194433331Y-38740500D01*
X194433347Y-38740501D01*
X194440943Y-38740501D01*
X194599054Y-38740501D01*
X194599057Y-38740501D01*
X194751785Y-38699577D01*
X194801904Y-38670639D01*
X194888716Y-38620520D01*
X195000520Y-38508716D01*
X195000520Y-38508714D01*
X195010728Y-38498507D01*
X195010730Y-38498504D01*
X198498814Y-35010419D01*
X198560135Y-34976936D01*
X198626757Y-34980821D01*
X198665857Y-34994245D01*
X198890915Y-35031800D01*
X199119085Y-35031800D01*
X199344143Y-34994245D01*
X199559950Y-34920158D01*
X199760619Y-34811561D01*
X199940677Y-34671417D01*
X200095213Y-34503547D01*
X200171191Y-34387252D01*
X200224337Y-34341896D01*
X200293568Y-34332472D01*
X200356904Y-34361973D01*
X200378809Y-34387253D01*
X200454787Y-34503548D01*
X200579280Y-34638782D01*
X200609323Y-34671417D01*
X200789381Y-34811561D01*
X200990050Y-34920158D01*
X201205857Y-34994245D01*
X201430915Y-35031800D01*
X201659085Y-35031800D01*
X201884143Y-34994245D01*
X202099950Y-34920158D01*
X202300619Y-34811561D01*
X202480677Y-34671417D01*
X202635213Y-34503547D01*
X202711191Y-34387252D01*
X202764337Y-34341896D01*
X202833568Y-34332472D01*
X202896904Y-34361973D01*
X202918809Y-34387253D01*
X202994787Y-34503548D01*
X203119280Y-34638782D01*
X203149323Y-34671417D01*
X203329381Y-34811561D01*
X203530050Y-34920158D01*
X203745857Y-34994245D01*
X203970915Y-35031800D01*
X204199085Y-35031800D01*
X204424143Y-34994245D01*
X204639950Y-34920158D01*
X204840619Y-34811561D01*
X205020677Y-34671417D01*
X205059004Y-34629782D01*
X205118887Y-34593794D01*
X205188725Y-34595893D01*
X205246341Y-34635416D01*
X205266413Y-34670433D01*
X205304903Y-34773630D01*
X205304906Y-34773635D01*
X205391152Y-34888844D01*
X205391155Y-34888847D01*
X205506364Y-34975093D01*
X205506371Y-34975097D01*
X205641217Y-35025391D01*
X205641216Y-35025391D01*
X205648144Y-35026135D01*
X205700827Y-35031800D01*
X207549172Y-35031799D01*
X207608783Y-35025391D01*
X207743631Y-34975096D01*
X207858846Y-34888846D01*
X207945096Y-34773631D01*
X207995391Y-34638783D01*
X208001800Y-34579173D01*
X208001799Y-32730828D01*
X207995391Y-32671217D01*
X207983220Y-32638586D01*
X207945097Y-32536371D01*
X207945093Y-32536364D01*
X207858847Y-32421155D01*
X207858844Y-32421152D01*
X207743635Y-32334906D01*
X207743628Y-32334902D01*
X207608782Y-32284608D01*
X207608783Y-32284608D01*
X207549183Y-32278201D01*
X207549181Y-32278200D01*
X207549173Y-32278200D01*
X207549164Y-32278200D01*
X205700829Y-32278200D01*
X205700823Y-32278201D01*
X205641216Y-32284608D01*
X205506371Y-32334902D01*
X205506364Y-32334906D01*
X205391155Y-32421152D01*
X205391152Y-32421155D01*
X205304906Y-32536364D01*
X205304903Y-32536370D01*
X205266413Y-32639566D01*
X205224541Y-32695499D01*
X205159077Y-32719916D01*
X205090804Y-32705064D01*
X205059005Y-32680218D01*
X205020677Y-32638583D01*
X204840619Y-32498439D01*
X204639950Y-32389842D01*
X204639942Y-32389839D01*
X204424145Y-32315755D01*
X204199085Y-32278200D01*
X203970915Y-32278200D01*
X203745854Y-32315755D01*
X203530057Y-32389839D01*
X203530049Y-32389842D01*
X203329379Y-32498440D01*
X203149323Y-32638582D01*
X203149319Y-32638586D01*
X202994787Y-32806451D01*
X202918809Y-32922746D01*
X202865663Y-32968103D01*
X202796431Y-32977527D01*
X202733095Y-32948025D01*
X202711191Y-32922746D01*
X202635212Y-32806451D01*
X202480680Y-32638586D01*
X202480676Y-32638582D01*
X202300620Y-32498440D01*
X202300619Y-32498439D01*
X202099950Y-32389842D01*
X202099942Y-32389839D01*
X201884145Y-32315755D01*
X201659085Y-32278200D01*
X201430915Y-32278200D01*
X201205854Y-32315755D01*
X200990057Y-32389839D01*
X200990049Y-32389842D01*
X200789379Y-32498440D01*
X200609323Y-32638582D01*
X200609319Y-32638586D01*
X200454787Y-32806451D01*
X200378809Y-32922746D01*
X200325663Y-32968103D01*
X200256431Y-32977527D01*
X200193095Y-32948025D01*
X200171191Y-32922746D01*
X200095212Y-32806451D01*
X199940680Y-32638586D01*
X199940676Y-32638582D01*
X199760620Y-32498440D01*
X199760619Y-32498439D01*
X199559950Y-32389842D01*
X199559942Y-32389839D01*
X199344145Y-32315755D01*
X199119085Y-32278200D01*
X198890915Y-32278200D01*
X198665854Y-32315755D01*
X198450057Y-32389839D01*
X198450049Y-32389842D01*
X198249379Y-32498440D01*
X198069323Y-32638582D01*
X198069319Y-32638586D01*
X197914787Y-32806451D01*
X197838809Y-32922746D01*
X197785663Y-32968103D01*
X197716431Y-32977527D01*
X197653095Y-32948025D01*
X197631191Y-32922746D01*
X197555212Y-32806451D01*
X197400680Y-32638586D01*
X197400676Y-32638582D01*
X197220620Y-32498440D01*
X197220619Y-32498439D01*
X197019950Y-32389842D01*
X197019942Y-32389839D01*
X196804145Y-32315755D01*
X196579085Y-32278200D01*
X196350915Y-32278200D01*
X196125854Y-32315755D01*
X195910057Y-32389839D01*
X195910049Y-32389842D01*
X195709379Y-32498440D01*
X195529323Y-32638582D01*
X195529319Y-32638586D01*
X195374787Y-32806451D01*
X195298809Y-32922746D01*
X195245663Y-32968103D01*
X195176431Y-32977527D01*
X195113095Y-32948025D01*
X195091191Y-32922746D01*
X195015212Y-32806451D01*
X194860680Y-32638586D01*
X194860676Y-32638582D01*
X194680620Y-32498440D01*
X194680619Y-32498439D01*
X194479950Y-32389842D01*
X194479942Y-32389839D01*
X194264145Y-32315755D01*
X194039085Y-32278200D01*
X193810915Y-32278200D01*
X193585854Y-32315755D01*
X193370057Y-32389839D01*
X193370049Y-32389842D01*
X193169379Y-32498440D01*
X192989323Y-32638582D01*
X192989319Y-32638586D01*
X192834787Y-32806451D01*
X192758809Y-32922746D01*
X192705663Y-32968103D01*
X192636431Y-32977527D01*
X192573095Y-32948025D01*
X192551191Y-32922746D01*
X192475212Y-32806451D01*
X192320680Y-32638586D01*
X192320676Y-32638582D01*
X192140620Y-32498440D01*
X192140619Y-32498439D01*
X191939950Y-32389842D01*
X191939942Y-32389839D01*
X191724145Y-32315755D01*
X191499085Y-32278200D01*
X191270915Y-32278200D01*
X191045854Y-32315755D01*
X190830057Y-32389839D01*
X190830049Y-32389842D01*
X190629379Y-32498440D01*
X190449323Y-32638582D01*
X190449319Y-32638586D01*
X190294787Y-32806451D01*
X190218809Y-32922746D01*
X190165663Y-32968103D01*
X190096431Y-32977527D01*
X190033095Y-32948025D01*
X190011191Y-32922746D01*
X189935212Y-32806451D01*
X189780680Y-32638586D01*
X189780676Y-32638582D01*
X189600620Y-32498440D01*
X189600619Y-32498439D01*
X189399950Y-32389842D01*
X189399942Y-32389839D01*
X189184145Y-32315755D01*
X188959085Y-32278200D01*
X188730915Y-32278200D01*
X188505854Y-32315755D01*
X188290057Y-32389839D01*
X188290049Y-32389842D01*
X188089379Y-32498440D01*
X187909323Y-32638582D01*
X187909319Y-32638586D01*
X187754787Y-32806451D01*
X187678809Y-32922746D01*
X187625663Y-32968103D01*
X187556431Y-32977527D01*
X187493095Y-32948025D01*
X187471191Y-32922746D01*
X187395212Y-32806451D01*
X187240680Y-32638586D01*
X187240676Y-32638582D01*
X187060620Y-32498440D01*
X187060619Y-32498439D01*
X186859950Y-32389842D01*
X186859942Y-32389839D01*
X186644145Y-32315755D01*
X186419085Y-32278200D01*
X186190915Y-32278200D01*
X185965854Y-32315755D01*
X185750057Y-32389839D01*
X185750049Y-32389842D01*
X185549379Y-32498440D01*
X185369323Y-32638582D01*
X185369319Y-32638586D01*
X185214787Y-32806451D01*
X185138809Y-32922746D01*
X185085663Y-32968103D01*
X185016431Y-32977527D01*
X184953095Y-32948025D01*
X184931191Y-32922746D01*
X184855212Y-32806451D01*
X184700680Y-32638586D01*
X184700676Y-32638582D01*
X184520620Y-32498440D01*
X184520619Y-32498439D01*
X184319950Y-32389842D01*
X184319942Y-32389839D01*
X184104145Y-32315755D01*
X183879085Y-32278200D01*
X183650915Y-32278200D01*
X183425854Y-32315755D01*
X183210057Y-32389839D01*
X183210049Y-32389842D01*
X183009379Y-32498440D01*
X182829323Y-32638582D01*
X182829319Y-32638586D01*
X182674787Y-32806451D01*
X182598809Y-32922746D01*
X182545663Y-32968103D01*
X182476431Y-32977527D01*
X182413095Y-32948025D01*
X182391191Y-32922746D01*
X182315212Y-32806451D01*
X182160680Y-32638586D01*
X182160676Y-32638582D01*
X181980620Y-32498440D01*
X181980619Y-32498439D01*
X181779950Y-32389842D01*
X181779942Y-32389839D01*
X181564145Y-32315755D01*
X181339085Y-32278200D01*
X181110915Y-32278200D01*
X180885854Y-32315755D01*
X180670057Y-32389839D01*
X180670049Y-32389842D01*
X180469379Y-32498440D01*
X180289323Y-32638582D01*
X180289319Y-32638586D01*
X180134787Y-32806451D01*
X180058809Y-32922746D01*
X180005663Y-32968103D01*
X179936431Y-32977527D01*
X179873095Y-32948025D01*
X179851191Y-32922746D01*
X179775212Y-32806451D01*
X179620680Y-32638586D01*
X179620676Y-32638582D01*
X179440620Y-32498440D01*
X179440619Y-32498439D01*
X179239950Y-32389842D01*
X179239942Y-32389839D01*
X179024145Y-32315755D01*
X178799085Y-32278200D01*
X178570915Y-32278200D01*
X178345854Y-32315755D01*
X178130057Y-32389839D01*
X178130049Y-32389842D01*
X177929379Y-32498440D01*
X177749323Y-32638582D01*
X177749319Y-32638586D01*
X177594787Y-32806451D01*
X177469989Y-32997470D01*
X177378335Y-33206422D01*
X177322323Y-33427608D01*
X177322321Y-33427616D01*
X177303481Y-33654994D01*
X177303481Y-33655005D01*
X177322321Y-33882383D01*
X177322323Y-33882391D01*
X177378335Y-34103577D01*
X177469989Y-34312529D01*
X177594787Y-34503548D01*
X177719280Y-34638782D01*
X177749323Y-34671417D01*
X177929381Y-34811561D01*
X178130050Y-34920158D01*
X178345857Y-34994245D01*
X178570915Y-35031800D01*
X178799085Y-35031800D01*
X179024143Y-34994245D01*
X179239950Y-34920158D01*
X179440619Y-34811561D01*
X179620677Y-34671417D01*
X179775213Y-34503547D01*
X179851191Y-34387252D01*
X179904337Y-34341896D01*
X179973568Y-34332472D01*
X180036904Y-34361973D01*
X180058809Y-34387253D01*
X180134787Y-34503548D01*
X180259280Y-34638782D01*
X180289323Y-34671417D01*
X180469381Y-34811561D01*
X180670050Y-34920158D01*
X180885857Y-34994245D01*
X181110915Y-35031800D01*
X181339085Y-35031800D01*
X181564143Y-34994245D01*
X181779950Y-34920158D01*
X181980619Y-34811561D01*
X182160677Y-34671417D01*
X182315213Y-34503547D01*
X182391191Y-34387252D01*
X182444337Y-34341896D01*
X182513568Y-34332472D01*
X182576904Y-34361973D01*
X182598809Y-34387253D01*
X182674787Y-34503548D01*
X182799280Y-34638782D01*
X182829323Y-34671417D01*
X183009381Y-34811561D01*
X183210050Y-34920158D01*
X183425857Y-34994245D01*
X183650915Y-35031800D01*
X183879085Y-35031800D01*
X184104143Y-34994245D01*
X184319950Y-34920158D01*
X184520619Y-34811561D01*
X184700677Y-34671417D01*
X184855213Y-34503547D01*
X184931191Y-34387252D01*
X184984337Y-34341896D01*
X185053568Y-34332472D01*
X185116904Y-34361973D01*
X185138809Y-34387253D01*
X185214787Y-34503548D01*
X185339280Y-34638782D01*
X185369323Y-34671417D01*
X185549381Y-34811561D01*
X185750050Y-34920158D01*
X185965857Y-34994245D01*
X186190915Y-35031800D01*
X186419085Y-35031800D01*
X186644143Y-34994245D01*
X186859950Y-34920158D01*
X187060619Y-34811561D01*
X187240677Y-34671417D01*
X187395213Y-34503547D01*
X187471191Y-34387252D01*
X187524337Y-34341896D01*
X187593568Y-34332472D01*
X187656904Y-34361973D01*
X187678809Y-34387253D01*
X187754787Y-34503548D01*
X187879280Y-34638782D01*
X187909323Y-34671417D01*
X188089381Y-34811561D01*
X188290050Y-34920158D01*
X188505857Y-34994245D01*
X188730915Y-35031800D01*
X188959085Y-35031800D01*
X189184143Y-34994245D01*
X189399950Y-34920158D01*
X189600619Y-34811561D01*
X189780677Y-34671417D01*
X189935213Y-34503547D01*
X190011191Y-34387252D01*
X190064337Y-34341896D01*
X190133568Y-34332472D01*
X190196904Y-34361973D01*
X190218809Y-34387253D01*
X190294787Y-34503548D01*
X190419280Y-34638782D01*
X190449323Y-34671417D01*
X190629381Y-34811561D01*
X190830050Y-34920158D01*
X191045857Y-34994245D01*
X191270915Y-35031800D01*
X191499085Y-35031800D01*
X191724143Y-34994245D01*
X191939950Y-34920158D01*
X192140619Y-34811561D01*
X192320677Y-34671417D01*
X192475213Y-34503547D01*
X192551191Y-34387252D01*
X192604337Y-34341896D01*
X192673568Y-34332472D01*
X192736904Y-34361973D01*
X192758809Y-34387253D01*
X192834787Y-34503548D01*
X192959280Y-34638782D01*
X192989323Y-34671417D01*
X193169381Y-34811561D01*
X193370050Y-34920158D01*
X193585857Y-34994245D01*
X193810915Y-35031800D01*
X194039085Y-35031800D01*
X194264143Y-34994245D01*
X194479950Y-34920158D01*
X194680619Y-34811561D01*
X194860677Y-34671417D01*
X195015213Y-34503547D01*
X195091191Y-34387252D01*
X195144337Y-34341896D01*
X195213568Y-34332472D01*
X195276904Y-34361973D01*
X195298809Y-34387253D01*
X195374787Y-34503548D01*
X195499280Y-34638782D01*
X195529323Y-34671417D01*
X195709381Y-34811561D01*
X195910050Y-34920158D01*
X196125857Y-34994245D01*
X196350915Y-35031800D01*
X196479602Y-35031800D01*
X196546641Y-35051485D01*
X196592396Y-35104289D01*
X196602340Y-35173447D01*
X196573315Y-35237003D01*
X196567283Y-35243481D01*
X194307584Y-37503181D01*
X194246261Y-37536666D01*
X194219903Y-37539500D01*
X152216116Y-37539500D01*
X152149077Y-37519815D01*
X152103322Y-37467011D01*
X152102560Y-37465311D01*
X152084172Y-37423391D01*
X151948166Y-37215217D01*
X151926557Y-37191744D01*
X151779744Y-37032262D01*
X151583509Y-36879526D01*
X151583507Y-36879525D01*
X151583506Y-36879524D01*
X151364811Y-36761172D01*
X151364802Y-36761169D01*
X151129616Y-36680429D01*
X150884335Y-36639500D01*
X150635665Y-36639500D01*
X150390383Y-36680429D01*
X150155197Y-36761169D01*
X150155188Y-36761172D01*
X149936493Y-36879524D01*
X149740257Y-37032261D01*
X149571833Y-37215217D01*
X149435826Y-37423393D01*
X149335936Y-37651118D01*
X149274892Y-37892175D01*
X149274890Y-37892187D01*
X149254357Y-38139994D01*
X137760499Y-38139994D01*
X137760499Y-37092128D01*
X137754091Y-37032517D01*
X137703796Y-36897669D01*
X137703795Y-36897668D01*
X137703793Y-36897664D01*
X137617547Y-36782455D01*
X137617544Y-36782452D01*
X137502335Y-36696206D01*
X137502328Y-36696202D01*
X137367482Y-36645908D01*
X137367483Y-36645908D01*
X137307883Y-36639501D01*
X137307881Y-36639500D01*
X137307873Y-36639500D01*
X137307864Y-36639500D01*
X135212129Y-36639500D01*
X135212123Y-36639501D01*
X135152516Y-36645908D01*
X135017671Y-36696202D01*
X135017664Y-36696206D01*
X134902455Y-36782452D01*
X134902452Y-36782455D01*
X134816206Y-36897664D01*
X134816202Y-36897671D01*
X134765908Y-37032517D01*
X134759501Y-37092116D01*
X134759501Y-37092123D01*
X134759500Y-37092135D01*
X134759500Y-39187870D01*
X134759501Y-39187876D01*
X134765908Y-39247483D01*
X134816202Y-39382328D01*
X134816206Y-39382335D01*
X134902452Y-39497544D01*
X134902453Y-39497544D01*
X134902454Y-39497546D01*
X134930882Y-39518827D01*
X135018586Y-39584483D01*
X135060456Y-39640417D01*
X135065440Y-39710108D01*
X135048083Y-39751570D01*
X134935826Y-39923393D01*
X134835936Y-40151118D01*
X134774892Y-40392175D01*
X134774890Y-40392187D01*
X134754357Y-40639994D01*
X133544875Y-40639994D01*
X133544875Y-33992135D01*
X141659500Y-33992135D01*
X141659500Y-36087870D01*
X141659501Y-36087876D01*
X141665908Y-36147483D01*
X141716202Y-36282328D01*
X141716206Y-36282335D01*
X141802452Y-36397544D01*
X141802455Y-36397547D01*
X141917664Y-36483793D01*
X141917671Y-36483797D01*
X142052517Y-36534091D01*
X142052516Y-36534091D01*
X142059444Y-36534835D01*
X142112127Y-36540500D01*
X145407872Y-36540499D01*
X145467483Y-36534091D01*
X145602331Y-36483796D01*
X145717546Y-36397546D01*
X145803796Y-36282331D01*
X145854091Y-36147483D01*
X145860500Y-36087873D01*
X145860499Y-33992128D01*
X145854091Y-33932517D01*
X145835395Y-33882391D01*
X145803797Y-33797671D01*
X145803793Y-33797664D01*
X145717547Y-33682455D01*
X145717544Y-33682452D01*
X145602335Y-33596206D01*
X145602328Y-33596202D01*
X145467482Y-33545908D01*
X145467483Y-33545908D01*
X145407883Y-33539501D01*
X145407881Y-33539500D01*
X145407873Y-33539500D01*
X145407864Y-33539500D01*
X142112129Y-33539500D01*
X142112123Y-33539501D01*
X142052516Y-33545908D01*
X141917671Y-33596202D01*
X141917664Y-33596206D01*
X141802455Y-33682452D01*
X141802452Y-33682455D01*
X141716206Y-33797664D01*
X141716202Y-33797671D01*
X141665908Y-33932517D01*
X141659501Y-33992116D01*
X141659501Y-33992123D01*
X141659500Y-33992135D01*
X133544875Y-33992135D01*
X133544875Y-30548875D01*
X133564560Y-30481836D01*
X133617364Y-30436081D01*
X133668875Y-30424875D01*
X164050200Y-30424875D01*
X164117239Y-30444560D01*
G37*
G04 #@! TD.AperFunction*
G04 #@! TA.AperFunction,NonConductor*
G36*
X178196691Y-51185185D02*
G01*
X178242446Y-51237989D01*
X178252390Y-51307147D01*
X178223365Y-51370703D01*
X178217333Y-51377181D01*
X177569481Y-52025032D01*
X177569479Y-52025035D01*
X177519361Y-52111844D01*
X177519359Y-52111846D01*
X177490425Y-52161959D01*
X177490424Y-52161960D01*
X177478579Y-52206166D01*
X177449499Y-52314693D01*
X177449499Y-52314695D01*
X177449499Y-52482796D01*
X177449500Y-52482809D01*
X177449500Y-55418363D01*
X177429815Y-55485402D01*
X177379302Y-55530083D01*
X177172300Y-55629769D01*
X176955520Y-55777567D01*
X176763198Y-55956014D01*
X176599614Y-56161143D01*
X176468432Y-56388356D01*
X176372582Y-56632578D01*
X176372576Y-56632597D01*
X176314197Y-56888374D01*
X176314196Y-56888379D01*
X176294592Y-57149995D01*
X176294592Y-57150004D01*
X176314196Y-57411620D01*
X176314197Y-57411625D01*
X176372576Y-57667402D01*
X176372578Y-57667411D01*
X176372580Y-57667416D01*
X176468432Y-57911643D01*
X176599614Y-58138857D01*
X176650733Y-58202958D01*
X176763197Y-58343984D01*
X176769377Y-58349717D01*
X176805133Y-58409744D01*
X176802760Y-58479574D01*
X176763011Y-58537035D01*
X176698506Y-58563884D01*
X176694788Y-58564234D01*
X176691428Y-58564498D01*
X176516443Y-58592214D01*
X176347960Y-58646956D01*
X176347957Y-58646957D01*
X176190109Y-58727386D01*
X176131572Y-58769916D01*
X176046786Y-58831517D01*
X176046784Y-58831519D01*
X176046783Y-58831519D01*
X175928431Y-58949872D01*
X175867108Y-58983357D01*
X175797416Y-58978373D01*
X175741483Y-58936501D01*
X175717066Y-58871037D01*
X175716750Y-58862191D01*
X175716750Y-52446346D01*
X175736435Y-52379307D01*
X175753065Y-52358669D01*
X175925410Y-52186323D01*
X175986731Y-52152840D01*
X175999186Y-52150788D01*
X176086130Y-52140993D01*
X176256397Y-52081414D01*
X176409137Y-51985441D01*
X176536691Y-51857887D01*
X176632664Y-51705147D01*
X176692243Y-51534880D01*
X176693404Y-51524576D01*
X176712440Y-51355628D01*
X176712440Y-51355622D01*
X176706554Y-51303384D01*
X176718608Y-51234562D01*
X176765957Y-51183182D01*
X176829774Y-51165500D01*
X178129652Y-51165500D01*
X178196691Y-51185185D01*
G37*
G04 #@! TD.AperFunction*
G04 #@! TA.AperFunction,NonConductor*
G36*
X175921953Y-60424096D02*
G01*
X175928431Y-60430128D01*
X176046786Y-60548483D01*
X176190110Y-60652614D01*
X176258577Y-60687500D01*
X176347957Y-60733042D01*
X176347960Y-60733043D01*
X176432201Y-60760414D01*
X176516445Y-60787786D01*
X176691421Y-60815500D01*
X176691422Y-60815500D01*
X176868578Y-60815500D01*
X176868579Y-60815500D01*
X177043555Y-60787786D01*
X177212042Y-60733042D01*
X177269205Y-60703915D01*
X177337873Y-60691019D01*
X177402613Y-60717294D01*
X177442871Y-60774400D01*
X177449500Y-60814400D01*
X177449500Y-74468363D01*
X177429815Y-74535402D01*
X177379302Y-74580083D01*
X177172300Y-74679769D01*
X176955520Y-74827567D01*
X176763198Y-75006014D01*
X176599614Y-75211143D01*
X176468432Y-75438356D01*
X176372582Y-75682578D01*
X176372576Y-75682597D01*
X176314197Y-75938374D01*
X176314196Y-75938379D01*
X176294592Y-76199995D01*
X176294592Y-76200004D01*
X176314196Y-76461620D01*
X176314197Y-76461625D01*
X176372576Y-76717402D01*
X176372578Y-76717411D01*
X176372580Y-76717416D01*
X176468432Y-76961643D01*
X176599614Y-77188857D01*
X176650733Y-77252958D01*
X176763197Y-77393984D01*
X176769377Y-77399717D01*
X176805133Y-77459744D01*
X176802760Y-77529574D01*
X176763011Y-77587035D01*
X176698506Y-77613884D01*
X176694788Y-77614234D01*
X176691428Y-77614498D01*
X176516443Y-77642214D01*
X176347960Y-77696956D01*
X176347957Y-77696957D01*
X176190109Y-77777386D01*
X176131572Y-77819916D01*
X176046786Y-77881517D01*
X176046784Y-77881519D01*
X176046783Y-77881519D01*
X175928431Y-77999872D01*
X175867108Y-78033357D01*
X175797416Y-78028373D01*
X175741483Y-77986501D01*
X175717066Y-77921037D01*
X175716750Y-77912191D01*
X175716750Y-60517809D01*
X175736435Y-60450770D01*
X175789239Y-60405015D01*
X175858397Y-60395071D01*
X175921953Y-60424096D01*
G37*
G04 #@! TD.AperFunction*
G04 #@! TA.AperFunction,NonConductor*
G36*
X175921953Y-79474096D02*
G01*
X175928431Y-79480128D01*
X176046786Y-79598483D01*
X176190110Y-79702614D01*
X176258577Y-79737500D01*
X176347957Y-79783042D01*
X176347960Y-79783043D01*
X176432201Y-79810414D01*
X176516445Y-79837786D01*
X176691421Y-79865500D01*
X176691422Y-79865500D01*
X176868578Y-79865500D01*
X176868579Y-79865500D01*
X177043555Y-79837786D01*
X177212042Y-79783042D01*
X177269205Y-79753915D01*
X177337873Y-79741019D01*
X177402613Y-79767294D01*
X177442871Y-79824400D01*
X177449500Y-79864400D01*
X177449500Y-93518363D01*
X177429815Y-93585402D01*
X177379302Y-93630083D01*
X177172300Y-93729769D01*
X176955520Y-93877567D01*
X176763198Y-94056014D01*
X176599614Y-94261143D01*
X176468432Y-94488356D01*
X176372582Y-94732578D01*
X176372576Y-94732597D01*
X176314197Y-94988374D01*
X176314196Y-94988379D01*
X176294592Y-95249995D01*
X176294592Y-95250004D01*
X176314196Y-95511620D01*
X176314197Y-95511625D01*
X176372576Y-95767402D01*
X176372578Y-95767411D01*
X176372580Y-95767416D01*
X176468432Y-96011643D01*
X176599614Y-96238857D01*
X176650733Y-96302958D01*
X176763197Y-96443984D01*
X176769377Y-96449717D01*
X176805133Y-96509744D01*
X176802760Y-96579574D01*
X176763011Y-96637035D01*
X176698506Y-96663884D01*
X176694788Y-96664234D01*
X176691428Y-96664498D01*
X176516443Y-96692214D01*
X176347960Y-96746956D01*
X176347957Y-96746957D01*
X176190109Y-96827386D01*
X176112104Y-96884061D01*
X176046786Y-96931517D01*
X176046784Y-96931519D01*
X176046783Y-96931519D01*
X175928431Y-97049872D01*
X175867108Y-97083357D01*
X175797416Y-97078373D01*
X175741483Y-97036501D01*
X175717066Y-96971037D01*
X175716750Y-96962191D01*
X175716750Y-79567809D01*
X175736435Y-79500770D01*
X175789239Y-79455015D01*
X175858397Y-79445071D01*
X175921953Y-79474096D01*
G37*
G04 #@! TD.AperFunction*
G04 #@! TA.AperFunction,NonConductor*
G36*
X133750078Y-109504301D02*
G01*
X133787852Y-109563079D01*
X133789081Y-109567574D01*
X133810937Y-109653881D01*
X133910826Y-109881606D01*
X134046833Y-110089782D01*
X134046836Y-110089785D01*
X134128405Y-110178393D01*
X134159327Y-110241046D01*
X134151467Y-110310473D01*
X134107320Y-110364628D01*
X134040902Y-110386319D01*
X134037175Y-110386375D01*
X133668875Y-110386375D01*
X133601836Y-110366690D01*
X133556081Y-110313886D01*
X133544875Y-110262375D01*
X133544875Y-109598014D01*
X133564560Y-109530975D01*
X133617364Y-109485220D01*
X133686522Y-109475276D01*
X133750078Y-109504301D01*
G37*
G04 #@! TD.AperFunction*
M02*
